{
.appVersion = "1049";
DisplayStrings = (
/downArrowHead
);
classes = (
{
automatic = 1;

glyphs = (
{
glyphname = A;
lastChange = "2017-08-10 18:40:44 +0000";
layers = (
{
anchors = (
{
name = bottom;
position = "{338, 0}";
},
{
name = ogonek;
position = "{624, 10}";
},
{
name = top;
position = "{338, 694}";
}
);
layerId = "F333AEC5-BB61-4D5E-9EDD-6124322D28F2";
paths = (
{
closed = 1;
nodes = (
"120 0 LINE",
"339 606 LINE",
"345 606 LINE",
"546 0 LINE",
"643 0 LINE",
"399 694 LINE",
"291 694 LINE",
"31 0 LINE"
);
},
{
closed = 1;
nodes = (
"509 206 LINE",
"509 278 LINE",
"162 278 LINE",
"162 206 LINE"
);
}
);
width = 675;
}
);
note = A;
unicode = 0041;
},
{
glyphname = B;
lastChange = "2017-08-10 20:07:17 +0000";
layers = (
{
anchors = (
{
name = bottom;
position = "{331, 0}";
},
{
name = top;
position = "{331, 694}";
}
);
layerId = "F333AEC5-BB61-4D5E-9EDD-6124322D28F2";
paths = (
{
closed = 1;
nodes = (
"178 397 LINE",
"178 325 LINE",
"385 325 LINE SMOOTH",
"473 325 OFFCURVE",
"520 262 OFFCURVE",
"520 191 CURVE SMOOTH",
"520 111 OFFCURVE",
"461 72 OFFCURVE",
"371 72 CURVE SMOOTH",
"192 72 LINE",
"192 622 LINE",
"320 622 LINE SMOOTH",
"409 622 OFFCURVE",
"468 576 OFFCURVE",
"468 505 CURVE SMOOTH",
"468 430 OFFCURVE",
"403 396 OFFCURVE",
"352 375 CURVE",
"462 375 LINE",
"503 393 OFFCURVE",
"553 433 OFFCURVE",
"553 513 CURVE SMOOTH",
"553 620 OFFCURVE",
"464 694 OFFCURVE",
"330 694 CURVE SMOOTH",
"109 694 LINE",
"109 0 LINE",
"361 0 LINE SMOOTH",
"506 0 OFFCURVE",
"605 80 OFFCURVE",
"605 201 CURVE SMOOTH",
"605 314 OFFCURVE",
"518 397 OFFCURVE",
"394 397 CURVE SMOOTH"
);
}
);
width = 662;
}
);
note = B;
unicode = 0042;
},
{
glyphname = C;
lastChange = "2017-08-11 18:28:43 +0000";
layers = (
{
anchors = (
{
name = bottom;
position = "{376, 0}";
},
{
name = top;
position = "{376, 694}";
}
);
layerId = "F333AEC5-BB61-4D5E-9EDD-6124322D28F2";
paths = (
{
closed = 1;
nodes = (
"481 -10 OFFCURVE",
"551 9 OFFCURVE",
"608 34 CURVE",
"589 95 LINE",
"543 78 OFFCURVE",
"483 63 OFFCURVE",
"426 63 CURVE SMOOTH",
"258 63 OFFCURVE",
"148 191 OFFCURVE",
"148 355 CURVE SMOOTH",
"148 515 OFFCURVE",
"253 630 OFFCURVE",
"398 630 CURVE SMOOTH",
"453 630 OFFCURVE",
"523 614 OFFCURVE",
"575 594 CURVE",
"602 672 LINE",
"543 692 OFFCURVE",
"474 703 OFFCURVE",
"418 703 CURVE SMOOTH",
"208 703 OFFCURVE",
"63 553 OFFCURVE",
"63 340 CURVE SMOOTH",
"63 138 OFFCURVE",
"193 -10 OFFCURVE",
"405 -10 CURVE SMOOTH"
);
}
);
width = 651;
}
);
note = C;
unicode = 0043;
},
{
glyphname = D;
lastChange = "2017-08-11 18:28:42 +0000";
layers = (
{
anchors = (
{
name = bottom;
position = "{339, 0}";
},
{
name = center;
position = "{172, 347}";
},
{
name = top;
position = "{339, 694}";
}
);
layerId = "F333AEC5-BB61-4D5E-9EDD-6124322D28F2";
paths = (
{
closed = 1;
nodes = (
"321 0 LINE SMOOTH",
"550 0 OFFCURVE",
"673 153 OFFCURVE",
"673 356 CURVE SMOOTH",
"673 570 OFFCURVE",
"535 694 OFFCURVE",
"336 694 CURVE SMOOTH",
"109 694 LINE",
"109 0 LINE"
);
},
{
closed = 1;
nodes = (
"192 72 LINE",
"192 622 LINE",
"326 622 LINE SMOOTH",
"504 622 OFFCURVE",
"590 513 OFFCURVE",
"590 347 CURVE SMOOTH",
"590 184 OFFCURVE",
"507 72 OFFCURVE",
"331 72 CURVE SMOOTH"
);
}
);
width = 737;
}
);
note = D;
unicode = 0044;
},
{
glyphname = E;
lastChange = "2017-08-11 18:28:42 +0000";
layers = (
{
anchors = (
{
name = "#entry";
position = "{149, 291}";
},
{
name = bottom;
position = "{318, 0}";
},
{
name = ogonek;
position = "{497, 10}";
},
{
name = top;
position = "{318, 694}";
},
{
name = topleft;
position = "{20, 694}";
}
);
layerId = "F333AEC5-BB61-4D5E-9EDD-6124322D28F2";
paths = (
{
closed = 1;
nodes = (
"192 0 LINE",
"192 694 LINE",
"109 694 LINE",
"109 0 LINE"
);
},
{
closed = 1;
nodes = (
"515 0 LINE",
"515 72 LINE",
"149 72 LINE",
"149 0 LINE"
);
},
{
closed = 1;
nodes = (
"488 323 LINE",
"488 395 LINE",
"149 395 LINE",
"149 323 LINE"
);
},
{
closed = 1;
nodes = (
"515 622 LINE",
"515 694 LINE",
"149 694 LINE",
"149 622 LINE"
);
}
);
width = 575;
}
);
note = E;
unicode = 0045;
},
{
glyphname = F;
lastChange = "2017-08-11 18:28:42 +0000";
layers = (
{
anchors = (
{
name = bottom;
position = "{276, 0}";
},
{
name = top;
position = "{276, 694}";
}
);
layerId = "F333AEC5-BB61-4D5E-9EDD-6124322D28F2";
paths = (
{
closed = 1;
nodes = (
"192 0 LINE",
"192 694 LINE",
"109 694 LINE",
"109 0 LINE"
);
},
{
closed = 1;
nodes = (
"481 322 LINE",
"481 394 LINE",
"141 394 LINE",
"141 322 LINE"
);
},
{
closed = 1;
nodes = (
"510 622 LINE",
"510 694 LINE",
"141 694 LINE",
"141 622 LINE"
);
}
);
width = 552;
}
);
note = F;
unicode = 0046;
},
{
glyphname = G;
lastChange = "2017-08-11 18:28:42 +0000";
layers = (
{
anchors = (
{
name = bottom;
position = "{403, 0}";
},
{
name = top;
position = "{403, 694}";
}
);
layerId = "F333AEC5-BB61-4D5E-9EDD-6124322D28F2";
paths = (
{
closed = 1;
nodes = (
"528 -9 OFFCURVE",
"613 34 OFFCURVE",
"665 74 CURVE",
"665 368 LINE",
"385 368 LINE",
"385 296 LINE",
"582 296 LINE",
"582 102 LINE",
"539 81 OFFCURVE",
"482 64 OFFCURVE",
"419 64 CURVE SMOOTH",
"256 64 OFFCURVE",
"149 177 OFFCURVE",
"149 351 CURVE SMOOTH",
"149 526 OFFCURVE",
"257 630 OFFCURVE",
"423 630 CURVE SMOOTH",
"492 630 OFFCURVE",
"571 612 OFFCURVE",
"630 585 CURVE",
"657 663 LINE",
"594 687 OFFCURVE",
"509 703 OFFCURVE",
"434 703 CURVE SMOOTH",
"212 703 OFFCURVE",
"64 564 OFFCURVE",
"64 340 CURVE SMOOTH",
"64 126 OFFCURVE",
"200 -9 OFFCURVE",
"410 -9 CURVE SMOOTH"
);
}
);
width = 746;
}
);
note = G;
unicode = 0047;
},
{
glyphname = H;
lastChange = "2017-08-10 18:42:35 +0000";
layers = (
{
anchors = (
{
name = bottom;
position = "{378, 0}";
},
{
name = center;
position = "{378, 539}";
},
{
name = top;
position = "{378, 694}";
},
{
name = topleft;
position = "{20, 694}";
}
);
layerId = "F333AEC5-BB61-4D5E-9EDD-6124322D28F2";
paths = (
{
closed = 1;
nodes = (
"646 0 LINE",
"646 694 LINE",
"563 694 LINE",
"563 0 LINE"
);
},
{
closed = 1;
nodes = (
"192 0 LINE",
"192 694 LINE",
"109 694 LINE",
"109 0 LINE"
);
},
{
closed = 1;
nodes = (
"611 323 LINE",
"611 395 LINE",
"141 395 LINE",
"141 323 LINE"
);
}
);
width = 755;
}
);
note = H;
unicode = 0048;
},
{
glyphname = I;
lastChange = "2017-08-11 18:28:43 +0000";
layers = (
{
anchors = (
{
name = bottom;
position = "{151, 0}";
},
{
name = ogonek;
position = "{174, 10}";
},
{
name = top;
position = "{151, 694}";
},
{
name = topleft;
position = "{20, 694}";
}
);
layerId = "F333AEC5-BB61-4D5E-9EDD-6124322D28F2";
paths = (
{
closed = 1;
nodes = (
"192 0 LINE",
"192 694 LINE",
"109 694 LINE",
"109 0 LINE"
);
}
);
width = 301;
}
);
note = I;
unicode = 0049;
},
{
glyphname = J;
lastChange = "2017-08-10 20:24:54 +0000";
layers = (
{
anchors = (
{
name = bottom;
position = "{218, 0}";
},
{
name = top;
position = "{293, 694}";
}
);
layerId = "F333AEC5-BB61-4D5E-9EDD-6124322D28F2";
paths = (
{
closed = 1;
nodes = (
"262 -10 OFFCURVE",
"336 82 OFFCURVE",
"336 200 CURVE SMOOTH",
"336 694 LINE",
"253 694 LINE",
"253 191 LINE SMOOTH",
"253 107 OFFCURVE",
"220 63 OFFCURVE",
"155 63 CURVE SMOOTH",
"120 63 OFFCURVE",
"79 76 OFFCURVE",
"50 89 CURVE",
"28 19 LINE",
"74 -2 OFFCURVE",
"108 -10 OFFCURVE",
"143 -10 CURVE SMOOTH"
);
}
);
width = 436;
}
);
note = J;
unicode = 004A;
},
{
glyphname = K;
lastChange = "2017-08-11 21:06:41 +0000";
layers = (
{
anchors = (
{
name = bottom;
position = "{323, 0}";
},
{
name = top;
position = "{323, 694}";
}
);
layerId = "F333AEC5-BB61-4D5E-9EDD-6124322D28F2";
paths = (
{
closed = 1;
nodes = (
"620 0 LINE",
"276 375 LINE",
"275 348 LINE",
"601 694 LINE",
"495 694 LINE",
"183 356 LINE",
"506 0 LINE"
);
},
{
closed = 1;
nodes = (
"192 0 LINE",
"192 694 LINE",
"109 694 LINE",
"109 0 LINE"
);
}
);
width = 645;
}
);
note = K;
unicode = 004B;
},
{
glyphname = L;
lastChange = "2017-08-10 18:51:30 +0000";
layers = (
{
anchors = (
{
name = bottom;
position = "{307, 0}";
},
{
name = center;
position = "{177, 347}";
},
{
name = top;
position = "{152, 694}";
},
{
name = topright;
position = "{316, 482}";
}
);
layerId = "F333AEC5-BB61-4D5E-9EDD-6124322D28F2";
paths = (
{
closed = 1;
nodes = (
"192 0 LINE",
"192 694 LINE",
"109 694 LINE",
"109 0 LINE"
);
},
{
closed = 1;
nodes = (
"503 0 LINE",
"503 74 LINE",
"141 74 LINE",
"141 0 LINE"
);
}
);
width = 533;
}
);
note = L;
unicode = 004C;
},
{
glyphname = M;
lastChange = "2017-08-11 20:12:41 +0000";
layers = (
{
anchors = (
{
name = bottom;
position = "{447, 0}";
},
{
name = top;
position = "{447, 694}";
}
);
layerId = "F333AEC5-BB61-4D5E-9EDD-6124322D28F2";
paths = (
{
closed = 1;
nodes = (
"187 0 LINE",
"187 439 LINE SMOOTH",
"187 488 OFFCURVE",
"185 539 OFFCURVE",
"179 576 CURVE",
"440 142 LINE",
"454 142 LINE",
"714 576 LINE",
"708 533 OFFCURVE",
"706 482 OFFCURVE",
"706 439 CURVE SMOOTH",
"706 0 LINE",
"784 0 LINE",
"784 694 LINE",
"704 694 LINE",
"443 248 LINE",
"460 248 LINE",
"197 694 LINE",
"109 694 LINE",
"109 0 LINE"
);
}
);
width = 893;
}
);
note = M;
unicode = 004D;
},
{
glyphname = N;
lastChange = "2017-08-11 19:55:49 +0000";
layers = (
{
anchors = (
{
name = "#hook";
position = "{630, 0}";
},
{
name = bottom;
position = "{392, 0}";
},
{
name = top;
position = "{392, 694}";
}
);
layerId = "F333AEC5-BB61-4D5E-9EDD-6124322D28F2";
paths = (
{
closed = 1;
nodes = (
"187 0 LINE",
"187 448 LINE SMOOTH",
"187 503 OFFCURVE",
"184 556 OFFCURVE",
"181 594 CURVE",
"580 0 LINE",
"675 0 LINE",
"675 694 LINE",
"597 694 LINE",
"597 254 LINE SMOOTH",
"597 202 OFFCURVE",
"600 149 OFFCURVE",
"603 108 CURVE",
"204 694 LINE",
"109 694 LINE",
"109 0 LINE"
);
}
);
width = 784;
}
);
note = N;
unicode = 004E;
},
{
glyphname = O;
lastChange = "2017-08-10 19:33:12 +0000";
layers = (
{
anchors = (
{
name = "#exit";
position = "{672, 291}";
},
{
name = bottom;
position = "{391, 0}";
},
{
name = center;
position = "{391, 347}";
},
{
name = ogonek;
position = "{444, 10}";
},
{
name = top;
position = "{391, 694}";
},
{
name = topleft;
position = "{20, 694}";
},
{
name = topright;
position = "{582, 694}";
}
);
layerId = "F333AEC5-BB61-4D5E-9EDD-6124322D28F2";
paths = (
{
closed = 1;
nodes = (
"580 -7 OFFCURVE",
"717 139 OFFCURVE",
"717 356 CURVE SMOOTH",
"717 555 OFFCURVE",
"602 703 OFFCURVE",
"399 703 CURVE SMOOTH",
"195 703 OFFCURVE",
"65 552 OFFCURVE",
"65 344 CURVE SMOOTH",
"65 136 OFFCURVE",
"195 -7 OFFCURVE",
"387 -7 CURVE SMOOTH"
);
},
{
closed = 1;
nodes = (
"239 65 OFFCURVE",
"150 202 OFFCURVE",
"150 356 CURVE SMOOTH",
"150 513 OFFCURVE",
"243 630 OFFCURVE",
"389 630 CURVE SMOOTH",
"543 630 OFFCURVE",
"632 500 OFFCURVE",
"632 344 CURVE SMOOTH",
"632 195 OFFCURVE",
"551 65 OFFCURVE",
"397 65 CURVE SMOOTH"
);
}
);
width = 782;
}
);
note = O;
unicode = 004F;
},
{
glyphname = P;
lastChange = "2017-08-07 18:55:38 +0000";
layers = (
{
anchors = (
{
name = bottom;
position = "{310, 0}";
},
{
name = top;
position = "{310, 694}";
}
);
layerId = "F333AEC5-BB61-4D5E-9EDD-6124322D28F2";
paths = (
{
closed = 1;
nodes = (
"192 0 LINE",
"192 622 LINE",
"325 622 LINE SMOOTH",
"420 622 OFFCURVE",
"484 556 OFFCURVE",
"484 461 CURVE SMOOTH",
"484 368 OFFCURVE",
"423 314 OFFCURVE",
"335 314 CURVE SMOOTH",
"148 314 LINE",
"148 242 LINE",
"325 242 LINE SMOOTH",
"471 242 OFFCURVE",
"569 339 OFFCURVE",
"569 470 CURVE SMOOTH",
"569 601 OFFCURVE",
"470 694 OFFCURVE",
"335 694 CURVE SMOOTH",
"109 694 LINE",
"109 0 LINE"
);
}
);
width = 619;
}
);
note = P;
unicode = 0050;
},
{
glyphname = Thorn;
lastChange = "2017-08-07 19:24:40 +0000";
layers = (
{
layerId = "F333AEC5-BB61-4D5E-9EDD-6124322D28F2";
paths = (
{
closed = 1;
nodes = (
"176 509 LINE",
"325 509 LINE SMOOTH",
"420 509 OFFCURVE",
"484 443 OFFCURVE",
"484 348 CURVE SMOOTH",
"484 255 OFFCURVE",
"423 201 OFFCURVE",
"335 201 CURVE SMOOTH",
"148 201 LINE",
"148 129 LINE",
"325 129 LINE SMOOTH",
"471 129 OFFCURVE",
"569 226 OFFCURVE",
"569 357 CURVE SMOOTH",
"569 488 OFFCURVE",
"470 581 OFFCURVE",
"335 581 CURVE SMOOTH",
"176 581 LINE"
);
},
{
closed = 1;
nodes = (
"109 694 LINE",
"109 0 LINE",
"192 0 LINE",
"192 694 LINE"
);
}
);
width = 619;
}
);
leftMetricsKey = P;
rightMetricsKey = P;
unicode = 00DE;
},
{
glyphname = R;
lastChange = "2017-08-11 18:28:42 +0000";
layers = (
{
anchors = (
{
name = bottom;
position = "{326, 0}";
},
{
name = top;
position = "{326, 694}";
}
);
layerId = "F333AEC5-BB61-4D5E-9EDD-6124322D28F2";
paths = (
{
closed = 1;
nodes = (
"512 0 LINE",
"611 0 LINE",
"419 328 LINE",
"324 328 LINE"
);
},
{
closed = 1;
nodes = (
"192 0 LINE",
"192 622 LINE",
"329 622 LINE SMOOTH",
"426 622 OFFCURVE",
"486 576 OFFCURVE",
"486 488 CURVE SMOOTH",
"486 403 OFFCURVE",
"430 359 OFFCURVE",
"339 359 CURVE SMOOTH",
"148 359 LINE",
"148 287 LINE",
"329 287 LINE SMOOTH",
"472 287 OFFCURVE",
"571 372 OFFCURVE",
"571 499 CURVE SMOOTH",
"571 625 OFFCURVE",
"473 694 OFFCURVE",
"339 694 CURVE SMOOTH",
"109 694 LINE",
"109 0 LINE"
);
}
);
width = 652;
}
);
note = R;
unicode = 0052;
},
{
glyphname = S;
lastChange = "2017-08-11 18:28:43 +0000";
layers = (
{
anchors = (
{
name = bottom;
position = "{296, 0}";
},
{
name = top;
position = "{296, 694}";
}
);
layerId = "F333AEC5-BB61-4D5E-9EDD-6124322D28F2";
paths = (
{
closed = 1;
nodes = (
"431 -10 OFFCURVE",
"534 69 OFFCURVE",
"534 203 CURVE SMOOTH",
"534 461 OFFCURVE",
"154 342 OFFCURVE",
"154 514 CURVE SMOOTH",
"154 585 OFFCURVE",
"221 631 OFFCURVE",
"326 631 CURVE SMOOTH",
"387 631 OFFCURVE",
"444 615 OFFCURVE",
"484 595 CURVE",
"511 673 LINE",
"472 687 OFFCURVE",
"406 704 OFFCURVE",
"332 704 CURVE SMOOTH",
"178 704 OFFCURVE",
"69 627 OFFCURVE",
"69 500 CURVE SMOOTH",
"69 262 OFFCURVE",
"449 376 OFFCURVE",
"449 187 CURVE SMOOTH",
"449 114 OFFCURVE",
"390 63 OFFCURVE",
"289 63 CURVE SMOOTH",
"224 63 OFFCURVE",
"145 84 OFFCURVE",
"83 115 CURVE",
"56 37 LINE",
"117 7 OFFCURVE",
"201 -10 OFFCURVE",
"274 -10 CURVE SMOOTH"
);
}
);
width = 591;
}
);
note = S;
unicode = 0053;
},
{
glyphname = Germandbls;
lastChange = "2017-08-10 20:07:16 +0000";
layers = (
{
layerId = "F333AEC5-BB61-4D5E-9EDD-6124322D28F2";
paths = (
{
closed = 1;
nodes = (
"551 -12 OFFCURVE",
"634 78 OFFCURVE",
"634 184 CURVE SMOOTH",
"634 281 OFFCURVE",
"564 356 OFFCURVE",
"453 404 CURVE",
"584 586 LINE",
"557 665 OFFCURVE",
"463 715 OFFCURVE",
"351 715 CURVE SMOOTH",
"202 715 OFFCURVE",
"100 627 OFFCURVE",
"100 494 CURVE SMOOTH",
"100 0 LINE",
"183 0 LINE",
"183 503 LINE SMOOTH",
"183 586 OFFCURVE",
"248 642 OFFCURVE",
"350 642 CURVE SMOOTH",
"420 642 OFFCURVE",
"481 616 OFFCURVE",
"496 576 CURVE",
"341 362 LINE",
"472 319 OFFCURVE",
"549 260 OFFCURVE",
"549 175 CURVE SMOOTH",
"549 116 OFFCURVE",
"512 61 OFFCURVE",
"436 61 CURVE SMOOTH",
"394 61 OFFCURVE",
"338 77 OFFCURVE",
"288 101 CURVE",
"261 25 LINE",
"308 3 OFFCURVE",
"373 -12 OFFCURVE",
"425 -12 CURVE SMOOTH"
);
}
);
width = 686;
}
);
unicode = 1E9E;
},
{
glyphname = Schwa;
lastChange = "2017-08-10 19:46:10 +0000";
layers = (
{
layerId = "F333AEC5-BB61-4D5E-9EDD-6124322D28F2";
paths = (
{
closed = 1;
nodes = (
"532 -10 OFFCURVE",
"656 139 OFFCURVE",
"656 348 CURVE SMOOTH",
"656 563 OFFCURVE",
"524 694 OFFCURVE",
"328 694 CURVE SMOOTH",
"256 694 OFFCURVE",
"162 676 OFFCURVE",
"92 648 CURVE",
"119 575 LINE",
"186 603 OFFCURVE",
"259 621 OFFCURVE",
"320 621 CURVE SMOOTH",
"469 621 OFFCURVE",
"571 513 OFFCURVE",
"571 338 CURVE SMOOTH",
"571 178 OFFCURVE",
"486 63 OFFCURVE",
"355 63 CURVE SMOOTH",
"235 63 OFFCURVE",
"150 160 OFFCURVE",
"150 306 CURVE",
"576 306 LINE",
"576 378 LINE",
"69 378 LINE",
"67 342 OFFCURVE",
"65 305 OFFCURVE",
"65 282 CURVE SMOOTH",
"65 107 OFFCURVE",
"180 -10 OFFCURVE",
"345 -10 CURVE SMOOTH"
);
}
);
width = 721;
}
);
unicode = 018F;
},
{
glyphname = T;
lastChange = "2017-08-11 18:28:43 +0000";
layers = (
{
anchors = (
{
name = bottom;
position = "{302, 0}";
},
{
name = center;
position = "{302, 347}";
},
{
name = top;
position = "{302, 694}";
}
);
layerId = "F333AEC5-BB61-4D5E-9EDD-6124322D28F2";
paths = (
{
closed = 1;
nodes = (
"343 0 LINE",
"343 660 LINE",
"260 660 LINE",
"260 0 LINE"
);
},
{
closed = 1;
nodes = (
"575 622 LINE",
"575 694 LINE",
"29 694 LINE",
"29 622 LINE"
);
}
);
width = 604;
}
);
note = T;
unicode = 0054;
},
{
glyphname = U;
lastChange = "2017-08-11 18:28:42 +0000";
layers = (
{
anchors = (
{
name = bottom;
position = "{359, 0}";
},
{
name = ogonek;
position = "{418, 10}";
},
{
name = top;
position = "{359, 694}";
},
{
name = topright;
position = "{698, 694}";
}
);
layerId = "F333AEC5-BB61-4D5E-9EDD-6124322D28F2";
paths = (
{
closed = 1;
nodes = (
"513 -10 OFFCURVE",
"623 92 OFFCURVE",
"623 246 CURVE SMOOTH",
"623 694 LINE",
"542 694 LINE",
"542 236 LINE SMOOTH",
"542 132 OFFCURVE",
"482 63 OFFCURVE",
"365 63 CURVE SMOOTH",
"252 63 OFFCURVE",
"179 128 OFFCURVE",
"179 253 CURVE SMOOTH",
"179 694 LINE",
"96 694 LINE",
"96 243 LINE SMOOTH",
"96 91 OFFCURVE",
"196 -10 OFFCURVE",
"354 -10 CURVE SMOOTH"
);
}
);
width = 718;
}
);
note = U;
unicode = 0055;
},
{
glyphname = V;
lastChange = "2017-08-10 20:07:18 +0000";
layers = (
{
anchors = (
{
name = bottom;
position = "{327, 0}";
},
{
name = top;
position = "{327, 694}";
}
);
layerId = "F333AEC5-BB61-4D5E-9EDD-6124322D28F2";
paths = (
{
closed = 1;
nodes = (
"378 0 LINE",
"620 694 LINE",
"525 694 LINE",
"307 9 LINE",
"352 9 LINE",
"133 694 LINE",
"33 694 LINE",
"275 0 LINE"
);
}
);
width = 653;
}
);
note = V;
unicode = 0056;
},
{
glyphname = W;
lastChange = "2017-08-11 18:28:43 +0000";
layers = (
{
anchors = (
{
name = bottom;
position = "{513, 0}";
},
{
name = top;
position = "{513, 694}";
}
);
layerId = "F333AEC5-BB61-4D5E-9EDD-6124322D28F2";
paths = (
{
closed = 1;
nodes = (
"341 0 LINE",
"539 658 LINE",
"492 658 LINE",
"694 0 LINE",
"782 0 LINE",
"990 694 LINE",
"903 694 LINE",
"715 19 LINE",
"769 19 LINE",
"575 694 LINE",
"479 694 LINE",
"268 19 LINE",
"325 19 LINE",
"135 694 LINE",
"35 694 LINE",
"253 0 LINE"
);
}
);
width = 1026;
}
);
note = W;
unicode = 0057;
},
{
glyphname = X;
lastChange = "2017-08-11 18:28:43 +0000";
layers = (
{
anchors = (
{
name = bottom;
position = "{322, 0}";
},
{
name = top;
position = "{322, 694}";
}
);
layerId = "F333AEC5-BB61-4D5E-9EDD-6124322D28F2";
paths = (
{
closed = 1;
nodes = (
"126 0 LINE",
"341 333 LINE",
"589 694 LINE",
"492 694 LINE",
"294 390 LINE",
"29 0 LINE"
);
},
{
closed = 1;
nodes = (
"615 0 LINE",
"342 394 LINE",
"154 694 LINE",
"49 694 LINE",
"283 346 LINE",
"510 0 LINE"
);
}
);
width = 643;
}
);
note = X;
unicode = 0058;
},
{
glyphname = Y;
lastChange = "2017-08-11 18:28:43 +0000";
layers = (
{
anchors = (
{
name = bottom;
position = "{309, 0}";
},
{
name = top;
position = "{309, 694}";
},
{
name = topleft;
position = "{31, 694}";
}
);
layerId = "F333AEC5-BB61-4D5E-9EDD-6124322D28F2";
paths = (
{
closed = 1;
nodes = (
"347 0 LINE",
"347 299 LINE",
"593 694 LINE",
"502 694 LINE",
"303 362 LINE",
"314 362 LINE",
"122 694 LINE",
"25 694 LINE",
"264 299 LINE",
"264 0 LINE"
);
}
);
width = 617;
}
);
note = Y;
unicode = 0059;
},
{
glyphname = Z;
lastChange = "2017-08-11 21:05:48 +0000";
layers = (
{
anchors = (
{
name = bottom;
position = "{321, 0}";
},
{
name = top;
position = "{321, 694}";
}
);
layerId = "F333AEC5-BB61-4D5E-9EDD-6124322D28F2";
paths = (
{
closed = 1;
nodes = (
"600 0 LINE",
"600 72 LINE",
"151 72 LINE",
"587 642 LINE",
"587 694 LINE",
"56 694 LINE",
"56 622 LINE",
"477 622 LINE",
"42 53 LINE",
"42 0 LINE"
);
}
);
width = 642;
}
);
note = Z;
unicode = 005A;
},
{
glyphname = a;
lastChange = "2017-08-11 18:28:43 +0000";
layers = (
{
anchors = (
{
name = bottom;
position = "{256, 0}";
},
{
name = ogonek;
position = "{414, 10}";
},
{
name = top;
position = "{241, 482}";
}
);
layerId = "F333AEC5-BB61-4D5E-9EDD-6124322D28F2";
paths = (
{
closed = 1;
nodes = (
"432 0 LINE",
"432 316 LINE SMOOTH",
"432 419 OFFCURVE",
"372 492 OFFCURVE",
"245 492 CURVE SMOOTH",
"186 492 OFFCURVE",
"119 476 OFFCURVE",
"63 444 CURVE",
"84 388 LINE",
"130 410 OFFCURVE",
"185 420 OFFCURVE",
"228 420 CURVE SMOOTH",
"317 420 OFFCURVE",
"352 377 OFFCURVE",
"352 303 CURVE SMOOTH",
"352 56 LINE",
"376 0 LINE"
);
},
{
closed = 1;
nodes = (
"327 -10 OFFCURVE",
"406 67 OFFCURVE",
"421 169 CURVE",
"392 183 LINE",
"376 109 OFFCURVE",
"312 60 OFFCURVE",
"227 60 CURVE SMOOTH",
"163 60 OFFCURVE",
"125 89 OFFCURVE",
"125 135 CURVE SMOOTH",
"125 191 OFFCURVE",
"182 224 OFFCURVE",
"364 224 CURVE",
"364 284 LINE",
"182 284 OFFCURVE",
"45 243 OFFCURVE",
"45 127 CURVE SMOOTH",
"45 46 OFFCURVE",
"111 -10 OFFCURVE",
"210 -10 CURVE SMOOTH"
);
}
);
width = 511;
}
);
note = a;
unicode = 0061;
},
{
glyphname = c;
lastChange = "2017-08-11 18:28:43 +0000";
layers = (
{
anchors = (
{
name = bottom;
position = "{275, 0}";
},
{
name = top;
position = "{265, 482}";
}
);
layerId = "F333AEC5-BB61-4D5E-9EDD-6124322D28F2";
paths = (
{
closed = 1;
nodes = (
"328 -10 OFFCURVE",
"384 5 OFFCURVE",
"429 30 CURVE",
"415 86 LINE",
"373 65 OFFCURVE",
"333 56 OFFCURVE",
"296 56 CURVE SMOOTH",
"194 56 OFFCURVE",
"135 126 OFFCURVE",
"135 244 CURVE SMOOTH",
"135 364 OFFCURVE",
"195 423 OFFCURVE",
"291 423 CURVE SMOOTH",
"331 423 OFFCURVE",
"374 413 OFFCURVE",
"416 391 CURVE",
"437 463 LINE",
"396 482 OFFCURVE",
"347 492 OFFCURVE",
"301 492 CURVE SMOOTH",
"168 492 OFFCURVE",
"53 406 OFFCURVE",
"53 230 CURVE SMOOTH",
"53 81 OFFCURVE",
"136 -10 OFFCURVE",
"273 -10 CURVE SMOOTH"
);
}
);
width = 470;
}
);
note = c;
unicode = 0063;
},
{
glyphname = eth;
lastChange = "2017-08-10 20:07:18 +0000";
layers = (
{
layerId = "F333AEC5-BB61-4D5E-9EDD-6124322D28F2";
paths = (
{
closed = 1;
nodes = (
"348 379 OFFCURVE",
"412 309 OFFCURVE",
"412 213 CURVE SMOOTH",
"412 127 OFFCURVE",
"360 61 OFFCURVE",
"275 61 CURVE SMOOTH",
"189 61 OFFCURVE",
"127 127 OFFCURVE",
"127 225 CURVE SMOOTH",
"127 318 OFFCURVE",
"182 379 OFFCURVE",
"262 379 CURVE SMOOTH"
);
},
{
closed = 1;
nodes = (
"305 588 OFFCURVE",
"354 520 OFFCURVE",
"410 382 CURVE",
"382 423 OFFCURVE",
"336 449 OFFCURVE",
"269 449 CURVE SMOOTH",
"141 449 OFFCURVE",
"47 356 OFFCURVE",
"47 216 CURVE SMOOTH",
"47 81 OFFCURVE",
"134 -9 OFFCURVE",
"270 -9 CURVE SMOOTH",
"402 -9 OFFCURVE",
"492 76 OFFCURVE",
"492 257 CURVE SMOOTH",
"492 449 OFFCURVE",
"391 636 OFFCURVE",
"157 732 CURVE",
"129 670 LINE"
);
},
{
closed = 1;
nodes = (
"194 510 LINE",
"426 689 LINE",
"386 739 LINE",
"154 559 LINE"
);
}
);
width = 555;
}
);
unicode = 00F0;
},
{
glyphname = e;
lastChange = "2017-08-11 18:28:43 +0000";
layers = (
{
anchors = (
{
name = "#entry";
position = "{92, 236}";
},
{
name = bottom;
position = "{287, 0}";
},
{
name = ogonek;
position = "{430, 10}";
},
{
name = top;
position = "{272, 482}";
}
);
layerId = "F333AEC5-BB61-4D5E-9EDD-6124322D28F2";
paths = (
{
closed = 1;
nodes = (
"351 -10 OFFCURVE",
"410 5 OFFCURVE",
"459 27 CURVE",
"445 83 LINE",
"403 66 OFFCURVE",
"358 55 OFFCURVE",
"317 55 CURVE SMOOTH",
"207 55 OFFCURVE",
"136 133 OFFCURVE",
"136 251 CURVE SMOOTH",
"136 353 OFFCURVE",
"188 422 OFFCURVE",
"273 422 CURVE SMOOTH",
"348 422 OFFCURVE",
"397 369 OFFCURVE",
"397 279 CURVE",
"121 279 LINE",
"121 219 LINE",
"473 219 LINE",
"475 234 OFFCURVE",
"477 269 OFFCURVE",
"477 289 CURVE SMOOTH",
"477 413 OFFCURVE",
"397 492 OFFCURVE",
"279 492 CURVE SMOOTH",
"145 492 OFFCURVE",
"53 391 OFFCURVE",
"53 236 CURVE SMOOTH",
"53 82 OFFCURVE",
"144 -10 OFFCURVE",
"291 -10 CURVE SMOOTH"
);
}
);
width = 533;
},
{
associatedMasterId = "F333AEC5-BB61-4D5E-9EDD-6124322D28F2";
layerId = "74535C5E-7193-48C2-A5F2-3BC17C699040";
name = "Aug 3 17, 20:16";
paths = (
{
closed = 1;
nodes = (
"354 -10 OFFCURVE",
"411 4 OFFCURVE",
"457 28 CURVE",
"445 84 LINE",
"402 65 OFFCURVE",
"358 56 OFFCURVE",
"316 56 CURVE SMOOTH",
"200 56 OFFCURVE",
"135 126 OFFCURVE",
"135 250 CURVE SMOOTH",
"135 367 OFFCURVE",
"192 426 OFFCURVE",
"272 426 CURVE SMOOTH",
"348 426 OFFCURVE",
"398 373 OFFCURVE",
"398 279 CURVE",
"121 279 LINE",
"121 219 LINE",
"473 219 LINE",
"475 234 OFFCURVE",
"477 259 OFFCURVE",
"477 279 CURVE SMOOTH",
"477 411 OFFCURVE",
"396 492 OFFCURVE",
"281 492 CURVE SMOOTH",
"167 492 OFFCURVE",
"53 413 OFFCURVE",
"53 236 CURVE SMOOTH",
"53 78 OFFCURVE",
"143 -10 OFFCURVE",
"294 -10 CURVE SMOOTH"
);
}
);
width = 534;
}
);
note = e;
unicode = 0065;
},
{
glyphname = f;
lastChange = "2017-08-12 12:17:59 +0000";
layers = (
{
anchors = (
{
name = "#hook";
position = "{145, 0}";
},
{
name = bottom;
position = "{144, 0}";
},
{
name = top;
position = "{281, 739}";
}
);
layerId = "F333AEC5-BB61-4D5E-9EDD-6124322D28F2";
paths = (
{
closed = 1;
nodes = (
"184 0 LINE",
"184 587 LINE SMOOTH",
"184 647 OFFCURVE",
"212 679 OFFCURVE",
"269 679 CURVE SMOOTH",
"296 679 OFFCURVE",
"338 672 OFFCURVE",
"362 664 CURVE",
"379 733 LINE",
"352 741 OFFCURVE",
"318 749 OFFCURVE",
"281 749 CURVE SMOOTH",
"174 749 OFFCURVE",
"104 680 OFFCURVE",
"104 577 CURVE SMOOTH",
"104 0 LINE"
);
},
{
closed = 1;
nodes = (
"344 415 LINE",
"344 482 LINE",
"32 482 LINE",
"32 415 LINE"
);
}
);
width = 358;
}
);
note = f;
unicode = 0066;
},
{
glyphname = idotless;
lastChange = "2017-08-10 20:07:16 +0000";
layers = (
{
anchors = (
{
name = bottom;
position = "{128, 0}";
},
{
name = ogonek;
position = "{150, 10}";
},
{
name = top;
position = "{128, 482}";
}
);
layerId = "F333AEC5-BB61-4D5E-9EDD-6124322D28F2";
paths = (
{
closed = 1;
nodes = (
"168 0 LINE",
"168 482 LINE",
"88 482 LINE",
"88 0 LINE"
);
}
);
width = 256;
}
);
note = dotlessi;
unicode = 0131;
},
{
glyphname = jdotless;
lastChange = "2017-08-10 20:07:18 +0000";
layers = (
{
anchors = (
{
name = bottom;
position = "{128, 0}";
},
{
name = top;
position = "{128, 482}";
}
);
layerId = "F333AEC5-BB61-4D5E-9EDD-6124322D28F2";
paths = (
{
closed = 1;
nodes = (
"120 -225 OFFCURVE",
"168 -152 OFFCURVE",
"168 -58 CURVE SMOOTH",
"168 482 LINE",
"88 482 LINE",
"88 -70 LINE SMOOTH",
"88 -127 OFFCURVE",
"59 -175 OFFCURVE",
"10 -198 CURVE",
"40 -254 LINE"
);
}
);
width = 256;
}
);
note = uni0237;
unicode = 0237;
},
{
glyphname = l;
lastChange = "2017-08-11 18:28:43 +0000";
layers = (
{
anchors = (
{
name = bottom;
position = "{168, 0}";
},
{
name = center;
position = "{147, 412}";
},
{
name = top;
position = "{125, 739}";
},
{
name = topright;
position = "{255, 482}";
}
);
layerId = "F333AEC5-BB61-4D5E-9EDD-6124322D28F2";
paths = (
{
closed = 1;
nodes = (
"215 -10 OFFCURVE",
"246 -2 OFFCURVE",
"265 7 CURVE",
"251 63 LINE",
"242 59 OFFCURVE",
"225 55 OFFCURVE",
"212 55 CURVE SMOOTH",
"181 55 OFFCURVE",
"164 77 OFFCURVE",
"164 124 CURVE SMOOTH",
"164 739 LINE",
"84 739 LINE",
"84 114 LINE SMOOTH",
"84 34 OFFCURVE",
"125 -10 OFFCURVE",
"188 -10 CURVE SMOOTH"
);
}
);
width = 275;
}
);
note = l;
unicode = 006C;
},
{
glyphname = o;
lastChange = "2017-08-11 18:28:43 +0000";
layers = (
{
anchors = (
{
name = "#exit";
position = "{474, 236}";
},
{
name = bottom;
position = "{284, 0}";
},
{
name = center;
position = "{284, 241}";
},
{
name = ogonek;
position = "{331, 10}";
},
{
name = top;
position = "{284, 482}";
},
{
name = topright;
position = "{458, 482}";
}
);
layerId = "F333AEC5-BB61-4D5E-9EDD-6124322D28F2";
paths = (
{
closed = 1;
nodes = (
"418 -10 OFFCURVE",
"515 92 OFFCURVE",
"515 247 CURVE SMOOTH",
"515 394 OFFCURVE",
"428 492 OFFCURVE",
"289 492 CURVE SMOOTH",
"147 492 OFFCURVE",
"52 390 OFFCURVE",
"52 236 CURVE SMOOTH",
"52 89 OFFCURVE",
"138 -10 OFFCURVE",
"277 -10 CURVE SMOOTH"
);
},
{
closed = 1;
nodes = (
"196 60 OFFCURVE",
"132 134 OFFCURVE",
"132 246 CURVE SMOOTH",
"132 352 OFFCURVE",
"188 422 OFFCURVE",
"278 422 CURVE SMOOTH",
"370 422 OFFCURVE",
"435 348 OFFCURVE",
"435 236 CURVE SMOOTH",
"435 131 OFFCURVE",
"378 60 OFFCURVE",
"288 60 CURVE SMOOTH"
);
}
);
width = 567;
}
);
note = o;
unicode = 006F;
},
{
glyphname = r;
lastChange = "2017-08-11 17:43:36 +0000";
layers = (
{
anchors = (
{
name = bottom;
position = "{127, 0}";
},
{
name = top;
position = "{212, 482}";
}
);
layerId = "F333AEC5-BB61-4D5E-9EDD-6124322D28F2";
paths = (
{
closed = 1;
nodes = (
"168 0 LINE",
"168 370 LINE",
"154 482 LINE",
"88 482 LINE",
"88 0 LINE"
);
},
{
closed = 1;
nodes = (
"179 356 OFFCURVE",
"244 414 OFFCURVE",
"303 414 CURVE SMOOTH",
"320 414 OFFCURVE",
"345 409 OFFCURVE",
"355 405 CURVE",
"372 482 LINE",
"359 488 OFFCURVE",
"330 492 OFFCURVE",
"311 492 CURVE SMOOTH",
"243 492 OFFCURVE",
"182 439 OFFCURVE",
"150 374 CURVE",
"150 283 LINE"
);
}
);
width = 384;
},
{
anchors = (
{
name = bottom;
position = "{127, 0}";
},
{
name = top;
position = "{212, 482}";
}
);
associatedMasterId = "F333AEC5-BB61-4D5E-9EDD-6124322D28F2";
layerId = "198C3889-C046-4B23-B5BC-3ACCF485BAE2";
name = "Aug 11 17, 19:31";
paths = (
{
closed = 1;
nodes = (
"168 0 LINE",
"168 370 LINE",
"154 482 LINE",
"88 482 LINE",
"88 0 LINE"
);
},
{
closed = 1;
nodes = (
"182 381 OFFCURVE",
"238 419 OFFCURVE",
"293 419 CURVE SMOOTH",
"315 419 OFFCURVE",
"345 413 OFFCURVE",
"365 405 CURVE",
"382 480 LINE",
"362 487 OFFCURVE",
"329 492 OFFCURVE",
"304 492 CURVE SMOOTH",
"242 492 OFFCURVE",
"185 461 OFFCURVE",
"150 399 CURVE",
"150 313 LINE"
);
}
);
width = 394;
}
);
note = r;
unicode = 0072;
},
{
glyphname = s;
lastChange = "2017-08-13 12:02:15 +0000";
layers = (
{
anchors = (
{
name = bottom;
position = "{239, 0}";
},
{
name = top;
position = "{224, 482}";
}
);
layerId = "F333AEC5-BB61-4D5E-9EDD-6124322D28F2";
paths = (
{
closed = 1;
nodes = (
"345 -10 OFFCURVE",
"424 45 OFFCURVE",
"424 137 CURVE SMOOTH",
"424 313 OFFCURVE",
"136 249 OFFCURVE",
"136 359 CURVE SMOOTH",
"136 400 OFFCURVE",
"180 422 OFFCURVE",
"241 422 CURVE SMOOTH",
"286 422 OFFCURVE",
"339 410 OFFCURVE",
"380 393 CURVE",
"397 468 LINE",
"356 482 OFFCURVE",
"305 492 OFFCURVE",
"255 492 CURVE SMOOTH",
"137 492 OFFCURVE",
"56 440 OFFCURVE",
"56 349 CURVE SMOOTH",
"56 183 OFFCURVE",
"344 245 OFFCURVE",
"344 127 CURVE SMOOTH",
"344 81 OFFCURVE",
"296 60 OFFCURVE",
"235 60 CURVE SMOOTH",
"187 60 OFFCURVE",
"121 73 OFFCURVE",
"66 98 CURVE",
"49 23 LINE",
"102 3 OFFCURVE",
"166 -10 OFFCURVE",
"224 -10 CURVE SMOOTH"
);
}
);
width = 468;
},
{
associatedMasterId = "F333AEC5-BB61-4D5E-9EDD-6124322D28F2";
layerId = "8AF66680-1C48-45CA-BDE5-584DAE6DFAE0";
name = "Aug 3 17, 22:25";
paths = (
{
closed = 1;
nodes = (
"126 492 OFFCURVE",
"47 434 OFFCURVE",
"47 342 CURVE SMOOTH",
"47 168 OFFCURVE",
"327 237 OFFCURVE",
"327 123 CURVE SMOOTH",
"327 82 OFFCURVE",
"291 60 OFFCURVE",
"230 60 CURVE SMOOTH",
"185 60 OFFCURVE",
"132 72 OFFCURVE",
"91 89 CURVE",
"74 14 LINE",
"115 0 OFFCURVE",
"166 -10 OFFCURVE",
"216 -10 CURVE SMOOTH",
"334 -10 OFFCURVE",
"410 46 OFFCURVE",
"410 137 CURVE SMOOTH",
"410 309 OFFCURVE",
"135 233 OFFCURVE",
"135 355 CURVE SMOOTH",
"135 401 OFFCURVE",
"175 422 OFFCURVE",
"236 422 CURVE SMOOTH",
"284 422 OFFCURVE",
"350 409 OFFCURVE",
"405 384 CURVE",
"422 459 LINE",
"369 479 OFFCURVE",
"305 492 OFFCURVE",
"247 492 CURVE SMOOTH"
);
}
);
width = 466;
}
);
note = s;
unicode = 0073;
},
{
glyphname = germandbls;
lastChange = "2017-08-10 20:07:16 +0000";
layers = (
{
layerId = "F333AEC5-BB61-4D5E-9EDD-6124322D28F2";
paths = (
{
closed = 1;
nodes = (
"480 -10 OFFCURVE",
"563 56 OFFCURVE",
"563 155 CURVE SMOOTH",
"563 301 OFFCURVE",
"383 304 OFFCURVE",
"383 389 CURVE SMOOTH",
"383 451 OFFCURVE",
"477 474 OFFCURVE",
"477 583 CURVE SMOOTH",
"477 683 OFFCURVE",
"399 749 OFFCURVE",
"290 749 CURVE SMOOTH",
"167 749 OFFCURVE",
"88 666 OFFCURVE",
"88 539 CURVE SMOOTH",
"88 0 LINE",
"168 0 LINE",
"168 548 LINE SMOOTH",
"168 626 OFFCURVE",
"209 679 OFFCURVE",
"282 679 CURVE SMOOTH",
"347 679 OFFCURVE",
"397 637 OFFCURVE",
"397 572 CURVE SMOOTH",
"397 483 OFFCURVE",
"304 468 OFFCURVE",
"304 380 CURVE SMOOTH",
"304 257 OFFCURVE",
"483 249 OFFCURVE",
"483 146 CURVE SMOOTH",
"483 94 OFFCURVE",
"437 60 OFFCURVE",
"375 60 CURVE SMOOTH",
"335 60 OFFCURVE",
"288 74 OFFCURVE",
"250 94 CURVE",
"233 19 LINE",
"261 6 OFFCURVE",
"311 -10 OFFCURVE",
"367 -10 CURVE SMOOTH"
);
}
);
width = 597;
}
);
unicode = 00DF;
},
{
glyphname = t;
lastChange = "2017-08-13 11:57:06 +0000";
layers = (
{
anchors = (
{
name = bottom;
position = "{225, 0}";
},
{
name = center;
position = "{180, 246}";
},
{
name = top;
position = "{133, 621}";
},
{
name = topright;
position = "{270, 482}";
}
);
layerId = "F333AEC5-BB61-4D5E-9EDD-6124322D28F2";
paths = (
{
closed = 1;
nodes = (
"274 -10 OFFCURVE",
"310 -3 OFFCURVE",
"341 8 CURVE",
"330 65 LINE",
"311 59 OFFCURVE",
"280 55 OFFCURVE",
"261 55 CURVE SMOOTH",
"202 55 OFFCURVE",
"176 93 OFFCURVE",
"176 155 CURVE SMOOTH",
"176 621 LINE",
"96 621 LINE",
"96 144 LINE SMOOTH",
"96 47 OFFCURVE",
"151 -10 OFFCURVE",
"242 -10 CURVE SMOOTH"
);
},
{
closed = 1;
nodes = (
"323 415 LINE",
"323 482 LINE",
"31 482 LINE",
"31 415 LINE"
);
}
);
width = 370;
},
{
associatedMasterId = "F333AEC5-BB61-4D5E-9EDD-6124322D28F2";
layerId = "8DD4D7B4-764D-4C4A-81DC-EA5BCD364777";
name = "Aug 3 17, 20:24";
paths = (
{
closed = 1;
nodes = (
"269 -10 OFFCURVE",
"312 -2 OFFCURVE",
"342 12 CURVE",
"331 69 LINE",
"312 60 OFFCURVE",
"284 55 OFFCURVE",
"261 55 CURVE SMOOTH",
"211 55 OFFCURVE",
"177 79 OFFCURVE",
"177 145 CURVE SMOOTH",
"177 621 LINE",
"97 621 LINE",
"97 134 LINE SMOOTH",
"97 36 OFFCURVE",
"153 -10 OFFCURVE",
"235 -10 CURVE SMOOTH"
);
},
{
closed = 1;
nodes = (
"324 415 LINE",
"324 482 LINE",
"32 482 LINE",
"32 415 LINE"
);
}
);
width = 371;
}
);
note = t;
unicode = 0074;
},
{
glyphname = v;
lastChange = "2017-08-11 18:28:42 +0000";
layers = (
{
anchors = (
{
name = bottom;
position = "{244, 0}";
},
{
name = top;
position = "{244, 482}";
}
);
layerId = "F333AEC5-BB61-4D5E-9EDD-6124322D28F2";
paths = (
{
closed = 1;
nodes = (
"284 0 LINE",
"472 482 LINE",
"387 482 LINE",
"225 16 LINE",
"269 16 LINE",
"105 482 LINE",
"16 482 LINE",
"206 0 LINE"
);
}
);
width = 488;
}
);
note = v;
unicode = 0076;
},
{
glyphname = w;
lastChange = "2017-08-11 18:28:43 +0000";
layers = (
{
anchors = (
{
name = bottom;
position = "{400, 0}";
},
{
name = top;
position = "{400, 482}";
}
);
layerId = "F333AEC5-BB61-4D5E-9EDD-6124322D28F2";
paths = (
{
closed = 1;
nodes = (
"270 0 LINE",
"416 442 LINE",
"383 442 LINE",
"525 0 LINE",
"606 0 LINE",
"782 482 LINE",
"695 482 LINE",
"553 35 LINE",
"586 35 LINE",
"451 482 LINE",
"359 482 LINE",
"218 35 LINE",
"251 35 LINE",
"109 482 LINE",
"18 482 LINE",
"194 0 LINE"
);
}
);
width = 800;
}
);
note = w;
unicode = 0077;
},
{
glyphname = x;
lastChange = "2017-08-11 18:28:43 +0000";
layers = (
{
anchors = (
{
name = bottom;
position = "{240, 0}";
},
{
name = top;
position = "{240, 482}";
}
);
layerId = "F333AEC5-BB61-4D5E-9EDD-6124322D28F2";
paths = (
{
closed = 1;
nodes = (
"111 0 LINE",
"261 214 LINE",
"464 482 LINE",
"373 482 LINE",
"220 264 LINE",
"20 0 LINE"
);
},
{
closed = 1;
nodes = (
"456 0 LINE",
"259 272 LINE",
"113 482 LINE",
"18 482 LINE",
"214 211 LINE",
"361 0 LINE"
);
}
);
width = 480;
}
);
note = x;
unicode = 0078;
},
{
glyphname = y;
lastChange = "2017-08-11 18:28:42 +0000";
layers = (
{
anchors = (
{
name = bottom;
position = "{364, 0}";
},
{
name = top;
position = "{244, 482}";
}
);
components = (
{
name = v;
}
);
layerId = "F333AEC5-BB61-4D5E-9EDD-6124322D28F2";
paths = (
{
closed = 1;
nodes = (
"192 -244 LINE",
"284 0 LINE",
"206 0 LINE",
"107 -244 LINE"
);
}
);
width = 488;
}
);
note = y;
unicode = 0079;
},
{
glyphname = z;
lastChange = "2017-08-11 18:28:43 +0000";
layers = (
{
anchors = (
{
name = bottom;
position = "{230, 0}";
},
{
name = top;
position = "{230, 482}";
}
);
layerId = "F333AEC5-BB61-4D5E-9EDD-6124322D28F2";
paths = (
{
closed = 1;
nodes = (
"427 0 LINE",
"427 70 LINE",
"146 70 LINE",
"415 433 LINE",
"415 482 LINE",
"37 482 LINE",
"37 412 LINE",
"305 412 LINE",
"37 49 LINE",
"37 0 LINE"
);
}
);
width = 460;
}
);
note = z;
unicode = 007A;
},
{
glyphname = pi;
lastChange = "2017-08-13 14:57:46 +0000";
layers = (
{
layerId = "F333AEC5-BB61-4D5E-9EDD-6124322D28F2";
paths = (
{
closed = 1;
nodes = (
"185 0 LINE",
"185 425 LINE",
"105 425 LINE",
"105 0 LINE"
);
},
{
closed = 1;
nodes = (
"500 415 LINE",
"500 482 LINE",
"25 482 LINE",
"25 415 LINE"
);
},
{
closed = 1;
nodes = (
"341 34 OFFCURVE",
"382 -10 OFFCURVE",
"445 -10 CURVE SMOOTH",
"472 -10 OFFCURVE",
"498 -2 OFFCURVE",
"517 7 CURVE",
"503 63 LINE",
"494 59 OFFCURVE",
"482 55 OFFCURVE",
"469 55 CURVE SMOOTH",
"438 55 OFFCURVE",
"421 77 OFFCURVE",
"421 124 CURVE SMOOTH",
"421 425 LINE",
"341 425 LINE",
"341 114 LINE SMOOTH"
);
}
);
width = 545;
}
);
unicode = 03C0;
},
{
glyphname = zero;
lastChange = "2017-08-12 08:10:37 +0000";
layers = (
{
anchors = (
{
name = slash;
position = "{316, 360}";
}
);
layerId = "F333AEC5-BB61-4D5E-9EDD-6124322D28F2";
paths = (
{
closed = 1;
nodes = (
"464 -10 OFFCURVE",
"565 135 OFFCURVE",
"565 352 CURVE SMOOTH",
"565 563 OFFCURVE",
"469 704 OFFCURVE",
"321 704 CURVE SMOOTH",
"170 704 OFFCURVE",
"66 559 OFFCURVE",
"66 342 CURVE SMOOTH",
"66 131 OFFCURVE",
"165 -10 OFFCURVE",
"313 -10 CURVE SMOOTH"
);
},
{
closed = 1;
nodes = (
"221 62 OFFCURVE",
"151 178 OFFCURVE",
"151 352 CURVE SMOOTH",
"151 520 OFFCURVE",
"216 632 OFFCURVE",
"314 632 CURVE SMOOTH",
"413 632 OFFCURVE",
"480 516 OFFCURVE",
"480 342 CURVE SMOOTH",
"480 174 OFFCURVE",
"418 62 OFFCURVE",
"320 62 CURVE SMOOTH"
);
}
);
width = 631;
}
);
note = zero;
unicode = 0030;
},
{
glyphname = one;
lastChange = "2017-08-10 17:54:43 +0000";
layers = (
{
layerId = "F333AEC5-BB61-4D5E-9EDD-6124322D28F2";
paths = (
{
closed = 1;
nodes = (
"314 55 LINE",
"314 704 LINE",
"42 575 LINE",
"57 510 LINE",
"259 599 LINE",
"229 620 LINE",
"229 55 LINE"
);
},
{
closed = 1;
nodes = (
"53 71 LINE",
"53 0 LINE",
"466 0 LINE",
"466 71 LINE"
);
}
);
width = 491;
}
);
note = one;
unicode = 0031;
},
{
glyphname = two;
lastChange = "2017-08-10 20:07:18 +0000";
layers = (
{
layerId = "F333AEC5-BB61-4D5E-9EDD-6124322D28F2";
paths = (
{
closed = 1;
nodes = (
"494 0 LINE",
"494 72 LINE",
"133 72 LINE",
"139 48 LINE",
"375 263 OFFCURVE",
"464 390 OFFCURVE",
"464 511 CURVE SMOOTH",
"464 631 OFFCURVE",
"376 704 OFFCURVE",
"245 704 CURVE SMOOTH",
"174 704 OFFCURVE",
"98 683 OFFCURVE",
"37 647 CURVE",
"58 589 LINE",
"119 619 OFFCURVE",
"180 631 OFFCURVE",
"226 631 CURVE SMOOTH",
"321 631 OFFCURVE",
"379 581 OFFCURVE",
"379 503 CURVE SMOOTH",
"379 410 OFFCURVE",
"294 286 OFFCURVE",
"49 55 CURVE",
"49 0 LINE"
);
}
);
width = 540;
}
);
note = two;
unicode = 0032;
},
{
glyphname = three;
lastChange = "2017-08-10 20:07:18 +0000";
layers = (
{
layerId = "F333AEC5-BB61-4D5E-9EDD-6124322D28F2";
paths = (
{
closed = 1;
nodes = (
"398 -10 OFFCURVE",
"508 61 OFFCURVE",
"508 182 CURVE SMOOTH",
"508 274 OFFCURVE",
"443 345 OFFCURVE",
"333 363 CURVE",
"333 365 LINE",
"416 378 OFFCURVE",
"471 443 OFFCURVE",
"471 527 CURVE SMOOTH",
"471 632 OFFCURVE",
"385 704 OFFCURVE",
"260 704 CURVE SMOOTH",
"193 704 OFFCURVE",
"116 683 OFFCURVE",
"55 647 CURVE",
"76 589 LINE",
"137 619 OFFCURVE",
"198 631 OFFCURVE",
"243 631 CURVE SMOOTH",
"330 631 OFFCURVE",
"386 585 OFFCURVE",
"386 514 CURVE SMOOTH",
"386 432 OFFCURVE",
"311 381 OFFCURVE",
"173 381 CURVE",
"173 313 LINE",
"329 313 OFFCURVE",
"423 265 OFFCURVE",
"423 175 CURVE SMOOTH",
"423 101 OFFCURVE",
"358 63 OFFCURVE",
"266 63 CURVE SMOOTH",
"198 63 OFFCURVE",
"128 83 OFFCURVE",
"64 115 CURVE",
"37 40 LINE",
"96 10 OFFCURVE",
"177 -10 OFFCURVE",
"254 -10 CURVE SMOOTH"
);
}
);
width = 563;
}
);
note = three;
unicode = 0033;
},
{
glyphname = four;
lastChange = "2017-08-11 17:44:12 +0000";
layers = (
{
layerId = "F333AEC5-BB61-4D5E-9EDD-6124322D28F2";
paths = (
{
closed = 1;
nodes = (
"581 161 LINE",
"581 236 LINE",
"121 236 LINE",
"121 240 LINE",
"368 576 LINE",
"373 576 LINE",
"373 0 LINE",
"456 0 LINE",
"456 694 LINE",
"369 694 LINE",
"34 231 LINE",
"34 161 LINE"
);
}
);
width = 613;
}
);
note = four;
unicode = 0034;
},
{
glyphname = five;
lastChange = "2017-08-11 18:06:15 +0000";
layers = (
{
layerId = "F333AEC5-BB61-4D5E-9EDD-6124322D28F2";
paths = (
{
closed = 1;
nodes = (
"108 694 LINE",
"91 328 LINE",
"141 338 OFFCURVE",
"196 345 OFFCURVE",
"236 345 CURVE SMOOTH",
"351 345 OFFCURVE",
"428 290 OFFCURVE",
"428 199 CURVE SMOOTH",
"428 114 OFFCURVE",
"361 63 OFFCURVE",
"262 63 CURVE SMOOTH",
"198 63 OFFCURVE",
"135 84 OFFCURVE",
"83 115 CURVE",
"56 40 LINE",
"109 12 OFFCURVE",
"175 -10 OFFCURVE",
"253 -10 CURVE SMOOTH",
"408 -10 OFFCURVE",
"513 76 OFFCURVE",
"513 208 CURVE SMOOTH",
"513 337 OFFCURVE",
"413 418 OFFCURVE",
"263 418 CURVE SMOOTH",
"235 418 OFFCURVE",
"203 415 OFFCURVE",
"173 410 CURVE",
"183 622 LINE",
"490 622 LINE",
"490 694 LINE"
);
}
);
width = 568;
}
);
note = five;
unicode = 0035;
},
{
glyphname = six;
lastChange = "2017-08-11 18:06:16 +0000";
layers = (
{
layerId = "F333AEC5-BB61-4D5E-9EDD-6124322D28F2";
paths = (
{
closed = 1;
nodes = (
"447 -10 OFFCURVE",
"535 84 OFFCURVE",
"535 213 CURVE SMOOTH",
"535 337 OFFCURVE",
"454 424 OFFCURVE",
"333 424 CURVE SMOOTH",
"245 424 OFFCURVE",
"158 378 OFFCURVE",
"106 256 CURVE",
"128 213 LINE",
"167 316 OFFCURVE",
"237 352 OFFCURVE",
"305 352 CURVE SMOOTH",
"394 352 OFFCURVE",
"450 288 OFFCURVE",
"450 200 CURVE SMOOTH",
"450 119 OFFCURVE",
"404 63 OFFCURVE",
"317 63 CURVE SMOOTH",
"236 63 OFFCURVE",
"151 112 OFFCURVE",
"151 315 CURVE SMOOTH",
"151 506 OFFCURVE",
"226 631 OFFCURVE",
"347 631 CURVE SMOOTH",
"389 631 OFFCURVE",
"441 618 OFFCURVE",
"478 598 CURVE",
"505 673 LINE",
"465 692 OFFCURVE",
"405 704 OFFCURVE",
"356 704 CURVE SMOOTH",
"180 704 OFFCURVE",
"66 546 OFFCURVE",
"66 308 CURVE SMOOTH",
"66 71 OFFCURVE",
"179 -10 OFFCURVE",
"308 -10 CURVE SMOOTH"
);
}
);
width = 590;
}
);
note = six;
unicode = 0036;
},
{
glyphname = seven;
lastChange = "2017-08-10 20:07:17 +0000";
layers = (
{
layerId = "F333AEC5-BB61-4D5E-9EDD-6124322D28F2";
paths = (
{
closed = 1;
nodes = (
"203 0 LINE",
"491 654 LINE",
"491 694 LINE",
"26 694 LINE",
"26 622 LINE",
"426 622 LINE",
"405 652 LINE",
"116 0 LINE"
);
}
);
width = 521;
}
);
note = seven;
unicode = 0037;
},
{
glyphname = eight;
lastChange = "2017-08-11 18:06:41 +0000";
layers = (
{
layerId = "F333AEC5-BB61-4D5E-9EDD-6124322D28F2";
paths = (
{
closed = 1;
nodes = (
"445 -10 OFFCURVE",
"542 62 OFFCURVE",
"542 176 CURVE SMOOTH",
"542 401 OFFCURVE",
"167 359 OFFCURVE",
"167 532 CURVE SMOOTH",
"167 596 OFFCURVE",
"219 633 OFFCURVE",
"295 633 CURVE SMOOTH",
"378 633 OFFCURVE",
"432 589 OFFCURVE",
"432 524 CURVE SMOOTH",
"432 454 OFFCURVE",
"372 401 OFFCURVE",
"296 387 CURVE",
"359 356 LINE",
"450 383 OFFCURVE",
"511 451 OFFCURVE",
"511 537 CURVE SMOOTH",
"511 635 OFFCURVE",
"430 704 OFFCURVE",
"303 704 CURVE SMOOTH",
"175 704 OFFCURVE",
"84 635 OFFCURVE",
"84 521 CURVE SMOOTH",
"84 290 OFFCURVE",
"457 344 OFFCURVE",
"457 169 CURVE SMOOTH",
"457 101 OFFCURVE",
"400 63 OFFCURVE",
"311 63 CURVE SMOOTH",
"211 63 OFFCURVE",
"145 111 OFFCURVE",
"145 185 CURVE SMOOTH",
"145 257 OFFCURVE",
"207 315 OFFCURVE",
"300 328 CURVE",
"246 361 LINE",
"134 346 OFFCURVE",
"60 271 OFFCURVE",
"60 174 CURVE SMOOTH",
"60 64 OFFCURVE",
"156 -10 OFFCURVE",
"301 -10 CURVE SMOOTH"
);
}
);
width = 599;
}
);
note = eight;
unicode = 0038;
},
{
glyphname = asterisk;
lastChange = "2017-08-09 17:52:10 +0000";
layers = (
{
layerId = "F333AEC5-BB61-4D5E-9EDD-6124322D28F2";
paths = (
{
closed = 1;
nodes = (
"292 488 LINE",
"306 694 LINE",
"235 694 LINE",
"252 488 LINE"
);
},
{
closed = 1;
nodes = (
"235 282 LINE",
"306 282 LINE",
"292 488 LINE",
"252 488 LINE"
);
},
{
closed = 1;
nodes = (
"281 471 LINE",
"464 566 LINE",
"427 627 LINE",
"260 506 LINE"
);
},
{
closed = 1;
nodes = (
"427 346 LINE",
"464 406 LINE",
"282 503 LINE",
"261 468 LINE"
);
},
{
closed = 1;
nodes = (
"117 628 LINE",
"80 568 LINE",
"262 471 LINE",
"283 505 LINE"
);
},
{
closed = 1;
nodes = (
"262 503 LINE",
"78 408 LINE",
"115 348 LINE",
"282 469 LINE"
);
}
);
width = 544;
}
);
unicode = 002A;
},
{
glyphname = numbersign;
lastChange = "2017-08-11 18:26:23 +0000";
layers = (
{
layerId = "F333AEC5-BB61-4D5E-9EDD-6124322D28F2";
paths = (
{
closed = 1;
nodes = (
"202 0 LINE",
"282 0 LINE",
"282 694 LINE",
"202 694 LINE"
);
},
{
closed = 1;
nodes = (
"464 0 LINE",
"544 0 LINE",
"544 694 LINE",
"464 694 LINE"
);
},
{
closed = 1;
nodes = (
"71 448 LINE",
"672 448 LINE",
"672 518 LINE",
"71 518 LINE"
);
},
{
closed = 1;
nodes = (
"71 178 LINE",
"672 178 LINE",
"672 248 LINE",
"71 248 LINE"
);
}
);
width = 743;
}
);
unicode = 0023;
},
{
glyphname = slash;
lastChange = "2017-08-11 18:26:23 +0000";
layers = (
{
layerId = "F333AEC5-BB61-4D5E-9EDD-6124322D28F2";
paths = (
{
closed = 1;
nodes = (
"12 -115 LINE",
"92 -115 LINE",
"314 735 LINE",
"234 735 LINE"
);
}
);
width = 326;
}
);
unicode = 002F;
},
{
glyphname = underscore;
lastChange = "2017-08-11 18:26:23 +0000";
layers = (
{
layerId = "F333AEC5-BB61-4D5E-9EDD-6124322D28F2";
paths = (
{
closed = 1;
nodes = (
"122 0 LINE",
"560 0 LINE",
"560 72 LINE",
"122 72 LINE"
);
}
);
width = 682;
}
);
unicode = 005F;
},
{
glyphname = braceleft;
lastChange = "2017-08-11 18:26:23 +0000";
layers = (
{
layerId = "F333AEC5-BB61-4D5E-9EDD-6124322D28F2";
paths = (
{
closed = 1;
nodes = (
"342 -111 LINE",
"267 -111 OFFCURVE",
"217 -61 OFFCURVE",
"217 15 CURVE SMOOTH",
"217 111 LINE SMOOTH",
"217 182 OFFCURVE",
"187 263 OFFCURVE",
"107 275 CURVE",
"107 276 LINE",
"177 294 OFFCURVE",
"217 367 OFFCURVE",
"217 435 CURVE SMOOTH",
"217 521 LINE SMOOTH",
"217 601 OFFCURVE",
"267 655 OFFCURVE",
"342 655 CURVE",
"342 722 LINE",
"222 722 OFFCURVE",
"142 638 OFFCURVE",
"142 511 CURVE SMOOTH",
"142 425 LINE SMOOTH",
"142 368 OFFCURVE",
"95 311 OFFCURVE",
"22 289 CURVE",
"22 263 LINE",
"94 241 OFFCURVE",
"142 181 OFFCURVE",
"142 101 CURVE SMOOTH",
"142 5 LINE SMOOTH",
"142 -101 OFFCURVE",
"222 -171 OFFCURVE",
"342 -171 CURVE"
);
}
);
width = 374;
},
{
associatedMasterId = "F333AEC5-BB61-4D5E-9EDD-6124322D28F2";
layerId = "26302E5E-336F-4C93-8632-6CFCDE496564";
name = "Aug 6 17, 20:39";
paths = (
{
closed = 1;
nodes = (
"334 -121 LINE",
"267 -108 OFFCURVE",
"222 -54 OFFCURVE",
"222 15 CURVE SMOOTH",
"222 111 LINE SMOOTH",
"222 180 OFFCURVE",
"188 245 OFFCURVE",
"136 275 CURVE",
"136 276 LINE",
"188 306 OFFCURVE",
"222 370 OFFCURVE",
"222 435 CURVE SMOOTH",
"222 536 LINE SMOOTH",
"222 604 OFFCURVE",
"267 657 OFFCURVE",
"334 669 CURVE",
"317 746 LINE",
"212 736 OFFCURVE",
"142 652 OFFCURVE",
"142 536 CURVE SMOOTH",
"142 435 LINE SMOOTH",
"142 368 OFFCURVE",
"95 311 OFFCURVE",
"22 289 CURVE",
"22 263 LINE",
"94 241 OFFCURVE",
"142 181 OFFCURVE",
"142 111 CURVE SMOOTH",
"142 15 LINE SMOOTH",
"142 -102 OFFCURVE",
"212 -186 OFFCURVE",
"317 -196 CURVE"
);
}
);
width = 363;
}
);
unicode = 007B;
},
{
glyphname = bracketleft;
lastChange = "2017-08-11 18:26:23 +0000";
layers = (
{
layerId = "F333AEC5-BB61-4D5E-9EDD-6124322D28F2";
paths = (
{
closed = 1;
nodes = (
"333 -180 LINE",
"333 -112 LINE",
"181 -112 LINE",
"181 650 LINE",
"333 650 LINE",
"333 718 LINE",
"105 718 LINE",
"105 -180 LINE"
);
}
);
width = 366;
}
);
unicode = 005B;
},
{
glyphname = parenleft;
lastChange = "2017-08-11 18:26:23 +0000";
layers = (
{
layerId = "F333AEC5-BB61-4D5E-9EDD-6124322D28F2";
paths = (
{
closed = 1;
nodes = (
"260 -148 LINE",
"185 -14 OFFCURVE",
"142 138 OFFCURVE",
"142 269 CURVE SMOOTH",
"142 399 OFFCURVE",
"184 559 OFFCURVE",
"258 694 CURVE",
"200 725 LINE",
"107 566 OFFCURVE",
"62 421 OFFCURVE",
"62 278 CURVE SMOOTH",
"62 135 OFFCURVE",
"107 -31 OFFCURVE",
"202 -179 CURVE"
);
}
);
width = 298;
}
);
unicode = 0028;
},
{
glyphname = emdash;
lastChange = "2017-08-11 18:26:23 +0000";
layers = (
{
layerId = "F333AEC5-BB61-4D5E-9EDD-6124322D28F2";
paths = (
{
closed = 1;
nodes = (
"1088 229 LINE",
"1088 296 LINE",
"88 296 LINE",
"88 229 LINE"
);
}
);
width = 1176;
}
);
unicode = 2014;
},
{
glyphname = endash;
lastChange = "2017-08-11 18:26:23 +0000";
layers = (
{
layerId = "F333AEC5-BB61-4D5E-9EDD-6124322D28F2";
paths = (
{
closed = 1;
nodes = (
"588 229 LINE",
"588 296 LINE",
"88 296 LINE",
"88 229 LINE"
);
}
);
width = 676;
}
);
unicode = 2013;
},
{
glyphname = hyphen;
lastChange = "2017-08-11 18:26:23 +0000";
layers = (
{
layerId = "F333AEC5-BB61-4D5E-9EDD-6124322D28F2";
paths = (
{
closed = 1;
nodes = (
"378 230 LINE",
"378 297 LINE",
"88 297 LINE",
"88 230 LINE"
);
}
);
width = 466;
}
);
unicode = 002D;
},
{
glyphname = guilsinglleft;
lastChange = "2017-08-11 18:26:23 +0000";
layers = (
{
layerId = "F333AEC5-BB61-4D5E-9EDD-6124322D28F2";
paths = (
{
closed = 1;
nodes = (
"182 449 LINE",
"44 243 LINE",
"182 30 LINE",
"274 30 LINE",
"127 243 LINE",
"274 449 LINE"
);
}
);
width = 314;
}
);
unicode = 2039;
},
{
glyphname = cedi;
lastChange = "2017-08-13 17:51:05 +0000";
layers = (
{
components = (
{
name = _stem.euro;
transform = "{1, 0, 0, 1, -47, 0}";
}
);
layerId = "F333AEC5-BB61-4D5E-9EDD-6124322D28F2";
paths = (
{
closed = 1;
nodes = (
"388 -49 LINE",
"388 58 LINE",
"312 58 LINE",
"312 -49 LINE"
);
},
{
closed = 1;
nodes = (
"388 633 LINE",
"388 739 LINE",
"313 739 LINE",
"313 633 LINE"
);
}
);
width = 579;
}
);
unicode = 20B5;
},
{
glyphname = cent;
lastChange = "2017-08-13 17:51:05 +0000";
layers = (
{
components = (
{
alignment = -1;
name = c;
transform = "{1, 0, 0, 1, 34, 100}";
}
);
layerId = "F333AEC5-BB61-4D5E-9EDD-6124322D28F2";
paths = (
{
closed = 1;
nodes = (
"339 0 LINE",
"339 107 LINE",
"263 107 LINE",
"263 0 LINE"
);
},
{
closed = 1;
nodes = (
"339 569 LINE",
"339 676 LINE",
"264 676 LINE",
"264 569 LINE"
);
}
);
width = 551;
}
);
unicode = 00A2;
},
{
glyphname = colonsign;
lastChange = "2017-08-13 17:51:04 +0000";
layers = (
{
components = (
{
name = _stem.euro;
transform = "{1, 0, 0, 1, -45, 0}";
}
);
layerId = "F333AEC5-BB61-4D5E-9EDD-6124322D28F2";
paths = (
{
closed = 1;
nodes = (
"341 -49 LINE",
"479 739 LINE",
"419 739 LINE",
"281 -49 LINE"
);
},
{
closed = 1;
nodes = (
"231 -49 LINE",
"369 739 LINE",
"309 739 LINE",
"171 -49 LINE"
);
}
);
width = 587;
}
);
unicode = 20A1;
},
{
glyphname = currency;
lastChange = "2017-08-13 17:51:05 +0000";
layers = (
{
layerId = "F333AEC5-BB61-4D5E-9EDD-6124322D28F2";
paths = (
{
closed = 1;
nodes = (
"457 131 OFFCURVE",
"539 215 OFFCURVE",
"539 342 CURVE SMOOTH",
"539 461 OFFCURVE",
"461 540 OFFCURVE",
"343 540 CURVE SMOOTH",
"219 540 OFFCURVE",
"137 456 OFFCURVE",
"137 331 CURVE SMOOTH",
"137 211 OFFCURVE",
"215 131 OFFCURVE",
"333 131 CURVE SMOOTH"
);
},
{
closed = 1;
nodes = (
"234 181 LINE",
"193 222 LINE",
"101 131 LINE",
"142 90 LINE"
);
},
{
closed = 1;
nodes = (
"574 131 LINE",
"482 221 LINE",
"442 181 LINE",
"534 90 LINE"
);
},
{
closed = 1;
nodes = (
"267 204 OFFCURVE",
"217 259 OFFCURVE",
"217 341 CURVE SMOOTH",
"217 417 OFFCURVE",
"263 467 OFFCURVE",
"333 467 CURVE SMOOTH",
"409 467 OFFCURVE",
"459 413 OFFCURVE",
"459 332 CURVE SMOOTH",
"459 255 OFFCURVE",
"413 204 OFFCURVE",
"343 204 CURVE SMOOTH"
);
},
{
closed = 1;
nodes = (
"234 488 LINE",
"142 580 LINE",
"101 539 LINE",
"192 448 LINE"
);
},
{
closed = 1;
nodes = (
"574 539 LINE",
"533 580 LINE",
"441 488 LINE",
"482 448 LINE"
);
}
);
width = 675;
}
);
unicode = 00A4;
},
{
glyphname = dollar;
lastChange = "2017-08-13 17:51:06 +0000";
layers = (
{
layerId = "F333AEC5-BB61-4D5E-9EDD-6124322D28F2";
paths = (
{
closed = 1;
nodes = (
"402 38 OFFCURVE",
"490 111 OFFCURVE",
"490 224 CURVE SMOOTH",
"490 439 OFFCURVE",
"173 351 OFFCURVE",
"173 488 CURVE SMOOTH",
"173 548 OFFCURVE",
"230 583 OFFCURVE",
"315 583 CURVE SMOOTH",
"364 583 OFFCURVE",
"414 571 OFFCURVE",
"448 553 CURVE",
"470 631 LINE",
"437 643 OFFCURVE",
"381 656 OFFCURVE",
"322 656 CURVE SMOOTH",
"184 656 OFFCURVE",
"93 584 OFFCURVE",
"93 476 CURVE SMOOTH",
"93 275 OFFCURVE",
"410 362 OFFCURVE",
"410 211 CURVE SMOOTH",
"410 148 OFFCURVE",
"358 111 OFFCURVE",
"279 111 CURVE SMOOTH",
"225 111 OFFCURVE",
"158 128 OFFCURVE",
"105 154 CURVE",
"83 76 LINE",
"135 50 OFFCURVE",
"208 38 OFFCURVE",
"264 38 CURVE SMOOTH"
);
},
{
closed = 1;
nodes = (
"334 -49 LINE",
"334 58 LINE",
"258 58 LINE",
"258 -49 LINE"
);
},
{
closed = 1;
nodes = (
"334 633 LINE",
"334 739 LINE",
"259 739 LINE",
"259 633 LINE"
);
}
);
width = 573;
}
);
unicode = 0024;
},
{
glyphname = dong;
lastChange = "2017-08-13 17:51:05 +0000";
layers = (
{
layerId = "F333AEC5-BB61-4D5E-9EDD-6124322D28F2";
paths = (
{
closed = 1;
nodes = (
"575 617 LINE",
"575 682 LINE",
"283 682 LINE",
"283 617 LINE"
);
},
{
closed = 1;
nodes = (
"504 130 LINE",
"504 739 LINE",
"424 739 LINE",
"424 186 LINE",
"448 130 LINE"
);
},
{
closed = 1;
nodes = (
"347 120 OFFCURVE",
"418 162 OFFCURVE",
"470 219 CURVE",
"452 269 LINE",
"409 222 OFFCURVE",
"348 190 OFFCURVE",
"295 190 CURVE SMOOTH",
"221 190 OFFCURVE",
"168 252 OFFCURVE",
"168 345 CURVE SMOOTH",
"168 434 OFFCURVE",
"216 492 OFFCURVE",
"295 492 CURVE SMOOTH",
"364 492 OFFCURVE",
"425 448 OFFCURVE",
"440 383 CURVE",
"470 446 LINE",
"442 519 OFFCURVE",
"382 562 OFFCURVE",
"301 562 CURVE SMOOTH",
"183 562 OFFCURVE",
"93 472 OFFCURVE",
"93 335 CURVE SMOOTH",
"93 207 OFFCURVE",
"171 120 OFFCURVE",
"275 120 CURVE SMOOTH"
);
},
{
closed = 1;
nodes = (
"504 0 LINE",
"504 65 LINE",
"102 65 LINE",
"102 0 LINE"
);
}
);
width = 656;
}
);
unicode = 20AB;
},
{
glyphname = euro;
lastChange = "2017-08-13 17:51:06 +0000";
layers = (
{
components = (
{
name = _stem.euro;
}
);
layerId = "F333AEC5-BB61-4D5E-9EDD-6124322D28F2";
paths = (
{
closed = 1;
nodes = (
"504 391 LINE",
"504 456 LINE",
"82 456 LINE",
"82 391 LINE"
);
},
{
closed = 1;
nodes = (
"475 251 LINE",
"475 316 LINE",
"82 316 LINE",
"82 251 LINE"
);
}
);
width = 636;
}
);
unicode = 20AC;
},
{
glyphname = franc;
lastChange = "2017-08-13 17:51:05 +0000";
layers = (
{
layerId = "F333AEC5-BB61-4D5E-9EDD-6124322D28F2";
paths = (
{
closed = 1;
nodes = (
"233 0 LINE",
"233 694 LINE",
"156 694 LINE",
"156 0 LINE"
);
},
{
closed = 1;
nodes = (
"368 128 LINE",
"368 193 LINE",
"76 193 LINE",
"76 128 LINE"
);
},
{
closed = 1;
nodes = (
"494 322 LINE",
"494 394 LINE",
"186 394 LINE",
"186 322 LINE"
);
},
{
closed = 1;
nodes = (
"520 622 LINE",
"520 694 LINE",
"186 694 LINE",
"186 622 LINE"
);
}
);
width = 594;
}
);
unicode = 20A3;
},
{
glyphname = guarani;
lastChange = "2017-08-13 17:51:05 +0000";
layers = (
{
layerId = "F333AEC5-BB61-4D5E-9EDD-6124322D28F2";
paths = (
{
closed = 1;
nodes = (
"434 -9 OFFCURVE",
"495 34 OFFCURVE",
"541 74 CURVE",
"541 368 LINE",
"332 368 LINE",
"332 296 LINE",
"464 296 LINE",
"464 102 LINE",
"433 81 OFFCURVE",
"401 64 OFFCURVE",
"356 64 CURVE SMOOTH",
"240 64 OFFCURVE",
"173 177 OFFCURVE",
"173 351 CURVE SMOOTH",
"173 526 OFFCURVE",
"241 630 OFFCURVE",
"359 630 CURVE SMOOTH",
"409 630 OFFCURVE",
"465 612 OFFCURVE",
"507 585 CURVE",
"526 663 LINE",
"481 687 OFFCURVE",
"421 703 OFFCURVE",
"367 703 CURVE SMOOTH",
"209 703 OFFCURVE",
"93 564 OFFCURVE",
"93 340 CURVE SMOOTH",
"93 126 OFFCURVE",
"200 -9 OFFCURVE",
"350 -9 CURVE SMOOTH"
);
},
{
closed = 1;
nodes = (
"398 -49 LINE",
"398 58 LINE",
"322 58 LINE",
"322 -49 LINE"
);
},
{
closed = 1;
nodes = (
"398 633 LINE",
"398 739 LINE",
"323 739 LINE",
"323 633 LINE"
);
}
);
width = 646;
}
);
unicode = 20B2;
},
{
glyphname = kip;
lastChange = "2017-08-13 17:51:04 +0000";
layers = (
{
layerId = "F333AEC5-BB61-4D5E-9EDD-6124322D28F2";
paths = (
{
closed = 1;
nodes = (
"567 0 LINE",
"293 375 LINE",
"293 348 LINE",
"552 694 LINE",
"463 694 LINE",
"216 356 LINE",
"472 0 LINE"
);
},
{
closed = 1;
nodes = (
"228 0 LINE",
"228 694 LINE",
"151 694 LINE",
"151 0 LINE"
);
},
{
closed = 1;
nodes = (
"532 323 LINE",
"532 388 LINE",
"90 388 LINE",
"90 323 LINE"
);
}
);
width = 637;
}
);
unicode = 20AD;
},
{
glyphname = liraTurkish;
lastChange = "2017-08-13 17:51:04 +0000";
layers = (
{
layerId = "F333AEC5-BB61-4D5E-9EDD-6124322D28F2";
paths = (
{
closed = 1;
nodes = (
"412 0 OFFCURVE",
"535 142 OFFCURVE",
"535 330 CURVE",
"455 330 LINE",
"455 174 OFFCURVE",
"374 70 OFFCURVE",
"244 70 CURVE",
"234 0 LINE"
);
},
{
closed = 1;
nodes = (
"244 0 LINE",
"244 694 LINE",
"167 694 LINE",
"167 0 LINE"
);
},
{
closed = 1;
nodes = (
"77 446 LINE",
"104 391 LINE",
"409 569 LINE",
"380 625 LINE"
);
},
{
closed = 1;
nodes = (
"82 308 LINE",
"110 252 LINE",
"409 430 LINE",
"380 486 LINE"
);
}
);
width = 608;
}
);
unicode = 20BA;
},
{
glyphname = manat;
lastChange = "2017-08-13 17:51:05 +0000";
layers = (
{
layerId = "F333AEC5-BB61-4D5E-9EDD-6124322D28F2";
paths = (
{
closed = 1;
nodes = (
"188 0 LINE",
"188 358 LINE SMOOTH",
"188 470 OFFCURVE",
"257 545 OFFCURVE",
"360 545 CURVE SMOOTH",
"469 545 OFFCURVE",
"542 466 OFFCURVE",
"542 348 CURVE SMOOTH",
"542 0 LINE",
"616 0 LINE",
"616 358 LINE SMOOTH",
"616 512 OFFCURVE",
"518 615 OFFCURVE",
"370 615 CURVE SMOOTH",
"216 615 OFFCURVE",
"114 508 OFFCURVE",
"114 348 CURVE SMOOTH",
"114 0 LINE"
);
},
{
closed = 1;
nodes = (
"329 100 LINE",
"403 100 LINE",
"403 694 LINE",
"329 694 LINE"
);
}
);
width = 731;
}
);
unicode = 20BC;
},
{
glyphname = naira;
lastChange = "2017-08-13 17:51:04 +0000";
layers = (
{
layerId = "F333AEC5-BB61-4D5E-9EDD-6124322D28F2";
paths = (
{
closed = 1;
nodes = (
"653 321 LINE",
"653 386 LINE",
"92 386 LINE",
"92 321 LINE"
);
},
{
closed = 1;
nodes = (
"222 0 LINE",
"222 448 LINE SMOOTH",
"222 503 OFFCURVE",
"217 556 OFFCURVE",
"211 594 CURVE",
"513 0 LINE",
"591 0 LINE",
"591 694 LINE",
"519 694 LINE",
"519 254 LINE SMOOTH",
"519 202 OFFCURVE",
"524 149 OFFCURVE",
"531 108 CURVE",
"228 694 LINE",
"150 694 LINE",
"150 0 LINE"
);
}
);
width = 742;
}
);
unicode = 20A6;
},
{
glyphname = peseta;
lastChange = "2017-08-13 17:51:05 +0000";
layers = (
{
layerId = "F333AEC5-BB61-4D5E-9EDD-6124322D28F2";
paths = (
{
closed = 1;
nodes = (
"226 0 LINE",
"226 622 LINE",
"345 622 LINE SMOOTH",
"431 622 OFFCURVE",
"488 556 OFFCURVE",
"488 461 CURVE SMOOTH",
"488 368 OFFCURVE",
"434 314 OFFCURVE",
"354 314 CURVE SMOOTH",
"185 314 LINE",
"185 242 LINE",
"345 242 LINE SMOOTH",
"478 242 OFFCURVE",
"568 339 OFFCURVE",
"568 470 CURVE SMOOTH",
"568 601 OFFCURVE",
"477 694 OFFCURVE",
"354 694 CURVE SMOOTH",
"149 694 LINE",
"149 0 LINE"
);
},
{
closed = 1;
nodes = (
"615 431 LINE",
"615 496 LINE",
"93 496 LINE",
"93 431 LINE"
);
}
);
width = 682;
}
);
unicode = 20A7;
},
{
glyphname = peso;
lastChange = "2017-08-13 17:51:04 +0000";
layers = (
{
layerId = "F333AEC5-BB61-4D5E-9EDD-6124322D28F2";
paths = (
{
closed = 1;
nodes = (
"235 0 LINE",
"235 622 LINE",
"354 622 LINE SMOOTH",
"440 622 OFFCURVE",
"497 556 OFFCURVE",
"497 461 CURVE SMOOTH",
"497 368 OFFCURVE",
"443 314 OFFCURVE",
"363 314 CURVE SMOOTH",
"194 314 LINE",
"194 242 LINE",
"354 242 LINE SMOOTH",
"487 242 OFFCURVE",
"577 339 OFFCURVE",
"577 470 CURVE SMOOTH",
"577 601 OFFCURVE",
"486 694 OFFCURVE",
"363 694 CURVE SMOOTH",
"158 694 LINE",
"158 0 LINE"
);
},
{
closed = 1;
nodes = (
"624 501 LINE",
"624 566 LINE",
"102 566 LINE",
"102 501 LINE"
);
},
{
closed = 1;
nodes = (
"624 381 LINE",
"624 446 LINE",
"102 446 LINE",
"102 381 LINE"
);
}
);
width = 705;
}
);
unicode = 20B1;
},
{
glyphname = ruble;
lastChange = "2017-08-13 17:51:05 +0000";
layers = (
{
layerId = "F333AEC5-BB61-4D5E-9EDD-6124322D28F2";
paths = (
{
closed = 1;
nodes = (
"240 0 LINE",
"240 622 LINE",
"359 622 LINE SMOOTH",
"445 622 OFFCURVE",
"502 556 OFFCURVE",
"502 461 CURVE SMOOTH",
"502 368 OFFCURVE",
"448 314 OFFCURVE",
"368 314 CURVE SMOOTH",
"99 314 LINE",
"99 242 LINE",
"359 242 LINE SMOOTH",
"492 242 OFFCURVE",
"582 339 OFFCURVE",
"582 470 CURVE SMOOTH",
"582 601 OFFCURVE",
"491 694 OFFCURVE",
"368 694 CURVE SMOOTH",
"163 694 LINE",
"163 0 LINE"
);
},
{
closed = 1;
nodes = (
"391 102 LINE",
"391 167 LINE",
"99 167 LINE",
"99 102 LINE"
);
}
);
width = 664;
}
);
unicode = 20BD;
},
{
glyphname = rupeeIndian;
lastChange = "2017-08-13 17:51:05 +0000";
layers = (
{
layerId = "F333AEC5-BB61-4D5E-9EDD-6124322D28F2";
paths = (
{
closed = 1;
nodes = (
"348 0 LINE",
"447 0 LINE",
"255 328 LINE",
"160 328 LINE"
);
},
{
closed = 1;
nodes = (
"98 632 LINE",
"165 632 LINE SMOOTH",
"262 632 OFFCURVE",
"322 584 OFFCURVE",
"322 491 CURVE SMOOTH",
"322 401 OFFCURVE",
"266 359 OFFCURVE",
"175 359 CURVE SMOOTH",
"98 359 LINE",
"98 287 LINE",
"165 287 LINE SMOOTH",
"308 287 OFFCURVE",
"407 372 OFFCURVE",
"407 499 CURVE SMOOTH",
"407 625 OFFCURVE",
"309 694 OFFCURVE",
"175 694 CURVE SMOOTH",
"98 694 LINE"
);
},
{
closed = 1;
nodes = (
"470 633 LINE",
"470 698 LINE",
"98 698 LINE",
"98 633 LINE"
);
},
{
closed = 1;
nodes = (
"470 463 LINE",
"470 528 LINE",
"98 528 LINE",
"98 463 LINE"
);
}
);
width = 555;
}
);
unicode = 20B9;
},
{
glyphname = won;
lastChange = "2017-08-13 17:51:03 +0000";
layers = (
{
layerId = "F333AEC5-BB61-4D5E-9EDD-6124322D28F2";
paths = (
{
closed = 1;
nodes = (
"324 0 LINE",
"460 658 LINE",
"427 658 LINE",
"566 0 LINE",
"626 0 LINE",
"769 694 LINE",
"696 694 LINE",
"578 29 LINE",
"618 29 LINE",
"504 694 LINE",
"404 694 LINE",
"271 29 LINE",
"313 29 LINE",
"202 694 LINE",
"114 694 LINE",
"263 0 LINE"
);
},
{
closed = 1;
nodes = (
"791 389 LINE",
"791 454 LINE",
"98 454 LINE",
"98 389 LINE"
);
},
{
closed = 1;
nodes = (
"240 249 LINE",
"240 314 LINE",
"98 314 LINE",
"98 249 LINE"
);
},
{
closed = 1;
nodes = (
"791 249 LINE",
"791 314 LINE",
"669 314 LINE",
"669 249 LINE"
);
}
);
width = 887;
}
);
unicode = 20A9;
},
{
glyphname = yen;
lastChange = "2017-08-13 17:51:04 +0000";
layers = (
{
layerId = "F333AEC5-BB61-4D5E-9EDD-6124322D28F2";
paths = (
{
closed = 1;
nodes = (
"344 0 LINE",
"344 299 LINE",
"559 694 LINE",
"473 694 LINE",
"304 362 LINE",
"311 362 LINE",
"149 694 LINE",
"57 694 LINE",
"267 299 LINE",
"267 0 LINE"
);
},
{
closed = 1;
nodes = (
"451 125 LINE",
"451 190 LINE",
"159 190 LINE",
"159 125 LINE"
);
},
{
closed = 1;
nodes = (
"451 265 LINE",
"451 330 LINE",
"159 330 LINE",
"159 265 LINE"
);
}
);
width = 615;
}
);
unicode = 00A5;
},
{
glyphname = equivalence;
lastChange = "2017-08-13 17:00:16 +0000";
layers = (
{
layerId = "F333AEC5-BB61-4D5E-9EDD-6124322D28F2";
paths = (
{
closed = 1;
nodes = (
"596 476 LINE",
"596 545 LINE",
"131 545 LINE",
"131 476 LINE"
);
},
{
closed = 1;
nodes = (
"596 304 LINE",
"596 373 LINE",
"131 373 LINE",
"131 304 LINE"
);
},
{
closed = 1;
nodes = (
"596 132 LINE",
"596 201 LINE",
"131 201 LINE",
"131 132 LINE"
);
}
);
width = 727;
}
);
unicode = 2261;
},
{
glyphname = notidentical;
lastChange = "2017-08-13 17:55:19 +0000";
layers = (
{
layerId = "F333AEC5-BB61-4D5E-9EDD-6124322D28F2";
paths = (
{
closed = 1;
nodes = (
"572 476 LINE",
"572 545 LINE",
"107 545 LINE",
"107 476 LINE"
);
},
{
closed = 1;
nodes = (
"572 304 LINE",
"572 373 LINE",
"107 373 LINE",
"107 304 LINE"
);
},
{
closed = 1;
nodes = (
"572 132 LINE",
"572 201 LINE",
"107 201 LINE",
"107 132 LINE"
);
},
{
closed = 1;
nodes = (
"533 614 LINE",
"479 645 LINE",
"154 60 LINE",
"204 32 LINE"
);
}
);
width = 679;
}
);
unicode = 2262;
},
{
glyphname = plus;
lastChange = "2017-08-12 12:00:42 +0000";
layers = (
{
layerId = "F333AEC5-BB61-4D5E-9EDD-6124322D28F2";
paths = (
{
closed = 1;
nodes = (
"354 92 LINE",
"354 618 LINE",
"284 618 LINE",
"284 92 LINE"
);
},
{
closed = 1;
nodes = (
"568 326 LINE",
"568 395 LINE",
"64 395 LINE",
"64 326 LINE"
);
}
);
width = 632;
}
);
unicode = 002B;
},
{
glyphname = minus;
lastChange = "2017-08-13 17:51:04 +0000";
layers = (
{
layerId = "F333AEC5-BB61-4D5E-9EDD-6124322D28F2";
paths = (
{
closed = 1;
nodes = (
"620 326 LINE",
"620 395 LINE",
"131 395 LINE",
"131 326 LINE"
);
}
);
width = 751;
}
);
unicode = 2212;
},
{
glyphname = multiply;
lastChange = "2017-08-13 17:51:05 +0000";
layers = (
{
layerId = "F333AEC5-BB61-4D5E-9EDD-6124322D28F2";
paths = (
{
closed = 1;
nodes = (
"454 110 LINE",
"504 160 LINE",
"504 164 LINE",
"134 556 LINE",
"130 556 LINE",
"77 507 LINE",
"77 503 LINE",
"450 110 LINE"
);
},
{
closed = 1;
nodes = (
"499 503 LINE",
"450 553 LINE",
"73 166 LINE",
"119 115 LINE"
);
}
);
width = 576;
}
);
unicode = 00D7;
},
{
glyphname = divide;
lastChange = "2017-08-13 17:51:04 +0000";
layers = (
{
components = (
{
name = _dot;
transform = "{1, 0, 0, 1, 183, -101}";
},
{
name = _dot;
transform = "{1, 0, 0, 1, 183, -495}";
}
);
layerId = "F333AEC5-BB61-4D5E-9EDD-6124322D28F2";
paths = (
{
closed = 1;
nodes = (
"557 326 LINE",
"557 395 LINE",
"65 395 LINE",
"65 326 LINE"
);
}
);
width = 625;
}
);
unicode = 00F7;
},
{
glyphname = equal;
lastChange = "2017-08-12 12:00:42 +0000";
layers = (
{
layerId = "F333AEC5-BB61-4D5E-9EDD-6124322D28F2";
paths = (
{
closed = 1;
nodes = (
"596 436 LINE",
"596 505 LINE",
"131 505 LINE",
"131 436 LINE"
);
},
{
closed = 1;
nodes = (
"596 196 LINE",
"596 265 LINE",
"131 265 LINE",
"131 196 LINE"
);
}
);
width = 727;
}
);
unicode = 003D;
},
{
glyphname = notequal;
lastChange = "2017-08-13 17:55:12 +0000";
layers = (
{
layerId = "F333AEC5-BB61-4D5E-9EDD-6124322D28F2";
paths = (
{
closed = 1;
nodes = (
"487 577 LINE",
"433 608 LINE",
"164 122 LINE",
"214 94 LINE"
);
},
{
closed = 1;
nodes = (
"561 196 LINE",
"561 265 LINE",
"96 265 LINE",
"96 196 LINE"
);
},
{
closed = 1;
nodes = (
"561 436 LINE",
"561 505 LINE",
"96 505 LINE",
"96 436 LINE"
);
}
);
width = 657;
}
);
unicode = 2260;
},
{
glyphname = greater;
lastChange = "2017-08-13 17:51:05 +0000";
layers = (
{
layerId = "F333AEC5-BB61-4D5E-9EDD-6124322D28F2";
paths = (
{
closed = 1;
nodes = (
"528 306 LINE",
"528 370 LINE",
"82 599 LINE",
"82 516 LINE",
"444 339 LINE",
"444 336 LINE",
"82 163 LINE",
"82 85 LINE"
);
}
);
width = 593;
}
);
unicode = 003E;
},
{
glyphname = greaterequal;
lastChange = "2017-08-13 17:51:05 +0000";
layers = (
{
layerId = "F333AEC5-BB61-4D5E-9EDD-6124322D28F2";
paths = (
{
closed = 1;
nodes = (
"568 379 LINE",
"568 438 LINE",
"97 626 LINE",
"97 553 LINE",
"477 411 LINE",
"477 406 LINE",
"97 264 LINE",
"97 198 LINE"
);
},
{
closed = 1;
nodes = (
"568 58 LINE",
"568 117 LINE",
"103 117 LINE",
"103 58 LINE"
);
}
);
width = 647;
}
);
unicode = 2265;
},
{
glyphname = plusminus;
lastChange = "2017-08-13 17:51:04 +0000";
layers = (
{
layerId = "F333AEC5-BB61-4D5E-9EDD-6124322D28F2";
paths = (
{
closed = 1;
nodes = (
"354 177 LINE",
"354 653 LINE",
"284 653 LINE",
"284 177 LINE"
);
},
{
closed = 1;
nodes = (
"558 59 LINE",
"558 124 LINE",
"86 124 LINE",
"86 59 LINE"
);
},
{
closed = 1;
nodes = (
"554 385 LINE",
"554 454 LINE",
"78 454 LINE",
"78 385 LINE"
);
}
);
width = 636;
}
);
unicode = 00B1;
},
{
glyphname = approxequal;
lastChange = "2017-08-13 17:51:05 +0000";
layers = (
{
layerId = "F333AEC5-BB61-4D5E-9EDD-6124322D28F2";
paths = (
{
closed = 1;
nodes = (
"158 413 OFFCURVE",
"203 453 OFFCURVE",
"240 453 CURVE SMOOTH",
"290 453 OFFCURVE",
"327 377 OFFCURVE",
"403 377 CURVE SMOOTH",
"466 377 OFFCURVE",
"532 428 OFFCURVE",
"556 517 CURVE",
"504 528 LINE",
"490 485 OFFCURVE",
"449 447 OFFCURVE",
"412 447 CURVE SMOOTH",
"360 447 OFFCURVE",
"332 523 OFFCURVE",
"250 523 CURVE SMOOTH",
"186 523 OFFCURVE",
"121 476 OFFCURVE",
"96 385 CURVE",
"148 374 LINE"
);
},
{
closed = 1;
nodes = (
"158 213 OFFCURVE",
"203 253 OFFCURVE",
"240 253 CURVE SMOOTH",
"290 253 OFFCURVE",
"327 177 OFFCURVE",
"403 177 CURVE SMOOTH",
"466 177 OFFCURVE",
"532 228 OFFCURVE",
"556 317 CURVE",
"504 328 LINE",
"490 285 OFFCURVE",
"449 247 OFFCURVE",
"412 247 CURVE SMOOTH",
"360 247 OFFCURVE",
"332 323 OFFCURVE",
"250 323 CURVE SMOOTH",
"186 323 OFFCURVE",
"121 276 OFFCURVE",
"96 185 CURVE",
"148 174 LINE"
);
}
);
width = 652;
}
);
unicode = 2248;
},
{
glyphname = asciitilde;
lastChange = "2017-08-13 17:51:05 +0000";
layers = (
{
layerId = "F333AEC5-BB61-4D5E-9EDD-6124322D28F2";
paths = (
{
closed = 1;
nodes = (
"163 263 OFFCURVE",
"204 303 OFFCURVE",
"240 303 CURVE SMOOTH",
"288 303 OFFCURVE",
"325 227 OFFCURVE",
"400 227 CURVE SMOOTH",
"462 227 OFFCURVE",
"529 278 OFFCURVE",
"552 367 CURVE",
"495 378 LINE",
"482 335 OFFCURVE",
"444 297 OFFCURVE",
"409 297 CURVE SMOOTH",
"358 297 OFFCURVE",
"329 373 OFFCURVE",
"249 373 CURVE SMOOTH",
"187 373 OFFCURVE",
"120 326 OFFCURVE",
"96 235 CURVE",
"153 224 LINE"
);
}
);
width = 647;
}
);
unicode = 007E;
},
{
glyphname = logicalnot;
lastChange = "2017-08-13 17:51:03 +0000";
layers = (
{
layerId = "F333AEC5-BB61-4D5E-9EDD-6124322D28F2";
paths = (
{
closed = 1;
nodes = (
"555 328 LINE",
"555 395 LINE",
"79 395 LINE",
"79 328 LINE"
);
},
{
closed = 1;
nodes = (
"555 152 LINE",
"555 353 LINE",
"475 353 LINE",
"475 152 LINE"
);
}
);
width = 686;
}
);
unicode = 00AC;
},
{
glyphname = infinity;
lastChange = "2017-08-13 17:56:51 +0000";
layers = (
{
layerId = "F333AEC5-BB61-4D5E-9EDD-6124322D28F2";
paths = (
{
closed = 1;
nodes = (
"473 543 OFFCURVE",
"436 215 OFFCURVE",
"278 215 CURVE SMOOTH",
"216 215 OFFCURVE",
"175 265 OFFCURVE",
"175 342 CURVE SMOOTH",
"175 411 OFFCURVE",
"208 463 OFFCURVE",
"273 463 CURVE SMOOTH",
"439 463 OFFCURVE",
"461 125 OFFCURVE",
"675 125 CURVE SMOOTH",
"784 125 OFFCURVE",
"859 212 OFFCURVE",
"859 339 CURVE SMOOTH",
"859 461 OFFCURVE",
"789 543 OFFCURVE",
"684 543 CURVE SMOOTH"
);
},
{
closed = 1;
nodes = (
"472 145 OFFCURVE",
"507 473 OFFCURVE",
"668 473 CURVE SMOOTH",
"734 473 OFFCURVE",
"779 417 OFFCURVE",
"779 329 CURVE SMOOTH",
"779 251 OFFCURVE",
"744 195 OFFCURVE",
"679 195 CURVE SMOOTH",
"520 195 OFFCURVE",
"506 533 OFFCURVE",
"280 533 CURVE SMOOTH",
"170 533 OFFCURVE",
"95 453 OFFCURVE",
"95 333 CURVE SMOOTH",
"95 220 OFFCURVE",
"162 145 OFFCURVE",
"262 145 CURVE SMOOTH"
);
}
);
width = 958;
}
);
unicode = 221E;
},
{
glyphname = emptyset;
lastChange = "2017-08-13 17:51:06 +0000";
layers = (
{
layerId = "F333AEC5-BB61-4D5E-9EDD-6124322D28F2";
paths = (
{
closed = 1;
nodes = (
"528 68 OFFCURVE",
"642 179 OFFCURVE",
"642 345 CURVE SMOOTH",
"642 507 OFFCURVE",
"532 615 OFFCURVE",
"368 615 CURVE SMOOTH",
"198 615 OFFCURVE",
"85 503 OFFCURVE",
"85 335 CURVE SMOOTH",
"85 175 OFFCURVE",
"194 68 OFFCURVE",
"358 68 CURVE SMOOTH"
);
},
{
closed = 1;
nodes = (
"246 138 OFFCURVE",
"165 221 OFFCURVE",
"165 345 CURVE SMOOTH",
"165 465 OFFCURVE",
"242 545 OFFCURVE",
"358 545 CURVE SMOOTH",
"480 545 OFFCURVE",
"562 461 OFFCURVE",
"562 335 CURVE SMOOTH",
"562 217 OFFCURVE",
"484 138 OFFCURVE",
"368 138 CURVE SMOOTH"
);
},
{
closed = 1;
nodes = (
"183 33 LINE",
"592 630 LINE",
"536 667 LINE",
"135 67 LINE"
);
}
);
width = 728;
}
);
unicode = 2205;
},
{
glyphname = integral;
lastChange = "2017-08-13 17:51:05 +0000";
layers = (
{
layerId = "F333AEC5-BB61-4D5E-9EDD-6124322D28F2";
paths = (
{
closed = 1;
nodes = (
"258 -170 OFFCURVE",
"316 -129 OFFCURVE",
"316 -11 CURVE SMOOTH",
"316 173 OFFCURVE",
"176 406 OFFCURVE",
"176 588 CURVE SMOOTH",
"176 653 OFFCURVE",
"194 676 OFFCURVE",
"240 676 CURVE SMOOTH",
"267 676 OFFCURVE",
"297 668 OFFCURVE",
"317 657 CURVE",
"334 735 LINE",
"299 745 OFFCURVE",
"273 749 OFFCURVE",
"247 749 CURVE SMOOTH",
"159 749 OFFCURVE",
"96 704 OFFCURVE",
"96 573 CURVE SMOOTH",
"96 378 OFFCURVE",
"235 145 OFFCURVE",
"235 -25 CURVE SMOOTH",
"235 -77 OFFCURVE",
"222 -97 OFFCURVE",
"179 -97 CURVE SMOOTH",
"154 -97 OFFCURVE",
"115 -90 OFFCURVE",
"91 -80 CURVE",
"74 -158 LINE",
"94 -165 OFFCURVE",
"135 -170 OFFCURVE",
"167 -170 CURVE SMOOTH"
);
}
);
width = 408;
}
);
unicode = 222B;
},
{
glyphname = Ohm;
lastChange = "2017-08-13 14:40:22 +0000";
layers = (
{
layerId = "F333AEC5-BB61-4D5E-9EDD-6124322D28F2";
paths = (
{
closed = 1;
nodes = (
"341 0 LINE",
"341 53 LINE",
"247 126 OFFCURVE",
"189 269 OFFCURVE",
"189 394 CURVE SMOOTH",
"189 540 OFFCURVE",
"269 631 OFFCURVE",
"389 631 CURVE SMOOTH",
"514 631 OFFCURVE",
"599 533 OFFCURVE",
"599 388 CURVE SMOOTH",
"599 264 OFFCURVE",
"537 132 OFFCURVE",
"445 53 CURVE",
"445 0 LINE",
"697 0 LINE",
"697 72 LINE",
"533 72 LINE",
"622 135 OFFCURVE",
"681 265 OFFCURVE",
"681 397 CURVE SMOOTH",
"681 581 OFFCURVE",
"568 704 OFFCURVE",
"397 704 CURVE SMOOTH",
"223 704 OFFCURVE",
"106 577 OFFCURVE",
"106 385 CURVE SMOOTH",
"106 249 OFFCURVE",
"165 122 OFFCURVE",
"254 72 CURVE",
"88 72 LINE",
"88 0 LINE"
);
}
);
width = 786;
}
);
unicode = 2126;
},
{
glyphname = increment;
lastChange = "2017-08-13 14:42:37 +0000";
layers = (
{
layerId = "F333AEC5-BB61-4D5E-9EDD-6124322D28F2";
paths = (
{
closed = 1;
nodes = (
"583 1 LINE",
"583 54 LINE",
"373 694 LINE",
"276 694 LINE",
"63 54 LINE",
"63 1 LINE"
);
},
{
closed = 1;
nodes = (
"323 611 LINE",
"500 68 LINE",
"148 68 LINE"
);
}
);
width = 646;
}
);
unicode = 2206;
},
{
glyphname = product;
lastChange = "2017-08-13 14:42:10 +0000";
layers = (
{
layerId = "F333AEC5-BB61-4D5E-9EDD-6124322D28F2";
paths = (
{
closed = 1;
nodes = (
"214 -95 LINE",
"214 622 LINE",
"584 622 LINE",
"584 -95 LINE",
"667 -95 LINE",
"667 694 LINE",
"131 694 LINE",
"131 -95 LINE"
);
}
);
width = 798;
}
);
unicode = 220F;
},
{
glyphname = summation;
lastChange = "2017-08-13 17:51:04 +0000";
layers = (
{
layerId = "F333AEC5-BB61-4D5E-9EDD-6124322D28F2";
paths = (
{
closed = 1;
nodes = (
"572 -95 LINE",
"572 -24 LINE",
"163 -24 LINE",
"447 299 LINE",
"166 622 LINE",
"572 622 LINE",
"572 694 LINE",
"62 694 LINE",
"62 638 LINE",
"351 299 LINE",
"62 -39 LINE",
"62 -95 LINE"
);
}
);
width = 636;
}
);
unicode = 2211;
},
{
glyphname = radical;
lastChange = "2017-08-13 17:51:05 +0000";
layers = (
{
layerId = "F333AEC5-BB61-4D5E-9EDD-6124322D28F2";
paths = (
{
closed = 1;
nodes = (
"171 231 LINE",
"277 -59 LINE",
"357 -59 LINE",
"507 739 LINE",
"420 739 LINE",
"309 59 LINE",
"233 303 LINE",
"55 303 LINE",
"55 231 LINE"
);
}
);
width = 573;
}
);
unicode = 221A;
},
{
glyphname = micro;
lastChange = "2017-08-13 17:51:04 +0000";
layers = (
{
layerId = "F333AEC5-BB61-4D5E-9EDD-6124322D28F2";
paths = (
{
closed = 1;
nodes = (
"206 -244 LINE",
"206 482 LINE",
"131 482 LINE",
"131 -244 LINE"
);
},
{
closed = 1;
nodes = (
"166 166 LINE",
"166 60 OFFCURVE",
"237 -10 OFFCURVE",
"327 -10 CURVE SMOOTH",
"388 -10 OFFCURVE",
"443 23 OFFCURVE",
"490 73 CURVE",
"471 124 LINE",
"432 84 OFFCURVE",
"399 60 OFFCURVE",
"342 60 CURVE SMOOTH",
"268 60 OFFCURVE",
"206 100 OFFCURVE",
"206 182 CURVE"
);
},
{
closed = 1;
nodes = (
"460 482 LINE",
"460 56 LINE",
"484 0 LINE",
"540 0 LINE",
"540 482 LINE"
);
}
);
width = 645;
}
);
unicode = 00B5;
},
{
glyphname = partialdiff;
lastChange = "2017-08-13 17:51:04 +0000";
layers = (
{
layerId = "F333AEC5-BB61-4D5E-9EDD-6124322D28F2";
paths = (
{
closed = 1;
nodes = (
"479 187 OFFCURVE",
"398 58 OFFCURVE",
"281 58 CURVE SMOOTH",
"206 58 OFFCURVE",
"156 112 OFFCURVE",
"156 200 CURVE SMOOTH",
"156 293 OFFCURVE",
"212 359 OFFCURVE",
"297 359 CURVE SMOOTH",
"356 359 OFFCURVE",
"432 327 OFFCURVE",
"481 249 CURVE",
"487 342 LINE",
"440 406 OFFCURVE",
"374 429 OFFCURVE",
"307 429 CURVE SMOOTH",
"169 429 OFFCURVE",
"76 331 OFFCURVE",
"76 193 CURVE SMOOTH",
"76 67 OFFCURVE",
"154 -12 OFFCURVE",
"272 -12 CURVE SMOOTH",
"442 -12 OFFCURVE",
"559 150 OFFCURVE",
"559 386 CURVE SMOOTH",
"559 586 OFFCURVE",
"474 701 OFFCURVE",
"321 701 CURVE SMOOTH",
"264 701 OFFCURVE",
"185 685 OFFCURVE",
"135 661 CURVE",
"152 586 LINE",
"207 613 OFFCURVE",
"268 631 OFFCURVE",
"314 631 CURVE SMOOTH",
"419 631 OFFCURVE",
"479 536 OFFCURVE",
"479 375 CURVE SMOOTH"
);
}
);
width = 650;
}
);
unicode = 2202;
},
{
glyphname = upArrow;
lastChange = "2017-08-13 17:51:04 +0000";
layers = (
{
layerId = "F333AEC5-BB61-4D5E-9EDD-6124322D28F2";
paths = (
{
closed = 1;
nodes = (
"320 598 LINE",
"316 598 LINE",
"52 324 LINE",
"98 282 LINE",
"284 484 LINE",
"284 44 LINE",
"352 44 LINE",
"352 484 LINE",
"540 282 LINE",
"586 324 LINE"
);
}
);
width = 638;
},
{
layerId = "F333AEC5-BB61-4D5E-9EDD-6124322D28F2";
paths = (
{
closed = 1;
nodes = (
"320 598 LINE",
"316 598 LINE",
"52 324 LINE",
"98 282 LINE",
"284 484 LINE",
"284 44 LINE",
"352 44 LINE",
"352 484 LINE",
"540 282 LINE",
"586 324 LINE"
);
}
);
width = 638;
}
);
note = arrowup;
unicode = 2191;
},
{
glyphname = rightArrow;
lastChange = "2017-08-13 17:51:04 +0000";
layers = (
{
layerId = "F333AEC5-BB61-4D5E-9EDD-6124322D28F2";
paths = (
{
closed = 1;
nodes = (
"617 319 LINE",
"617 323 LINE",
"344 588 LINE",
"302 542 LINE",
"503 355 LINE",
"64 355 LINE",
"64 287 LINE",
"503 287 LINE",
"302 100 LINE",
"344 54 LINE"
);
}
);
width = 670;
},
{
layerId = "F333AEC5-BB61-4D5E-9EDD-6124322D28F2";
paths = (
{
closed = 1;
nodes = (
"617 319 LINE",
"617 323 LINE",
"344 588 LINE",
"302 542 LINE",
"503 355 LINE",
"64 355 LINE",
"64 287 LINE",
"503 287 LINE",
"302 100 LINE",
"344 54 LINE"
);
}
);
width = 670;
}
);
note = arrowright;
unicode = 2192;
},
{
glyphname = downArrow;
lastChange = "2017-08-13 17:51:05 +0000";
layers = (
{
layerId = "F333AEC5-BB61-4D5E-9EDD-6124322D28F2";
paths = (
{
closed = 1;
nodes = (
"317 44 LINE",
"321 44 LINE",
"587 318 LINE",
"541 360 LINE",
"353 158 LINE",
"353 598 LINE",
"285 598 LINE",
"285 158 LINE",
"99 360 LINE",
"53 318 LINE"
);
}
);
width = 640;
},
{
layerId = "F333AEC5-BB61-4D5E-9EDD-6124322D28F2";
paths = (
{
closed = 1;
nodes = (
"317 44 LINE",
"321 44 LINE",
"587 318 LINE",
"541 360 LINE",
"353 158 LINE",
"353 598 LINE",
"285 598 LINE",
"285 158 LINE",
"99 360 LINE",
"53 318 LINE"
);
}
);
width = 640;
}
);
note = arrowdown;
unicode = 2193;
},
{
glyphname = leftArrow;
lastChange = "2017-08-13 17:51:05 +0000";
layers = (
{
layerId = "F333AEC5-BB61-4D5E-9EDD-6124322D28F2";
paths = (
{
closed = 1;
nodes = (
"53 319 LINE",
"326 54 LINE",
"368 100 LINE",
"167 287 LINE",
"606 287 LINE",
"606 355 LINE",
"167 355 LINE",
"368 542 LINE",
"326 588 LINE",
"53 323 LINE"
);
}
);
width = 670;
},
{
layerId = "F333AEC5-BB61-4D5E-9EDD-6124322D28F2";
paths = (
{
closed = 1;
nodes = (
"53 319 LINE",
"326 54 LINE",
"368 100 LINE",
"167 287 LINE",
"606 287 LINE",
"606 355 LINE",
"167 355 LINE",
"368 542 LINE",
"326 588 LINE",
"53 323 LINE"
);
}
);
width = 670;
}
);
note = arrowleft;
unicode = 2190;
},
{
glyphname = upBlackArrow;
lastChange = "2017-08-13 17:51:06 +0000";
layers = (
{
layerId = "F333AEC5-BB61-4D5E-9EDD-6124322D28F2";
paths = (
{
closed = 1;
nodes = (
"206 466 LINE",
"206 0 LINE",
"392 0 LINE",
"392 466 LINE",
"550 466 LINE",
"299 721 LINE",
"48 466 LINE"
);
}
);
width = 598;
},
{
layerId = "F333AEC5-BB61-4D5E-9EDD-6124322D28F2";
paths = (
{
closed = 1;
nodes = (
"206 466 LINE",
"206 0 LINE",
"392 0 LINE",
"392 466 LINE",
"550 466 LINE",
"299 721 LINE",
"48 466 LINE"
);
}
);
width = 598;
}
);
note = uni2B06;
unicode = 2B06;
},
{
glyphname = downBlackArrow;
lastChange = "2017-08-13 17:51:04 +0000";
layers = (
{
layerId = "F333AEC5-BB61-4D5E-9EDD-6124322D28F2";
paths = (
{
closed = 1;
nodes = (
"206 703 LINE",
"206 237 LINE",
"48 237 LINE",
"299 -18 LINE",
"550 237 LINE",
"392 237 LINE",
"392 703 LINE"
);
}
);
width = 598;
},
{
layerId = "F333AEC5-BB61-4D5E-9EDD-6124322D28F2";
paths = (
{
closed = 1;
nodes = (
"206 703 LINE",
"206 237 LINE",
"48 237 LINE",
"299 -18 LINE",
"550 237 LINE",
"392 237 LINE",
"392 703 LINE"
);
}
);
width = 598;
}
);
note = uni2B07;
unicode = 2B07;
},
{
glyphname = leftBlackArrow;
lastChange = "2017-08-13 17:51:04 +0000";
layers = (
{
layerId = "F333AEC5-BB61-4D5E-9EDD-6124322D28F2";
paths = (
{
closed = 1;
nodes = (
"309 249 LINE",
"775 249 LINE",
"775 435 LINE",
"309 435 LINE",
"309 593 LINE",
"54 342 LINE",
"309 91 LINE"
);
}
);
width = 863;
},
{
layerId = "F333AEC5-BB61-4D5E-9EDD-6124322D28F2";
paths = (
{
closed = 1;
nodes = (
"309 249 LINE",
"775 249 LINE",
"775 435 LINE",
"309 435 LINE",
"309 593 LINE",
"54 342 LINE",
"309 91 LINE"
);
}
);
width = 863;
}
);
note = uni2B05;
unicode = 2B05;
},
{
glyphname = rightTriangleBlackArrow;
lastChange = "2017-08-13 17:51:03 +0000";
layers = (
{
layerId = "F333AEC5-BB61-4D5E-9EDD-6124322D28F2";
paths = (
{
closed = 1;
nodes = (
"88 249 LINE",
"554 249 LINE",
"554 91 LINE",
"809 342 LINE",
"554 593 LINE",
"554 435 LINE",
"88 435 LINE"
);
}
);
width = 863;
},
{
layerId = "F333AEC5-BB61-4D5E-9EDD-6124322D28F2";
paths = (
{
closed = 1;
nodes = (
"88 249 LINE",
"554 249 LINE",
"554 91 LINE",
"809 342 LINE",
"554 593 LINE",
"554 435 LINE",
"88 435 LINE"
);
}
);
width = 863;
}
);
note = uni27A1;
unicode = 27A1;
},
{
glyphname = blackCircle;
lastChange = "2017-08-13 17:51:04 +0000";
layers = (
{
layerId = "F333AEC5-BB61-4D5E-9EDD-6124322D28F2";
paths = (
{
closed = 1;
nodes = (
"93 223 OFFCURVE",
"187 130 OFFCURVE",
"302 130 CURVE SMOOTH",
"417 130 OFFCURVE",
"511 223 OFFCURVE",
"511 338 CURVE SMOOTH",
"511 454 OFFCURVE",
"417 547 OFFCURVE",
"302 547 CURVE SMOOTH",
"187 547 OFFCURVE",
"93 454 OFFCURVE",
"93 338 CURVE SMOOTH"
);
}
);
width = 604;
},
{
layerId = "F333AEC5-BB61-4D5E-9EDD-6124322D28F2";
paths = (
{
closed = 1;
nodes = (
"93 223 OFFCURVE",
"187 130 OFFCURVE",
"302 130 CURVE SMOOTH",
"417 130 OFFCURVE",
"511 223 OFFCURVE",
"511 338 CURVE SMOOTH",
"511 454 OFFCURVE",
"417 547 OFFCURVE",
"302 547 CURVE SMOOTH",
"187 547 OFFCURVE",
"93 454 OFFCURVE",
"93 338 CURVE SMOOTH"
);
}
);
width = 604;
}
);
note = H18533;
unicode = 25CF;
},
{
glyphname = whiteCircle;
lastChange = "2017-08-13 18:01:38 +0000";
layers = (
{
layerId = "F333AEC5-BB61-4D5E-9EDD-6124322D28F2";
paths = (
{
closed = 1;
nodes = (
"599 634 OFFCURVE",
"723 512 OFFCURVE",
"723 340 CURVE SMOOTH",
"723 176 OFFCURVE",
"603 60 OFFCURVE",
"434 60 CURVE SMOOTH",
"258 60 OFFCURVE",
"134 180 OFFCURVE",
"134 350 CURVE SMOOTH",
"134 516 OFFCURVE",
"254 634 OFFCURVE",
"424 634 CURVE SMOOTH"
);
},
{
closed = 1;
nodes = (
"216 704 OFFCURVE",
"64 553 OFFCURVE",
"64 340 CURVE SMOOTH",
"64 135 OFFCURVE",
"213 -10 OFFCURVE",
"424 -10 CURVE SMOOTH",
"640 -10 OFFCURVE",
"793 139 OFFCURVE",
"793 350 CURVE SMOOTH",
"793 557 OFFCURVE",
"643 704 OFFCURVE",
"432 704 CURVE SMOOTH"
);
}
);
width = 857;
},
{
layerId = "F333AEC5-BB61-4D5E-9EDD-6124322D28F2";
paths = (
{
closed = 1;
nodes = (
"599 634 OFFCURVE",
"723 512 OFFCURVE",
"723 340 CURVE SMOOTH",
"723 176 OFFCURVE",
"603 60 OFFCURVE",
"434 60 CURVE SMOOTH",
"258 60 OFFCURVE",
"134 180 OFFCURVE",
"134 350 CURVE SMOOTH",
"134 516 OFFCURVE",
"254 634 OFFCURVE",
"424 634 CURVE SMOOTH"
);
},
{
closed = 1;
nodes = (
"216 704 OFFCURVE",
"64 553 OFFCURVE",
"64 340 CURVE SMOOTH",
"64 135 OFFCURVE",
"213 -10 OFFCURVE",
"424 -10 CURVE SMOOTH",
"640 -10 OFFCURVE",
"793 139 OFFCURVE",
"793 350 CURVE SMOOTH",
"793 557 OFFCURVE",
"643 704 OFFCURVE",
"432 704 CURVE SMOOTH"
);
}
);
width = 857;
}
);
note = circle;
unicode = 25CB;
},
{
glyphname = dottedCircle;
lastChange = "2017-08-13 16:27:23 +0000";
layers = (
{
layerId = "F333AEC5-BB61-4D5E-9EDD-6124322D28F2";
paths = (
{
closed = 1;
nodes = (
"122 216 OFFCURVE",
"132 226 OFFCURVE",
"132 242 CURVE SMOOTH",
"132 257 OFFCURVE",
"122 267 OFFCURVE",
"107 267 CURVE SMOOTH",
"91 267 OFFCURVE",
"81 257 OFFCURVE",
"81 242 CURVE SMOOTH",
"81 226 OFFCURVE",
"91 216 OFFCURVE",
"107 216 CURVE SMOOTH"
);
},
{
closed = 1;
nodes = (
"573 216 OFFCURVE",
"583 226 OFFCURVE",
"583 242 CURVE SMOOTH",
"583 257 OFFCURVE",
"573 267 OFFCURVE",
"557 267 CURVE SMOOTH",
"542 267 OFFCURVE",
"532 257 OFFCURVE",
"532 242 CURVE SMOOTH",
"532 226 OFFCURVE",
"542 216 OFFCURVE",
"557 216 CURVE SMOOTH"
);
},
{
closed = 1;
nodes = (
"347 443 OFFCURVE",
"357 453 OFFCURVE",
"357 468 CURVE SMOOTH",
"357 484 OFFCURVE",
"347 493 OFFCURVE",
"332 493 CURVE SMOOTH",
"317 493 OFFCURVE",
"307 484 OFFCURVE",
"307 468 CURVE SMOOTH",
"307 453 OFFCURVE",
"317 443 OFFCURVE",
"332 443 CURVE SMOOTH"
);
},
{
closed = 1;
nodes = (
"509 377 OFFCURVE",
"519 386 OFFCURVE",
"519 402 CURVE SMOOTH",
"519 417 OFFCURVE",
"509 427 OFFCURVE",
"493 427 CURVE SMOOTH",
"478 427 OFFCURVE",
"468 417 OFFCURVE",
"468 402 CURVE SMOOTH",
"468 386 OFFCURVE",
"478 377 OFFCURVE",
"493 377 CURVE SMOOTH"
);
},
{
closed = 1;
nodes = (
"437 425 OFFCURVE",
"447 435 OFFCURVE",
"447 451 CURVE SMOOTH",
"447 466 OFFCURVE",
"437 476 OFFCURVE",
"421 476 CURVE SMOOTH",
"406 476 OFFCURVE",
"396 466 OFFCURVE",
"396 451 CURVE SMOOTH",
"396 435 OFFCURVE",
"406 425 OFFCURVE",
"421 425 CURVE SMOOTH"
);
},
{
closed = 1;
nodes = (
"558 303 OFFCURVE",
"568 312 OFFCURVE",
"568 328 CURVE SMOOTH",
"568 343 OFFCURVE",
"558 353 OFFCURVE",
"543 353 CURVE SMOOTH",
"528 353 OFFCURVE",
"518 343 OFFCURVE",
"518 328 CURVE SMOOTH",
"518 312 OFFCURVE",
"528 303 OFFCURVE",
"543 303 CURVE SMOOTH"
);
},
{
closed = 1;
nodes = (
"187 377 OFFCURVE",
"197 386 OFFCURVE",
"197 402 CURVE SMOOTH",
"197 417 OFFCURVE",
"187 427 OFFCURVE",
"172 427 CURVE SMOOTH",
"156 427 OFFCURVE",
"146 417 OFFCURVE",
"146 402 CURVE SMOOTH",
"146 386 OFFCURVE",
"156 377 OFFCURVE",
"172 377 CURVE SMOOTH"
);
},
{
closed = 1;
nodes = (
"259 425 OFFCURVE",
"269 435 OFFCURVE",
"269 451 CURVE SMOOTH",
"269 466 OFFCURVE",
"259 476 OFFCURVE",
"244 476 CURVE SMOOTH",
"228 476 OFFCURVE",
"218 466 OFFCURVE",
"218 451 CURVE SMOOTH",
"218 435 OFFCURVE",
"228 425 OFFCURVE",
"244 425 CURVE SMOOTH"
);
},
{
closed = 1;
nodes = (
"138 303 OFFCURVE",
"148 312 OFFCURVE",
"148 328 CURVE SMOOTH",
"148 343 OFFCURVE",
"138 353 OFFCURVE",
"122 353 CURVE SMOOTH",
"107 353 OFFCURVE",
"97 343 OFFCURVE",
"97 328 CURVE SMOOTH",
"97 312 OFFCURVE",
"107 303 OFFCURVE",
"122 303 CURVE SMOOTH"
);
},
{
closed = 1;
nodes = (
"317 41 OFFCURVE",
"307 31 OFFCURVE",
"307 17 CURVE SMOOTH",
"307 1 OFFCURVE",
"317 -10 OFFCURVE",
"332 -10 CURVE SMOOTH",
"347 -10 OFFCURVE",
"357 1 OFFCURVE",
"357 17 CURVE SMOOTH",
"357 31 OFFCURVE",
"347 41 OFFCURVE",
"332 41 CURVE SMOOTH"
);
},
{
closed = 1;
nodes = (
"478 108 OFFCURVE",
"468 97 OFFCURVE",
"468 82 CURVE SMOOTH",
"468 67 OFFCURVE",
"478 57 OFFCURVE",
"493 57 CURVE SMOOTH",
"509 57 OFFCURVE",
"519 67 OFFCURVE",
"519 82 CURVE SMOOTH",
"519 97 OFFCURVE",
"509 108 OFFCURVE",
"493 108 CURVE SMOOTH"
);
},
{
closed = 1;
nodes = (
"406 59 OFFCURVE",
"396 48 OFFCURVE",
"396 33 CURVE SMOOTH",
"396 18 OFFCURVE",
"406 8 OFFCURVE",
"421 8 CURVE SMOOTH",
"437 8 OFFCURVE",
"447 18 OFFCURVE",
"447 33 CURVE SMOOTH",
"447 48 OFFCURVE",
"437 59 OFFCURVE",
"421 59 CURVE SMOOTH"
);
},
{
closed = 1;
nodes = (
"528 181 OFFCURVE",
"518 171 OFFCURVE",
"518 157 CURVE SMOOTH",
"518 141 OFFCURVE",
"528 130 OFFCURVE",
"543 130 CURVE SMOOTH",
"558 130 OFFCURVE",
"568 141 OFFCURVE",
"568 157 CURVE SMOOTH",
"568 171 OFFCURVE",
"558 181 OFFCURVE",
"543 181 CURVE SMOOTH"
);
},
{
closed = 1;
nodes = (
"156 108 OFFCURVE",
"146 97 OFFCURVE",
"146 82 CURVE SMOOTH",
"146 67 OFFCURVE",
"156 57 OFFCURVE",
"172 57 CURVE SMOOTH",
"187 57 OFFCURVE",
"197 67 OFFCURVE",
"197 82 CURVE SMOOTH",
"197 97 OFFCURVE",
"187 108 OFFCURVE",
"172 108 CURVE SMOOTH"
);
},
{
closed = 1;
nodes = (
"228 59 OFFCURVE",
"218 48 OFFCURVE",
"218 33 CURVE SMOOTH",
"218 18 OFFCURVE",
"228 8 OFFCURVE",
"244 8 CURVE SMOOTH",
"259 8 OFFCURVE",
"269 18 OFFCURVE",
"269 33 CURVE SMOOTH",
"269 48 OFFCURVE",
"259 59 OFFCURVE",
"244 59 CURVE SMOOTH"
);
},
{
closed = 1;
nodes = (
"107 181 OFFCURVE",
"97 171 OFFCURVE",
"97 157 CURVE SMOOTH",
"97 141 OFFCURVE",
"107 130 OFFCURVE",
"122 130 CURVE SMOOTH",
"138 130 OFFCURVE",
"148 141 OFFCURVE",
"148 157 CURVE SMOOTH",
"148 171 OFFCURVE",
"138 181 OFFCURVE",
"122 181 CURVE SMOOTH"
);
}
);
width = 666;
}
);
unicode = 25CC;
},
{
glyphname = lozenge;
lastChange = "2017-08-13 17:51:05 +0000";
layers = (
{
layerId = "F333AEC5-BB61-4D5E-9EDD-6124322D28F2";
paths = (
{
closed = 1;
nodes = (
"312 0 LINE",
"507 357 LINE",
"312 694 LINE",
"240 694 LINE",
"62 357 LINE",
"240 0 LINE"
);
},
{
closed = 1;
nodes = (
"129 385 LINE",
"129 329 LINE",
"292 640 LINE",
"261 640 LINE",
"439 329 LINE",
"439 384 LINE",
"262 56 LINE",
"291 56 LINE"
);
}
);
width = 566;
}
);
unicode = 25CA;
},
{
glyphname = mediumBlackSmallSquare;
lastChange = "2017-08-13 17:51:04 +0000";
layers = (
{
layerId = "F333AEC5-BB61-4D5E-9EDD-6124322D28F2";
paths = (
{
closed = 1;
nodes = (
"607 99 LINE",
"607 575 LINE",
"131 575 LINE",
"131 99 LINE"
);
}
);
width = 738;
},
{
layerId = "F333AEC5-BB61-4D5E-9EDD-6124322D28F2";
paths = (
{
closed = 1;
nodes = (
"607 99 LINE",
"607 575 LINE",
"131 575 LINE",
"131 99 LINE"
);
}
);
width = 738;
}
);
note = uni25FE;
unicode = 25FE;
},
{
glyphname = upBlackTriangle;
lastChange = "2017-08-13 17:51:04 +0000";
layers = (
{
layerId = "F333AEC5-BB61-4D5E-9EDD-6124322D28F2";
paths = (
{
closed = 1;
nodes = (
"52 127 LINE",
"630 127 LINE",
"341 416 LINE"
);
}
);
width = 682;
},
{
layerId = "F333AEC5-BB61-4D5E-9EDD-6124322D28F2";
paths = (
{
closed = 1;
nodes = (
"52 127 LINE",
"630 127 LINE",
"341 416 LINE"
);
}
);
width = 682;
}
);
note = triagup;
unicode = 25B2;
},
{
glyphname = rightBlackTriangle;
lastChange = "2017-08-13 17:51:03 +0000";
layers = (
{
layerId = "F333AEC5-BB61-4D5E-9EDD-6124322D28F2";
paths = (
{
closed = 1;
nodes = (
"131 0 LINE",
"419 289 LINE",
"131 578 LINE"
);
}
);
width = 471;
},
{
layerId = "F333AEC5-BB61-4D5E-9EDD-6124322D28F2";
paths = (
{
closed = 1;
nodes = (
"131 0 LINE",
"419 289 LINE",
"131 578 LINE"
);
}
);
width = 471;
}
);
note = uni25B6;
unicode = 25B6;
},
{
glyphname = downBlackTriangle;
lastChange = "2017-08-13 17:51:04 +0000";
layers = (
{
layerId = "F333AEC5-BB61-4D5E-9EDD-6124322D28F2";
paths = (
{
closed = 1;
nodes = (
"52 416 LINE",
"341 127 LINE",
"630 416 LINE"
);
}
);
width = 682;
},
{
layerId = "F333AEC5-BB61-4D5E-9EDD-6124322D28F2";
paths = (
{
closed = 1;
nodes = (
"52 416 LINE",
"341 127 LINE",
"630 416 LINE"
);
}
);
width = 682;
}
);
note = triagdn;
unicode = 25BC;
},
{
glyphname = leftBlackTriangle;
lastChange = "2017-08-13 17:51:05 +0000";
layers = (
{
layerId = "F333AEC5-BB61-4D5E-9EDD-6124322D28F2";
paths = (
{
closed = 1;
nodes = (
"340 0 LINE",
"340 578 LINE",
"52 289 LINE"
);
}
);
width = 471;
},
{
layerId = "F333AEC5-BB61-4D5E-9EDD-6124322D28F2";
paths = (
{
closed = 1;
nodes = (
"340 0 LINE",
"340 578 LINE",
"52 289 LINE"
);
}
);
width = 471;
}
);
note = uni25C0;
unicode = 25C0;
},
{
glyphname = upBlackSmallTriangle;
lastChange = "2017-08-13 17:51:04 +0000";
layers = (
{
layerId = "F333AEC5-BB61-4D5E-9EDD-6124322D28F2";
paths = (
{
closed = 1;
nodes = (
"441 96 LINE",
"250 381 LINE",
"59 96 LINE"
);
}
);
width = 500;
},
{
layerId = "F333AEC5-BB61-4D5E-9EDD-6124322D28F2";
paths = (
{
closed = 1;
nodes = (
"441 96 LINE",
"250 381 LINE",
"59 96 LINE"
);
}
);
width = 500;
}
);
note = uni25B4;
unicode = 25B4;
},
{
glyphname = rightBlackSmallTriangle;
lastChange = "2017-08-13 17:51:05 +0000";
layers = (
{
layerId = "F333AEC5-BB61-4D5E-9EDD-6124322D28F2";
paths = (
{
closed = 1;
nodes = (
"131 45 LINE",
"416 236 LINE",
"131 427 LINE"
);
}
);
width = 476;
},
{
layerId = "F333AEC5-BB61-4D5E-9EDD-6124322D28F2";
paths = (
{
closed = 1;
nodes = (
"131 45 LINE",
"416 236 LINE",
"131 427 LINE"
);
}
);
width = 476;
}
);
note = uni25B8;
unicode = 25B8;
},
{
glyphname = downBlackSmallTriangle;
lastChange = "2017-08-13 17:51:05 +0000";
layers = (
{
layerId = "F333AEC5-BB61-4D5E-9EDD-6124322D28F2";
paths = (
{
closed = 1;
nodes = (
"59 356 LINE",
"250 71 LINE",
"441 356 LINE"
);
}
);
width = 500;
},
{
layerId = "F333AEC5-BB61-4D5E-9EDD-6124322D28F2";
paths = (
{
closed = 1;
nodes = (
"59 356 LINE",
"250 71 LINE",
"441 356 LINE"
);
}
);
width = 500;
}
);
note = uni25BE;
unicode = 25BE;
},
{
glyphname = leftBlackSmallTriangle;
lastChange = "2017-08-13 17:51:06 +0000";
layers = (
{
layerId = "F333AEC5-BB61-4D5E-9EDD-6124322D28F2";
paths = (
{
closed = 1;
nodes = (
"341 427 LINE",
"56 236 LINE",
"341 45 LINE"
);
}
);
width = 472;
},
{
layerId = "F333AEC5-BB61-4D5E-9EDD-6124322D28F2";
paths = (
{
closed = 1;
nodes = (
"341 427 LINE",
"56 236 LINE",
"341 45 LINE"
);
}
);
width = 472;
}
);
note = uni25C2;
unicode = 25C2;
},
{
glyphname = mediumVerticalBar;
lastChange = "2017-08-13 17:51:04 +0000";
layers = (
{
layerId = "F333AEC5-BB61-4D5E-9EDD-6124322D28F2";
paths = (
{
closed = 1;
nodes = (
"214 621 LINE",
"131 621 LINE",
"131 0 LINE",
"214 0 LINE"
);
}
);
width = 345;
},
{
layerId = "F333AEC5-BB61-4D5E-9EDD-6124322D28F2";
paths = (
{
closed = 1;
nodes = (
"214 621 LINE",
"131 621 LINE",
"131 0 LINE",
"214 0 LINE"
);
}
);
width = 345;
}
);
note = uni2759;
unicode = 2759;
},
{
glyphname = at;
lastChange = "2017-08-11 18:25:53 +0000";
layers = (
{
layerId = "F333AEC5-BB61-4D5E-9EDD-6124322D28F2";
paths = (
{
closed = 1;
nodes = (
"519 -184 OFFCURVE",
"597 -173 OFFCURVE",
"641 -157 CURVE",
"627 -101 LINE",
"582 -114 OFFCURVE",
"522 -124 OFFCURVE",
"468 -124 CURVE SMOOTH",
"270 -124 OFFCURVE",
"145 11 OFFCURVE",
"145 225 CURVE SMOOTH",
"145 460 OFFCURVE",
"295 624 OFFCURVE",
"520 624 CURVE SMOOTH",
"721 624 OFFCURVE",
"852 494 OFFCURVE",
"852 297 CURVE SMOOTH",
"852 175 OFFCURVE",
"802 87 OFFCURVE",
"727 87 CURVE SMOOTH",
"689 87 OFFCURVE",
"668 110 OFFCURVE",
"668 146 CURVE",
"596 148 LINE",
"596 78 OFFCURVE",
"642 31 OFFCURVE",
"718 31 CURVE SMOOTH",
"838 31 OFFCURVE",
"917 147 OFFCURVE",
"917 310 CURVE SMOOTH",
"917 536 OFFCURVE",
"765 684 OFFCURVE",
"530 684 CURVE SMOOTH",
"260 684 OFFCURVE",
"81 490 OFFCURVE",
"81 215 CURVE SMOOTH",
"81 -32 OFFCURVE",
"225 -184 OFFCURVE",
"457 -184 CURVE SMOOTH"
);
},
{
closed = 1;
nodes = (
"525 31 OFFCURVE",
"578 60 OFFCURVE",
"615 98 CURVE",
"597 148 LINE",
"571 114 OFFCURVE",
"528 91 OFFCURVE",
"486 91 CURVE SMOOTH",
"422 91 OFFCURVE",
"379 145 OFFCURVE",
"379 237 CURVE SMOOTH",
"379 331 OFFCURVE",
"424 402 OFFCURVE",
"500 402 CURVE SMOOTH",
"550 402 OFFCURVE",
"593 371 OFFCURVE",
"616 324 CURVE",
"620 399 LINE",
"604 429 OFFCURVE",
"569 462 OFFCURVE",
"506 462 CURVE SMOOTH",
"401 462 OFFCURVE",
"304 371 OFFCURVE",
"304 227 CURVE SMOOTH",
"304 107 OFFCURVE",
"372 31 OFFCURVE",
"467 31 CURVE SMOOTH"
);
},
{
closed = 1;
nodes = (
"667 134 LINE",
"689 450 LINE",
"630 450 LINE",
"611 368 LINE",
"595 134 LINE"
);
}
);
width = 992;
}
);
unicode = 0040;
},
{
glyphname = ampersand;
lastChange = "2017-08-12 12:00:42 +0000";
layers = (
{
layerId = "F333AEC5-BB61-4D5E-9EDD-6124322D28F2";
paths = (
{
closed = 1;
nodes = (
"647 43 LINE",
"330 313 OFFCURVE",
"228 421 OFFCURVE",
"228 531 CURVE SMOOTH",
"228 601 OFFCURVE",
"265 634 OFFCURVE",
"323 634 CURVE SMOOTH",
"380 634 OFFCURVE",
"421 601 OFFCURVE",
"421 551 CURVE SMOOTH",
"421 402 OFFCURVE",
"71 426 OFFCURVE",
"71 187 CURVE SMOOTH",
"71 68 OFFCURVE",
"157 -12 OFFCURVE",
"282 -12 CURVE SMOOTH",
"411 -12 OFFCURVE",
"540 72 OFFCURVE",
"642 277 CURVE",
"571 319 LINE",
"490 136 OFFCURVE",
"391 61 OFFCURVE",
"294 61 CURVE SMOOTH",
"211 61 OFFCURVE",
"153 116 OFFCURVE",
"153 195 CURVE SMOOTH",
"153 387 OFFCURVE",
"501 349 OFFCURVE",
"501 557 CURVE SMOOTH",
"501 648 OFFCURVE",
"435 704 OFFCURVE",
"335 704 CURVE SMOOTH",
"223 704 OFFCURVE",
"148 634 OFFCURVE",
"148 523 CURVE SMOOTH",
"148 403 OFFCURVE",
"235 283 OFFCURVE",
"587 -19 CURVE"
);
}
);
width = 711;
}
);
unicode = 0026;
},
{
glyphname = paragraph;
lastChange = "2017-08-11 18:26:08 +0000";
layers = (
{
layerId = "F333AEC5-BB61-4D5E-9EDD-6124322D28F2";
paths = (
{
closed = 1;
nodes = (
"373 -170 LINE",
"373 625 LINE",
"520 625 LINE",
"520 -170 LINE",
"603 -170 LINE",
"603 694 LINE",
"322 694 LINE SMOOTH",
"167 694 OFFCURVE",
"63 611 OFFCURVE",
"63 479 CURVE SMOOTH",
"63 356 OFFCURVE",
"153 269 OFFCURVE",
"290 269 CURVE",
"290 -170 LINE"
);
}
);
width = 734;
}
);
unicode = 00B6;
},
{
glyphname = section;
lastChange = "2017-08-12 12:25:45 +0000";
layers = (
{
layerId = "F333AEC5-BB61-4D5E-9EDD-6124322D28F2";
paths = (
{
closed = 1;
nodes = (
"392 -10 OFFCURVE",
"471 45 OFFCURVE",
"471 137 CURVE SMOOTH",
"471 311 OFFCURVE",
"183 254 OFFCURVE",
"183 355 CURVE SMOOTH",
"183 397 OFFCURVE",
"234 429 OFFCURVE",
"288 429 CURVE",
"302 489 LINE",
"183 489 OFFCURVE",
"103 431 OFFCURVE",
"103 346 CURVE SMOOTH",
"103 186 OFFCURVE",
"391 243 OFFCURVE",
"391 128 CURVE SMOOTH",
"391 81 OFFCURVE",
"344 60 OFFCURVE",
"282 60 CURVE SMOOTH",
"234 60 OFFCURVE",
"168 73 OFFCURVE",
"113 98 CURVE",
"96 23 LINE",
"149 3 OFFCURVE",
"213 -10 OFFCURVE",
"271 -10 CURVE SMOOTH"
);
},
{
closed = 1;
nodes = (
"392 215 OFFCURVE",
"471 267 OFFCURVE",
"471 353 CURVE SMOOTH",
"471 518 OFFCURVE",
"183 463 OFFCURVE",
"183 570 CURVE SMOOTH",
"183 611 OFFCURVE",
"227 633 OFFCURVE",
"288 633 CURVE SMOOTH",
"333 633 OFFCURVE",
"386 621 OFFCURVE",
"427 604 CURVE",
"444 679 LINE",
"403 693 OFFCURVE",
"352 703 OFFCURVE",
"301 703 CURVE SMOOTH",
"184 703 OFFCURVE",
"103 650 OFFCURVE",
"103 561 CURVE SMOOTH",
"103 394 OFFCURVE",
"391 454 OFFCURVE",
"391 341 CURVE SMOOTH",
"391 295 OFFCURVE",
"344 275 OFFCURVE",
"282 275 CURVE",
"271 215 LINE"
);
}
);
width = 566;
}
);
unicode = 00A7;
},
{
glyphname = degree;
lastChange = "2017-08-13 17:51:43 +0000";
layers = (
{
layerId = "F333AEC5-BB61-4D5E-9EDD-6124322D28F2";
paths = (
{
closed = 1;
nodes = (
"292 476 OFFCURVE",
"338 522 OFFCURVE",
"338 592 CURVE SMOOTH",
"338 659 OFFCURVE",
"294 704 OFFCURVE",
"227 704 CURVE SMOOTH",
"157 704 OFFCURVE",
"111 657 OFFCURVE",
"111 587 CURVE SMOOTH",
"111 520 OFFCURVE",
"155 476 OFFCURVE",
"222 476 CURVE SMOOTH"
);
},
{
closed = 1;
nodes = (
"191 533 OFFCURVE",
"167 557 OFFCURVE",
"167 592 CURVE SMOOTH",
"167 626 OFFCURVE",
"189 648 OFFCURVE",
"222 648 CURVE SMOOTH",
"258 648 OFFCURVE",
"282 624 OFFCURVE",
"282 587 CURVE SMOOTH",
"282 555 OFFCURVE",
"260 533 OFFCURVE",
"227 533 CURVE SMOOTH"
);
}
);
width = 449;
}
);
unicode = 00B0;
},
{
glyphname = bar;
lastChange = "2017-08-12 12:00:42 +0000";
layers = (
{
layerId = "F333AEC5-BB61-4D5E-9EDD-6124322D28F2";
paths = (
{
closed = 1;
nodes = (
"211 -157 LINE",
"211 739 LINE",
"131 739 LINE",
"131 -157 LINE"
);
}
);
width = 342;
}
);
unicode = 007C;
},
{
glyphname = brokenbar;
lastChange = "2017-08-13 17:51:04 +0000";
layers = (
{
layerId = "F333AEC5-BB61-4D5E-9EDD-6124322D28F2";
paths = (
{
closed = 1;
nodes = (
"211 -157 LINE",
"211 131 LINE",
"131 131 LINE",
"131 -157 LINE"
);
},
{
closed = 1;
nodes = (
"211 462 LINE",
"211 739 LINE",
"131 739 LINE",
"131 462 LINE"
);
}
);
width = 342;
}
);
unicode = 00A6;
},
{
glyphname = dagger;
lastChange = "2017-08-13 17:51:05 +0000";
layers = (
{
layerId = "F333AEC5-BB61-4D5E-9EDD-6124322D28F2";
paths = (
{
closed = 1;
nodes = (
"254 0 LINE",
"241 540 LINE",
"254 694 LINE",
"170 694 LINE",
"178 540 LINE",
"170 0 LINE"
);
},
{
closed = 1;
nodes = (
"207 512 LINE",
"207 568 LINE",
"58 575 LINE",
"58 505 LINE"
);
},
{
closed = 1;
nodes = (
"368 575 LINE",
"215 568 LINE",
"215 512 LINE",
"368 505 LINE"
);
}
);
width = 426;
}
);
unicode = 2020;
},
{
glyphname = literSign;
lastChange = "2017-08-13 12:52:31 +0000";
layers = (
{
layerId = "F333AEC5-BB61-4D5E-9EDD-6124322D28F2";
paths = (
{
closed = 1;
nodes = (
"321 -10 OFFCURVE",
"362 1 OFFCURVE",
"388 17 CURVE",
"374 73 LINE",
"352 62 OFFCURVE",
"322 55 OFFCURVE",
"303 55 CURVE SMOOTH",
"263 55 OFFCURVE",
"240 87 OFFCURVE",
"240 135 CURVE SMOOTH",
"240 554 LINE SMOOTH",
"240 633 OFFCURVE",
"255 679 OFFCURVE",
"281 679 CURVE SMOOTH",
"301 679 OFFCURVE",
"314 654 OFFCURVE",
"314 611 CURVE SMOOTH",
"314 501 OFFCURVE",
"230 369 OFFCURVE",
"49 144 CURVE",
"95 97 LINE",
"313 369 OFFCURVE",
"394 510 OFFCURVE",
"394 622 CURVE SMOOTH",
"394 700 OFFCURVE",
"354 749 OFFCURVE",
"288 749 CURVE SMOOTH",
"205 749 OFFCURVE",
"160 673 OFFCURVE",
"160 544 CURVE SMOOTH",
"160 117 LINE SMOOTH",
"160 41 OFFCURVE",
"210 -10 OFFCURVE",
"286 -10 CURVE SMOOTH"
);
}
);
width = 475;
}
);
unicode = 2113;
},
{
glyphname = daggerdbl;
lastChange = "2017-08-12 12:00:42 +0000";
layers = (
{
layerId = "F333AEC5-BB61-4D5E-9EDD-6124322D28F2";
paths = (
{
closed = 1;
nodes = (
"277 0 LINE",
"265 155 LINE",
"273 346 LINE",
"265 526 LINE",
"277 694 LINE",
"194 694 LINE",
"202 526 LINE",
"194 346 LINE",
"202 155 LINE",
"194 0 LINE"
);
},
{
closed = 1;
nodes = (
"230 126 LINE",
"230 182 LINE",
"81 189 LINE",
"81 119 LINE"
);
},
{
closed = 1;
nodes = (
"391 189 LINE",
"239 182 LINE",
"239 126 LINE",
"391 119 LINE"
);
},
{
closed = 1;
nodes = (
"230 512 LINE",
"230 568 LINE",
"81 575 LINE",
"81 505 LINE"
);
},
{
closed = 1;
nodes = (
"391 575 LINE",
"239 568 LINE",
"239 512 LINE",
"391 505 LINE"
);
}
);
width = 472;
}
);
unicode = 2021;
},
{
glyphname = estimated;
lastChange = "2017-08-13 12:53:46 +0000";
layers = (
{
layerId = "F333AEC5-BB61-4D5E-9EDD-6124322D28F2";
paths = (
{
closed = 1;
nodes = (
"203 704 OFFCURVE",
"85 541 OFFCURVE",
"85 339 CURVE SMOOTH",
"85 123 OFFCURVE",
"220 -10 OFFCURVE",
"424 -10 CURVE SMOOTH",
"526 -10 OFFCURVE",
"625 23 OFFCURVE",
"707 82 CURVE",
"682 119 LINE",
"600 62 OFFCURVE",
"508 36 OFFCURVE",
"427 36 CURVE SMOOTH",
"317 36 OFFCURVE",
"253 84 OFFCURVE",
"196 145 CURVE",
"196 315 LINE",
"752 315 LINE",
"759 324 LINE",
"759 545 OFFCURVE",
"642 704 OFFCURVE",
"424 704 CURVE SMOOTH"
);
},
{
closed = 1;
nodes = (
"525 662 OFFCURVE",
"599 619 OFFCURVE",
"645 535 CURVE",
"645 358 LINE",
"196 358 LINE",
"196 535 LINE",
"242 619 OFFCURVE",
"317 662 OFFCURVE",
"421 662 CURVE SMOOTH"
);
}
);
width = 831;
}
);
unicode = 212E;
},
{
glyphname = asciicircum;
lastChange = "2017-08-13 17:51:04 +0000";
layers = (
{
layerId = "F333AEC5-BB61-4D5E-9EDD-6124322D28F2";
paths = (
{
closed = 1;
nodes = (
"261 617 LINE",
"254 617 LINE",
"400 457 LINE",
"445 498 LINE",
"276 694 LINE",
"242 694 LINE",
"71 498 LINE",
"115 457 LINE"
);
}
);
width = 517;
}
);
unicode = 005E;
},
{
glyphname = blank;
lastChange = "2017-08-13 17:51:04 +0000";
layers = (
{
layerId = "F333AEC5-BB61-4D5E-9EDD-6124322D28F2";
paths = (
{
closed = 1;
nodes = (
"131 166 LINE",
"131 0 LINE",
"697 0 LINE",
"697 166 LINE",
"624 166 LINE",
"624 73 LINE",
"204 73 LINE",
"204 166 LINE"
);
}
);
width = 828;
},
{
layerId = "F333AEC5-BB61-4D5E-9EDD-6124322D28F2";
paths = (
{
closed = 1;
nodes = (
"131 166 LINE",
"131 0 LINE",
"697 0 LINE",
"697 166 LINE",
"624 166 LINE",
"624 73 LINE",
"204 73 LINE",
"204 166 LINE"
);
}
);
width = 828;
}
);
note = uni2423;
unicode = 2423;
},
{
glyphname = deleteLeftKey;
lastChange = "2017-08-13 17:58:56 +0000";
layers = (
{
layerId = "F333AEC5-BB61-4D5E-9EDD-6124322D28F2";
paths = (
{
closed = 1;
nodes = (
"291 482 LINE",
"56 243 LINE",
"291 0 LINE",
"728 0 LINE SMOOTH",
"749 0 OFFCURVE",
"766 21 OFFCURVE",
"766 42 CURVE SMOOTH",
"766 443 LINE SMOOTH",
"766 464 OFFCURVE",
"753 482 OFFCURVE",
"727 482 CURVE SMOOTH"
);
},
{
closed = 1;
nodes = (
"361 385 LINE",
"410 385 LINE SMOOTH",
"422 385 OFFCURVE",
"434 379 OFFCURVE",
"443 370 CURVE SMOOTH",
"504 308 LINE",
"567 370 LINE SMOOTH",
"580 382 OFFCURVE",
"588 385 OFFCURVE",
"600 385 CURVE SMOOTH",
"648 385 LINE",
"648 337 LINE SMOOTH",
"648 323 OFFCURVE",
"646 311 OFFCURVE",
"636 301 CURVE SMOOTH",
"575 239 LINE",
"634 180 LINE SMOOTH",
"643 171 OFFCURVE",
"648 158 OFFCURVE",
"648 145 CURVE SMOOTH",
"648 97 LINE",
"600 97 LINE SMOOTH",
"587 97 OFFCURVE",
"575 102 OFFCURVE",
"566 111 CURVE SMOOTH",
"504 172 LINE",
"443 111 LINE SMOOTH",
"434 102 OFFCURVE",
"422 97 OFFCURVE",
"409 97 CURVE SMOOTH",
"361 97 LINE",
"361 145 LINE SMOOTH",
"361 158 OFFCURVE",
"365 171 OFFCURVE",
"374 180 CURVE SMOOTH",
"435 239 LINE",
"374 301 LINE SMOOTH",
"366 309 OFFCURVE",
"361 321 OFFCURVE",
"361 333 CURVE SMOOTH"
);
}
);
width = 896;
},
{
layerId = "F333AEC5-BB61-4D5E-9EDD-6124322D28F2";
paths = (
{
closed = 1;
nodes = (
"291 482 LINE",
"56 243 LINE",
"291 0 LINE",
"728 0 LINE SMOOTH",
"749 0 OFFCURVE",
"766 21 OFFCURVE",
"766 42 CURVE SMOOTH",
"766 443 LINE SMOOTH",
"766 464 OFFCURVE",
"753 482 OFFCURVE",
"727 482 CURVE SMOOTH"
);
},
{
closed = 1;
nodes = (
"361 385 LINE",
"410 385 LINE SMOOTH",
"422 385 OFFCURVE",
"434 379 OFFCURVE",
"443 370 CURVE SMOOTH",
"504 308 LINE",
"567 370 LINE SMOOTH",
"580 382 OFFCURVE",
"588 385 OFFCURVE",
"600 385 CURVE SMOOTH",
"648 385 LINE",
"648 337 LINE SMOOTH",
"648 323 OFFCURVE",
"646 311 OFFCURVE",
"636 301 CURVE SMOOTH",
"575 239 LINE",
"634 180 LINE SMOOTH",
"643 171 OFFCURVE",
"648 158 OFFCURVE",
"648 145 CURVE SMOOTH",
"648 97 LINE",
"600 97 LINE SMOOTH",
"587 97 OFFCURVE",
"575 102 OFFCURVE",
"566 111 CURVE SMOOTH",
"504 172 LINE",
"443 111 LINE SMOOTH",
"434 102 OFFCURVE",
"422 97 OFFCURVE",
"409 97 CURVE SMOOTH",
"361 97 LINE",
"361 145 LINE SMOOTH",
"361 158 OFFCURVE",
"365 171 OFFCURVE",
"374 180 CURVE SMOOTH",
"435 239 LINE",
"374 301 LINE SMOOTH",
"366 309 OFFCURVE",
"361 321 OFFCURVE",
"361 333 CURVE SMOOTH"
);
}
);
width = 896;
}
);
note = uni232B;
unicode = 232B;
},
{
glyphname = keyboard;
lastChange = "2017-08-13 17:59:16 +0000";
layers = (
{
layerId = "F333AEC5-BB61-4D5E-9EDD-6124322D28F2";
paths = (
{
closed = 1;
nodes = (
"168 482 LINE SMOOTH",
"147 482 OFFCURVE",
"130 465 OFFCURVE",
"130 443 CURVE SMOOTH",
"130 43 LINE SMOOTH",
"130 20 OFFCURVE",
"147 3 OFFCURVE",
"168 3 CURVE SMOOTH",
"691 3 LINE SMOOTH",
"712 3 OFFCURVE",
"728 20 OFFCURVE",
"728 43 CURVE SMOOTH",
"728 443 LINE SMOOTH",
"728 465 OFFCURVE",
"712 482 OFFCURVE",
"691 482 CURVE SMOOTH"
);
},
{
closed = 1;
nodes = (
"654 399 LINE",
"654 321 LINE",
"579 321 LINE",
"579 399 LINE"
);
},
{
closed = 1;
nodes = (
"541 399 LINE",
"541 321 LINE",
"467 321 LINE",
"467 399 LINE"
);
},
{
closed = 1;
nodes = (
"429 399 LINE",
"429 321 LINE",
"355 321 LINE",
"355 399 LINE"
);
},
{
closed = 1;
nodes = (
"317 399 LINE",
"317 321 LINE",
"242 321 LINE",
"242 399 LINE"
);
},
{
closed = 1;
nodes = (
"616 280 LINE",
"616 202 LINE",
"541 202 LINE",
"541 280 LINE"
);
},
{
closed = 1;
nodes = (
"504 280 LINE",
"504 202 LINE",
"429 202 LINE",
"429 280 LINE"
);
},
{
closed = 1;
nodes = (
"392 280 LINE",
"392 202 LINE",
"317 202 LINE",
"317 280 LINE"
);
},
{
closed = 1;
nodes = (
"280 280 LINE",
"280 202 LINE",
"205 202 LINE",
"205 280 LINE"
);
},
{
closed = 1;
nodes = (
"654 163 LINE",
"654 85 LINE",
"579 85 LINE",
"579 163 LINE"
);
},
{
closed = 1;
nodes = (
"541 163 LINE",
"541 85 LINE",
"317 85 LINE",
"317 163 LINE"
);
},
{
closed = 1;
nodes = (
"280 163 LINE",
"280 85 LINE",
"168 85 LINE",
"168 163 LINE"
);
}
);
width = 858;
},
{
layerId = "F333AEC5-BB61-4D5E-9EDD-6124322D28F2";
paths = (
{
closed = 1;
nodes = (
"168 482 LINE SMOOTH",
"147 482 OFFCURVE",
"130 465 OFFCURVE",
"130 443 CURVE SMOOTH",
"130 43 LINE SMOOTH",
"130 20 OFFCURVE",
"147 3 OFFCURVE",
"168 3 CURVE SMOOTH",
"691 3 LINE SMOOTH",
"712 3 OFFCURVE",
"728 20 OFFCURVE",
"728 43 CURVE SMOOTH",
"728 443 LINE SMOOTH",
"728 465 OFFCURVE",
"712 482 OFFCURVE",
"691 482 CURVE SMOOTH"
);
},
{
closed = 1;
nodes = (
"654 399 LINE",
"654 321 LINE",
"579 321 LINE",
"579 399 LINE"
);
},
{
closed = 1;
nodes = (
"541 399 LINE",
"541 321 LINE",
"467 321 LINE",
"467 399 LINE"
);
},
{
closed = 1;
nodes = (
"429 399 LINE",
"429 321 LINE",
"355 321 LINE",
"355 399 LINE"
);
},
{
closed = 1;
nodes = (
"317 399 LINE",
"317 321 LINE",
"242 321 LINE",
"242 399 LINE"
);
},
{
closed = 1;
nodes = (
"616 280 LINE",
"616 202 LINE",
"541 202 LINE",
"541 280 LINE"
);
},
{
closed = 1;
nodes = (
"504 280 LINE",
"504 202 LINE",
"429 202 LINE",
"429 280 LINE"
);
},
{
closed = 1;
nodes = (
"392 280 LINE",
"392 202 LINE",
"317 202 LINE",
"317 280 LINE"
);
},
{
closed = 1;
nodes = (
"280 280 LINE",
"280 202 LINE",
"205 202 LINE",
"205 280 LINE"
);
},
{
closed = 1;
nodes = (
"654 163 LINE",
"654 85 LINE",
"579 85 LINE",
"579 163 LINE"
);
},
{
closed = 1;
nodes = (
"541 163 LINE",
"541 85 LINE",
"317 85 LINE",
"317 163 LINE"
);
},
{
closed = 1;
nodes = (
"280 163 LINE",
"280 85 LINE",
"168 85 LINE",
"168 163 LINE"
);
}
);
width = 858;
}
);
note = uni2328;
unicode = 2328;
},
{
glyphname = returnsymbol;
lastChange = "2017-08-13 17:51:05 +0000";
layers = (
{
layerId = "F333AEC5-BB61-4D5E-9EDD-6124322D28F2";
paths = (
{
closed = 1;
nodes = (
"603 287 LINE",
"603 676 LINE",
"535 676 LINE",
"535 355 LINE",
"164 355 LINE",
"365 542 LINE",
"323 588 LINE",
"50 323 LINE",
"50 319 LINE",
"323 54 LINE",
"365 100 LINE",
"164 287 LINE"
);
}
);
width = 705;
},
{
layerId = "F333AEC5-BB61-4D5E-9EDD-6124322D28F2";
paths = (
{
closed = 1;
nodes = (
"603 287 LINE",
"603 676 LINE",
"535 676 LINE",
"535 355 LINE",
"164 355 LINE",
"365 542 LINE",
"323 588 LINE",
"50 323 LINE",
"50 319 LINE",
"323 54 LINE",
"365 100 LINE",
"164 287 LINE"
);
}
);
width = 705;
}
);
note = uni23CE;
unicode = 23CE;
},
{
glyphname = caroncomb.alt;
lastChange = "2017-08-09 20:35:14 +0000";
layers = (
{
anchors = (
{
name = _topright;
position = "{120, 482}";
}
);
layerId = "F333AEC5-BB61-4D5E-9EDD-6124322D28F2";
paths = (
{
closed = 1;
nodes = (
"173 731 LINE",
"99 739 LINE",
"79 548 LINE",
"132 543 LINE"
);
}
);
width = 233;
}
);
},
{
glyphname = ringcomb;
lastChange = "2017-08-13 12:54:48 +0000";
layers = (
{
anchors = (
{
name = _top;
position = "{173, 482}";
},
{
name = top;
position = "{176, 739}";
}
);
layerId = "F333AEC5-BB61-4D5E-9EDD-6124322D28F2";
paths = (
{
closed = 1;
nodes = (
"234 555 OFFCURVE",
"277 599 OFFCURVE",
"277 659 CURVE SMOOTH",
"277 720 OFFCURVE",
"234 763 OFFCURVE",
"173 763 CURVE SMOOTH",
"113 763 OFFCURVE",
"69 720 OFFCURVE",
"69 659 CURVE SMOOTH",
"69 599 OFFCURVE",
"113 555 OFFCURVE",
"173 555 CURVE SMOOTH"
);
},
{
closed = 1;
nodes = (
"147 611 OFFCURVE",
"125 633 OFFCURVE",
"125 661 CURVE SMOOTH",
"125 689 OFFCURVE",
"147 711 OFFCURVE",
"175 711 CURVE SMOOTH",
"203 711 OFFCURVE",
"225 689 OFFCURVE",
"225 661 CURVE SMOOTH",
"225 633 OFFCURVE",
"203 611 OFFCURVE",
"175 611 CURVE SMOOTH"
);
}
);
width = 346;
}
);
unicode = 030A;
},
{
glyphname = tildecomb;
lastChange = "2017-08-13 12:00:55 +0000";
layers = (
{
anchors = (
{
name = _top;
position = "{235, 482}";
},
{
name = top;
position = "{235, 694}";
}
);
layerId = "F333AEC5-BB61-4D5E-9EDD-6124322D28F2";
paths = (
{
closed = 1;
nodes = (
"124 604 OFFCURVE",
"147 628 OFFCURVE",
"173 628 CURVE SMOOTH",
"214 628 OFFCURVE",
"240 568 OFFCURVE",
"293 568 CURVE SMOOTH",
"343 568 OFFCURVE",
"393 620 OFFCURVE",
"413 694 CURVE",
"356 704 LINE",
"347 667 OFFCURVE",
"323 643 OFFCURVE",
"297 643 CURVE SMOOTH",
"255 643 OFFCURVE",
"234 704 OFFCURVE",
"179 704 CURVE SMOOTH",
"128 704 OFFCURVE",
"79 654 OFFCURVE",
"57 578 CURVE",
"114 568 LINE"
);
}
);
width = 470;
}
);
unicode = 0303;
},
{
glyphname = hookabovecomb;
lastChange = "2017-08-13 12:00:56 +0000";
layers = (
{
anchors = (
{
name = _top;
position = "{143, 482}";
},
{
name = top;
position = "{135, 699}";
}
);
layerId = "F333AEC5-BB61-4D5E-9EDD-6124322D28F2";
paths = (
{
closed = 1;
nodes = (
"201 570 OFFCURVE",
"248 623 OFFCURVE",
"248 675 CURVE SMOOTH",
"248 723 OFFCURVE",
"208 758 OFFCURVE",
"147 758 CURVE SMOOTH",
"117 758 OFFCURVE",
"74 749 OFFCURVE",
"40 733 CURVE",
"59 676 LINE",
"85 689 OFFCURVE",
"114 699 OFFCURVE",
"135 699 CURVE SMOOTH",
"162 699 OFFCURVE",
"181 683 OFFCURVE",
"181 659 CURVE SMOOTH",
"181 632 OFFCURVE",
"157 601 OFFCURVE",
"121 581 CURVE",
"136 539 LINE"
);
}
);
width = 309;
}
);
unicode = 0309;
},
{
glyphname = horncomb;
lastChange = "2017-08-13 12:00:55 +0000";
layers = (
{
anchors = (
{
name = _topright;
position = "{142, 482}";
},
{
name = topright;
position = "{142, 482}";
}
);
layerId = "F333AEC5-BB61-4D5E-9EDD-6124322D28F2";
paths = (
{
closed = 1;
nodes = (
"149 427 OFFCURVE",
"230 502 OFFCURVE",
"230 610 CURVE",
"149 610 LINE",
"149 537 OFFCURVE",
"116 483 OFFCURVE",
"46 482 CURVE",
"46 427 LINE"
);
}
);
width = 284;
}
);
unicode = 031B;
},
{
glyphname = cedillacomb;
lastChange = "2017-08-10 18:52:44 +0000";
layers = (
{
anchors = (
{
name = _bottom;
position = "{201, 0}";
},
{
name = bottom;
position = "{291, -230}";
}
);
associatedMasterId = "F333AEC5-BB61-4D5E-9EDD-6124322D28F2";
layerId = "8267F91D-1D2D-4BD0-A3F6-1A108ACC4797";
name = "Aug 10 17, 20:24";
paths = (
{
closed = 1;
nodes = (
"232 -254 OFFCURVE",
"286 -201 OFFCURVE",
"286 -124 CURVE SMOOTH",
"286 -73 OFFCURVE",
"262 -22 OFFCURVE",
"226 7 CURVE",
"163 7 LINE",
"196 -23 OFFCURVE",
"218 -67 OFFCURVE",
"218 -107 CURVE SMOOTH",
"218 -155 OFFCURVE",
"186 -187 OFFCURVE",
"134 -187 CURVE SMOOTH",
"107 -187 OFFCURVE",
"72 -178 OFFCURVE",
"50 -165 CURVE",
"35 -227 LINE",
"64 -243 OFFCURVE",
"112 -254 OFFCURVE",
"150 -254 CURVE SMOOTH"
);
}
);
width = 353;
},
{
anchors = (
{
name = _bottom;
position = "{182, 0}";
},
{
name = bottom;
position = "{291, -230}";
}
);
layerId = "F333AEC5-BB61-4D5E-9EDD-6124322D28F2";
paths = (
{
closed = 1;
nodes = (
"92 -244 OFFCURVE",
"131 -254 OFFCURVE",
"171 -254 CURVE SMOOTH",
"259 -254 OFFCURVE",
"310 -208 OFFCURVE",
"310 -146 CURVE SMOOTH",
"310 -93 OFFCURVE",
"273 -57 OFFCURVE",
"202 -43 CURVE",
"212 5 LINE",
"152 5 LINE",
"132 -83 LINE",
"193 -86 OFFCURVE",
"240 -109 OFFCURVE",
"240 -149 CURVE SMOOTH",
"240 -176 OFFCURVE",
"218 -194 OFFCURVE",
"177 -194 CURVE SMOOTH",
"144 -194 OFFCURVE",
"107 -183 OFFCURVE",
"81 -168 CURVE",
"64 -230 LINE"
);
}
);
width = 353;
}
);
unicode = 0327;
},
{
glyphname = ogonekcomb;
lastChange = "2017-08-09 20:29:23 +0000";
layers = (
{
anchors = (
{
name = _ogonek;
position = "{251, 10}";
}
);
layerId = "F333AEC5-BB61-4D5E-9EDD-6124322D28F2";
paths = (
{
closed = 1;
nodes = (
"196 -254 OFFCURVE",
"236 -245 OFFCURVE",
"262 -231 CURVE",
"255 -185 LINE",
"235 -192 OFFCURVE",
"213 -197 OFFCURVE",
"197 -197 CURVE SMOOTH",
"159 -197 OFFCURVE",
"133 -171 OFFCURVE",
"133 -135 CURVE SMOOTH",
"133 -85 OFFCURVE",
"186 -28 OFFCURVE",
"269 0 CURVE",
"224 9 LINE",
"126 -16 OFFCURVE",
"57 -87 OFFCURVE",
"57 -158 CURVE SMOOTH",
"57 -214 OFFCURVE",
"99 -254 OFFCURVE",
"165 -254 CURVE SMOOTH"
);
}
);
width = 323;
}
);
unicode = 0328;
},
{
glyphname = strokeshortcomb;
lastChange = "2017-08-13 12:00:56 +0000";
layers = (
{
anchors = (
{
name = _center;
position = "{234, 298}";
}
);
layerId = "F333AEC5-BB61-4D5E-9EDD-6124322D28F2";
paths = (
{
closed = 1;
nodes = (
"380 265 LINE",
"380 330 LINE",
"88 330 LINE",
"88 265 LINE"
);
}
);
width = 468;
}
);
unicode = 0335;
},
{
glyphname = strokelongcomb;
lastChange = "2017-08-10 18:43:01 +0000";
layers = (
{
anchors = (
{
name = _center;
position = "{445, 342}";
}
);
layerId = "F333AEC5-BB61-4D5E-9EDD-6124322D28F2";
paths = (
{
closed = 1;
nodes = (
"801 309 LINE",
"801 374 LINE",
"88 374 LINE",
"88 309 LINE"
);
}
);
width = 889;
}
);
unicode = 0336;
},
{
glyphname = slashshortcomb;
lastChange = "2017-08-09 20:46:35 +0000";
layers = (
{
anchors = (
{
name = _center;
position = "{179, 285}";
}
);
layerId = "F333AEC5-BB61-4D5E-9EDD-6124322D28F2";
paths = (
{
closed = 1;
nodes = (
"320 328 LINE",
"291 379 LINE",
"38 241 LINE",
"68 191 LINE"
);
}
);
width = 355;
}
);
unicode = 0337;
},
{
glyphname = slashlongcomb;
lastChange = "2017-08-13 16:32:30 +0000";
layers = (
{
anchors = (
{
name = _center;
position = "{229, 242}";
}
);
layerId = "F333AEC5-BB61-4D5E-9EDD-6124322D28F2";
paths = (
{
closed = 1;
nodes = (
"67 -38 LINE",
"429 496 LINE",
"382 525 LINE",
"24 -9 LINE"
);
}
);
width = 456;
}
);
unicode = 0338;
},
{
glyphname = slashlongcomb.case;
lastChange = "2017-08-13 16:32:52 +0000";
layers = (
{
anchors = (
{
name = _center;
position = "{270, 349}";
}
);
layerId = "F333AEC5-BB61-4D5E-9EDD-6124322D28F2";
paths = (
{
closed = 1;
nodes = (
"50 -39 LINE",
"543 709 LINE",
"489 744 LINE",
"-1 -4 LINE"
);
}
);
width = 550;
}
);
},
{
export = 0;
glyphname = _ogonekcomb.e;
lastChange = "2017-08-09 20:42:40 +0000";
layers = (
{
anchors = (
{
name = _ogonek;
position = "{251, 10}";
}
);
layerId = "F333AEC5-BB61-4D5E-9EDD-6124322D28F2";
paths = (
{
closed = 1;
nodes = (
"191 -254 OFFCURVE",
"230 -245 OFFCURVE",
"254 -231 CURVE",
"247 -185 LINE",
"229 -192 OFFCURVE",
"204 -197 OFFCURVE",
"188 -197 CURVE SMOOTH",
"150 -197 OFFCURVE",
"125 -168 OFFCURVE",
"125 -127 CURVE SMOOTH",
"125 -65 OFFCURVE",
"186 -5 OFFCURVE",
"277 26 CURVE",
"233 35 LINE",
"123 8 OFFCURVE",
"49 -65 OFFCURVE",
"49 -148 CURVE SMOOTH",
"49 -212 OFFCURVE",
"92 -254 OFFCURVE",
"160 -254 CURVE SMOOTH"
);
}
);
width = 323;
}
);
},
{
export = 0;
glyphname = _bowl.d;
lastChange = "2017-08-01 18:00:18 +0000";
layers = (
{
anchors = (
{
name = "_#bowl";
position = "{441, 252}";
}
);
layerId = "F333AEC5-BB61-4D5E-9EDD-6124322D28F2";
paths = (
{
closed = 1;
nodes = (
"365 -10 OFFCURVE",
"429 41 OFFCURVE",
"473 89 CURVE",
"454 139 LINE",
"420 101 OFFCURVE",
"369 60 OFFCURVE",
"304 60 CURVE SMOOTH",
"218 60 OFFCURVE",
"153 129 OFFCURVE",
"153 245 CURVE SMOOTH",
"153 342 OFFCURVE",
"198 422 OFFCURVE",
"291 422 CURVE SMOOTH",
"320 422 OFFCURVE",
"417 414 OFFCURVE",
"441 313 CURVE",
"473 376 LINE",
"449 444 OFFCURVE",
"386 492 OFFCURVE",
"296 492 CURVE SMOOTH",
"166 492 OFFCURVE",
"73 392 OFFCURVE",
"73 235 CURVE SMOOTH",
"73 80 OFFCURVE",
"163 -10 OFFCURVE",
"278 -10 CURVE SMOOTH"
);
}
);
width = 538;
}
);
},
{
export = 0;
glyphname = _stem.d;
lastChange = "2017-07-31 20:39:00 +0000";
layers = (
{
anchors = (
{
name = "#bowl";
position = "{123, 252}";
}
);
layerId = "F333AEC5-BB61-4D5E-9EDD-6124322D28F2";
paths = (
{
closed = 1;
nodes = (
"189 0 LINE",
"189 739 LINE",
"109 739 LINE",
"109 56 LINE",
"133 0 LINE"
);
}
);
width = 298;
}
);
},
{
export = 0;
glyphname = _bowl.b;
lastChange = "2017-08-07 21:12:05 +0000";
layers = (
{
anchors = (
{
name = "_#bowl";
position = "{161, 252}";
}
);
layerId = "F333AEC5-BB61-4D5E-9EDD-6124322D28F2";
paths = (
{
closed = 1;
nodes = (
"420 -10 OFFCURVE",
"519 87 OFFCURVE",
"519 249 CURVE SMOOTH",
"519 400 OFFCURVE",
"432 492 OFFCURVE",
"311 492 CURVE SMOOTH",
"224 492 OFFCURVE",
"163 444 OFFCURVE",
"119 393 CURVE",
"138 343 LINE",
"172 381 OFFCURVE",
"223 420 OFFCURVE",
"288 420 CURVE SMOOTH",
"374 420 OFFCURVE",
"439 353 OFFCURVE",
"439 236 CURVE SMOOTH",
"439 139 OFFCURVE",
"394 60 OFFCURVE",
"305 60 CURVE SMOOTH",
"247 60 OFFCURVE",
"191 93 OFFCURVE",
"161 149 CURVE",
"129 106 LINE",
"150 53 OFFCURVE",
"202 -10 OFFCURVE",
"299 -10 CURVE SMOOTH"
);
}
);
width = 572;
}
);
},
{
export = 0;
glyphname = _stem.b;
lastChange = "2017-07-31 20:45:36 +0000";
layers = (
{
anchors = (
{
name = "#bowl";
position = "{185, 252}";
}
);
layerId = "F333AEC5-BB61-4D5E-9EDD-6124322D28F2";
paths = (
{
closed = 1;
nodes = (
"165 0 LINE",
"189 56 LINE",
"189 739 LINE",
"109 739 LINE",
"109 0 LINE"
);
}
);
width = 298;
}
);
},
{
export = 0;
glyphname = _shoulder.n;
lastChange = "2017-08-07 21:06:44 +0000";
layers = (
{
anchors = (
{
name = "#entry";
position = "{62, 401}";
},
{
name = "#exit";
position = "{386, 401}";
},
{
name = "#hook";
position = "{363, 0}";
}
);
layerId = "F333AEC5-BB61-4D5E-9EDD-6124322D28F2";
paths = (
{
closed = 1;
nodes = (
"402 0 LINE",
"402 316 LINE SMOOTH",
"402 428 OFFCURVE",
"331 492 OFFCURVE",
"228 492 CURVE SMOOTH",
"157 492 OFFCURVE",
"88 461 OFFCURVE",
"38 409 CURVE",
"57 358 LINE",
"96 398 OFFCURVE",
"149 422 OFFCURVE",
"206 422 CURVE SMOOTH",
"280 422 OFFCURVE",
"322 382 OFFCURVE",
"322 300 CURVE SMOOTH",
"322 0 LINE"
);
}
);
width = 502;
}
);
},
{
export = 0;
glyphname = _stem.n;
lastChange = "2017-08-01 20:21:38 +0000";
layers = (
{
anchors = (
{
name = "#exit";
position = "{152, 401}";
}
);
layerId = "F333AEC5-BB61-4D5E-9EDD-6124322D28F2";
paths = (
{
closed = 1;
nodes = (
"168 0 LINE",
"168 426 LINE",
"144 482 LINE",
"88 482 LINE",
"88 0 LINE"
);
}
);
width = 573;
}
);
},
{
export = 0;
glyphname = _Qtail;
lastChange = "2017-08-07 21:12:05 +0000";
layers = (
{
anchors = (
{
name = "_#Qtail";
position = "{591, 93}";
}
);
layerId = "F333AEC5-BB61-4D5E-9EDD-6124322D28F2";
paths = (
{
closed = 1;
nodes = (
"696 42 LINE",
"484 242 LINE",
"436 189 LINE",
"647 -10 LINE"
);
}
);
width = 781;
}
);
},
{
export = 0;
glyphname = _stem.g;
lastChange = "2017-08-06 16:29:53 +0000";
layers = (
{
anchors = (
{
name = "#bowl";
position = "{410, 252}";
}
);
layerId = "F333AEC5-BB61-4D5E-9EDD-6124322D28F2";
paths = (
{
closed = 1;
nodes = (
"379 -254 OFFCURVE",
"477 -166 OFFCURVE",
"477 -13 CURVE SMOOTH",
"477 482 LINE",
"421 482 LINE",
"397 417 LINE",
"397 -25 LINE SMOOTH",
"397 -128 OFFCURVE",
"327 -184 OFFCURVE",
"237 -184 CURVE SMOOTH",
"192 -184 OFFCURVE",
"156 -170 OFFCURVE",
"113 -150 CURVE",
"96 -223 LINE",
"148 -244 OFFCURVE",
"201 -254 OFFCURVE",
"246 -254 CURVE SMOOTH"
);
}
);
width = 565;
}
);
},
{
export = 0;
glyphname = _stem.q;
lastChange = "2017-08-07 21:12:05 +0000";
layers = (
{
anchors = (
{
name = "#bowl";
position = "{453, 252}";
}
);
layerId = "F333AEC5-BB61-4D5E-9EDD-6124322D28F2";
paths = (
{
closed = 1;
nodes = (
"520 -244 LINE",
"520 482 LINE",
"464 482 LINE",
"440 426 LINE",
"440 -244 LINE"
);
}
);
width = 568;
}
);
},
{
export = 0;
glyphname = _stem.p;
lastChange = "2017-08-07 21:12:05 +0000";
layers = (
{
anchors = (
{
name = "#bowl";
position = "{197, 252}";
}
);
layerId = "F333AEC5-BB61-4D5E-9EDD-6124322D28F2";
paths = (
{
closed = 1;
nodes = (
"200 -244 LINE",
"200 426 LINE",
"176 482 LINE",
"120 482 LINE",
"120 -244 LINE"
);
}
);
width = 568;
}
);
},
{
export = 0;
glyphname = _quote;
lastChange = "2017-08-07 21:12:05 +0000";
layers = (
{
layerId = "F333AEC5-BB61-4D5E-9EDD-6124322D28F2";
paths = (
{
closed = 1;
nodes = (
"195 482 LINE",
"205 694 LINE",
"118 694 LINE",
"128 482 LINE"
);
}
);
width = 323;
}
);
},
{
export = 0;
glyphname = _comma;
lastChange = "2017-08-07 21:12:05 +0000";
layers = (
{
layerId = "F333AEC5-BB61-4D5E-9EDD-6124322D28F2";
paths = (
{
closed = 1;
nodes = (
"165 -138 LINE",
"200 -76 OFFCURVE",
"231 21 OFFCURVE",
"234 103 CURVE",
"151 103 LINE",
"146 21 OFFCURVE",
"120 -68 OFFCURVE",
"92 -138 CURVE"
);
}
);
width = 329;
}
);
},
{
export = 0;
glyphname = _period;
lastChange = "2017-08-05 20:37:58 +0000";
layers = (
{
layerId = "F333AEC5-BB61-4D5E-9EDD-6124322D28F2";
paths = (
{
closed = 1;
nodes = (
"206 -10 OFFCURVE",
"230 15 OFFCURVE",
"230 49 CURVE SMOOTH",
"230 83 OFFCURVE",
"206 108 OFFCURVE",
"171 108 CURVE SMOOTH",
"136 108 OFFCURVE",
"112 83 OFFCURVE",
"112 49 CURVE SMOOTH",
"112 15 OFFCURVE",
"136 -10 OFFCURVE",
"171 -10 CURVE SMOOTH"
);
}
);
width = 342;
}
);
},
{
export = 0;
glyphname = _stem.h;
lastChange = "2017-08-06 16:27:21 +0000";
layers = (
{
anchors = (
{
name = "#exit";
position = "{156, 401}";
}
);
layerId = "F333AEC5-BB61-4D5E-9EDD-6124322D28F2";
paths = (
{
closed = 1;
nodes = (
"168 0 LINE",
"168 739 LINE",
"88 739 LINE",
"88 0 LINE"
);
}
);
width = 573;
}
);
},
{
export = 0;
glyphname = _stem.exclam;
lastChange = "2017-08-07 21:12:05 +0000";
layers = (
{
layerId = "F333AEC5-BB61-4D5E-9EDD-6124322D28F2";
paths = (
{
closed = 1;
nodes = (
"194 201 LINE",
"204 694 LINE",
"120 694 LINE",
"130 201 LINE"
);
}
);
width = 342;
}
);
},
{
export = 0;
glyphname = _typoquote;
lastChange = "2017-08-07 21:12:05 +0000";
layers = (
{
layerId = "F333AEC5-BB61-4D5E-9EDD-6124322D28F2";
paths = (
{
closed = 1;
nodes = (
"133 -148 LINE",
"178 -82 OFFCURVE",
"209 18 OFFCURVE",
"212 103 CURVE",
"129 103 LINE",
"123 13 OFFCURVE",
"95 -87 OFFCURVE",
"60 -148 CURVE"
);
}
);
width = 294;
}
);
},
{
export = 0;
glyphname = _stem.question;
lastChange = "2017-08-11 18:25:12 +0000";
layers = (
{
layerId = "F333AEC5-BB61-4D5E-9EDD-6124322D28F2";
paths = (
{
closed = 1;
nodes = (
"268 195 LINE",
"268 368 OFFCURVE",
"429 409 OFFCURVE",
"429 547 CURVE SMOOTH",
"429 643 OFFCURVE",
"351 704 OFFCURVE",
"234 704 CURVE SMOOTH",
"164 704 OFFCURVE",
"97 682 OFFCURVE",
"34 647 CURVE",
"55 589 LINE",
"119 619 OFFCURVE",
"167 631 OFFCURVE",
"211 631 CURVE SMOOTH",
"291 631 OFFCURVE",
"344 593 OFFCURVE",
"344 535 CURVE SMOOTH",
"344 436 OFFCURVE",
"192 393 OFFCURVE",
"192 195 CURVE"
);
}
);
width = 495;
}
);
},
{
export = 0;
glyphname = _dot;
lastChange = "2017-08-07 18:59:50 +0000";
layers = (
{
layerId = "F333AEC5-BB61-4D5E-9EDD-6124322D28F2";
paths = (
{
closed = 1;
nodes = (
"164 595 OFFCURVE",
"185 616 OFFCURVE",
"185 652 CURVE SMOOTH",
"185 688 OFFCURVE",
"164 709 OFFCURVE",
"128 709 CURVE SMOOTH",
"92 709 OFFCURVE",
"71 688 OFFCURVE",
"71 652 CURVE SMOOTH",
"71 616 OFFCURVE",
"92 595 OFFCURVE",
"128 595 CURVE SMOOTH"
);
}
);
width = 256;
}
);
},
{
export = 0;
glyphname = _acute;
lastChange = "2017-08-09 20:12:20 +0000";
layers = (
{
layerId = "F333AEC5-BB61-4D5E-9EDD-6124322D28F2";
paths = (
{
closed = 1;
nodes = (
"402 683 LINE",
"341 733 LINE",
"222 569 LINE",
"271 529 LINE"
);
}
);
width = 600;
}
);
},
{
export = 0;
glyphname = _circumflex;
lastChange = "2017-08-09 20:24:19 +0000";
layers = (
{
layerId = "F333AEC5-BB61-4D5E-9EDD-6124322D28F2";
paths = (
{
closed = 1;
nodes = (
"301 652 LINE",
"294 652 LINE",
"410 552 LINE",
"455 593 LINE",
"316 729 LINE",
"282 729 LINE",
"141 593 LINE",
"185 552 LINE"
);
}
);
width = 600;
}
);
},
{
export = 0;
glyphname = _a.ae;
lastChange = "2017-08-07 19:21:20 +0000";
layers = (
{
anchors = (
{
name = "#exit";
position = "{392, 236}";
}
);
layerId = "F333AEC5-BB61-4D5E-9EDD-6124322D28F2";
paths = (
{
closed = 1;
nodes = (
"327 -10 OFFCURVE",
"406 67 OFFCURVE",
"421 169 CURVE",
"392 183 LINE",
"376 109 OFFCURVE",
"312 60 OFFCURVE",
"227 60 CURVE SMOOTH",
"163 60 OFFCURVE",
"125 88 OFFCURVE",
"125 136 CURVE SMOOTH",
"125 196 OFFCURVE",
"184 219 OFFCURVE",
"364 219 CURVE",
"364 279 LINE",
"184 279 OFFCURVE",
"45 248 OFFCURVE",
"45 128 CURVE SMOOTH",
"45 45 OFFCURVE",
"111 -10 OFFCURVE",
"210 -10 CURVE SMOOTH"
);
},
{
closed = 1;
nodes = (
"432 219 LINE",
"432 316 LINE SMOOTH",
"432 419 OFFCURVE",
"372 492 OFFCURVE",
"245 492 CURVE SMOOTH",
"186 492 OFFCURVE",
"119 476 OFFCURVE",
"63 444 CURVE",
"84 388 LINE",
"130 410 OFFCURVE",
"185 420 OFFCURVE",
"228 420 CURVE SMOOTH",
"317 420 OFFCURVE",
"352 377 OFFCURVE",
"352 303 CURVE SMOOTH",
"352 219 LINE"
);
}
);
width = 511;
}
);
},
{
export = 0;
glyphname = _A.AE;
lastChange = "2017-08-07 19:27:49 +0000";
layers = (
{
anchors = (
{
name = "#exit";
position = "{510, 291}";
}
);
layerId = "F333AEC5-BB61-4D5E-9EDD-6124322D28F2";
paths = (
{
closed = 1;
nodes = (
"121 0 LINE",
"461 606 LINE",
"470 606 LINE",
"470 0 LINE",
"553 0 LINE",
"553 694 LINE",
"422 694 LINE",
"24 0 LINE"
);
},
{
closed = 1;
nodes = (
"498 202 LINE",
"498 282 LINE",
"222 282 LINE",
"222 202 LINE"
);
}
);
width = 600;
}
);
},
{
export = 0;
glyphname = _stem.thorn;
lastChange = "2017-08-07 21:12:05 +0000";
layers = (
{
anchors = (
{
name = "#bowl";
position = "{197, 252}";
}
);
layerId = "F333AEC5-BB61-4D5E-9EDD-6124322D28F2";
paths = (
{
closed = 1;
nodes = (
"200 -244 LINE",
"200 694 LINE",
"120 694 LINE",
"120 -244 LINE"
);
}
);
width = 568;
}
);
},
{
export = 0;
glyphname = _macron;
lastChange = "2017-08-09 20:23:39 +0000";
layers = (
{
layerId = "F333AEC5-BB61-4D5E-9EDD-6124322D28F2";
paths = (
{
closed = 1;
nodes = (
"401 609 LINE",
"401 676 LINE",
"88 676 LINE",
"88 609 LINE"
);
}
);
width = 489;
}
);
},
{
export = 0;
glyphname = _commaaccent;
lastChange = "2017-08-09 20:43:49 +0000";
layers = (
{
layerId = "F333AEC5-BB61-4D5E-9EDD-6124322D28F2";
paths = (
{
closed = 1;
nodes = (
"156 -244 LINE",
"182 -194 OFFCURVE",
"200 -135 OFFCURVE",
"203 -77 CURVE",
"130 -77 LINE",
"127 -133 OFFCURVE",
"118 -191 OFFCURVE",
"99 -244 CURVE"
);
}
);
width = 329;
}
);
},
{
export = 0;
glyphname = _bottomhook.case;
lastChange = "2017-08-07 21:17:13 +0000";
layers = (
{
anchors = (
{
name = "_#hook";
position = "{616, 0}";
}
);
layerId = "F333AEC5-BB61-4D5E-9EDD-6124322D28F2";
paths = (
{
closed = 1;
nodes = (
"595 -230 OFFCURVE",
"661 -164 OFFCURVE",
"661 -65 CURVE SMOOTH",
"661 0 LINE",
"576 0 LINE",
"576 -75 LINE SMOOTH",
"576 -124 OFFCURVE",
"549 -157 OFFCURVE",
"499 -157 CURVE SMOOTH",
"468 -157 OFFCURVE",
"421 -144 OFFCURVE",
"391 -125 CURVE",
"364 -200 LINE",
"394 -218 OFFCURVE",
"447 -230 OFFCURVE",
"491 -230 CURVE SMOOTH"
);
}
);
width = 784;
}
);
},
{
export = 0;
glyphname = _bottomhook;
lastChange = "2017-08-07 21:09:19 +0000";
layers = (
{
anchors = (
{
name = "_#hook";
position = "{463, 0}";
}
);
layerId = "F333AEC5-BB61-4D5E-9EDD-6124322D28F2";
paths = (
{
closed = 1;
nodes = (
"436 -230 OFFCURVE",
"502 -168 OFFCURVE",
"502 -75 CURVE SMOOTH",
"502 0 LINE",
"422 0 LINE",
"422 -85 LINE SMOOTH",
"422 -130 OFFCURVE",
"394 -160 OFFCURVE",
"343 -160 CURVE SMOOTH",
"309 -160 OFFCURVE",
"260 -147 OFFCURVE",
"228 -129 CURVE",
"211 -201 LINE",
"240 -218 OFFCURVE",
"290 -230 OFFCURVE",
"335 -230 CURVE SMOOTH"
);
}
);
width = 581;
}
);
},
{
export = 0;
glyphname = _N.Eng;
lastChange = "2017-08-11 20:17:53 +0000";
layers = (
{
anchors = (
{
name = "#hook";
position = "{630, 0}";
}
);
layerId = "F333AEC5-BB61-4D5E-9EDD-6124322D28F2";
paths = (
{
closed = 1;
nodes = (
"187 0 LINE",
"187 448 LINE SMOOTH",
"187 503 OFFCURVE",
"184 556 OFFCURVE",
"181 594 CURVE",
"597 -25 LINE",
"675 0 LINE",
"675 694 LINE",
"597 694 LINE",
"597 254 LINE SMOOTH",
"597 202 OFFCURVE",
"600 149 OFFCURVE",
"608 100 CURVE",
"204 694 LINE",
"109 694 LINE",
"109 0 LINE"
);
}
);
width = 784;
}
);
},
{
export = 0;
glyphname = _breve;
lastChange = "2017-08-10 19:19:38 +0000";
layers = (
{
layerId = "F333AEC5-BB61-4D5E-9EDD-6124322D28F2";
paths = (
{
closed = 1;
nodes = (
"286 638 OFFCURVE",
"252 610 OFFCURVE",
"204 610 CURVE SMOOTH",
"163 610 OFFCURVE",
"124 643 OFFCURVE",
"106 692 CURVE",
"42 654 LINE",
"66 590 OFFCURVE",
"126 547 OFFCURVE",
"192 547 CURVE SMOOTH",
"266 547 OFFCURVE",
"318 588 OFFCURVE",
"343 666 CURVE",
"304 692 LINE"
);
}
);
width = 405;
}
);
},
{
export = 0;
glyphname = _k;
lastChange = "2017-08-10 19:23:01 +0000";
layers = (
{
anchors = (
{
name = "#entry";
position = "{156, 401}";
}
);
layerId = "F333AEC5-BB61-4D5E-9EDD-6124322D28F2";
paths = (
{
closed = 1;
nodes = (
"504 0 LINE",
"231 298 LINE",
"228 242 LINE",
"487 482 LINE",
"385 482 LINE",
"156 267 LINE",
"396 0 LINE"
);
}
);
width = 512;
}
);
},
{
export = 0;
glyphname = _stem.kgreenlandic;
lastChange = "2017-08-10 19:24:31 +0000";
layers = (
{
anchors = (
{
name = "#exit";
position = "{156, 401}";
}
);
layerId = "F333AEC5-BB61-4D5E-9EDD-6124322D28F2";
paths = (
{
closed = 1;
nodes = (
"168 0 LINE",
"168 482 LINE",
"88 482 LINE",
"88 0 LINE"
);
}
);
width = 573;
}
);
},
{
export = 0;
glyphname = _fraction;
lastChange = "2017-08-13 17:55:38 +0000";
layers = (
{
layerId = "F333AEC5-BB61-4D5E-9EDD-6124322D28F2";
paths = (
{
closed = 1;
nodes = (
"-70 0 LINE",
"14 0 LINE",
"399 694 LINE",
"310 694 LINE"
);
}
);
width = 331;
}
);
},
{
export = 0;
glyphname = _zero.percent;
lastChange = "2017-08-13 12:37:20 +0000";
layers = (
{
layerId = "F333AEC5-BB61-4D5E-9EDD-6124322D28F2";
paths = (
{
closed = 1;
nodes = (
"262 -10 OFFCURVE",
"325 70 OFFCURVE",
"325 189 CURVE SMOOTH",
"325 302 OFFCURVE",
"266 378 OFFCURVE",
"178 378 CURVE SMOOTH",
"83 378 OFFCURVE",
"20 299 OFFCURVE",
"20 180 CURVE SMOOTH",
"20 66 OFFCURVE",
"79 -10 OFFCURVE",
"167 -10 CURVE SMOOTH"
);
},
{
closed = 1;
nodes = (
"129 56 OFFCURVE",
"97 110 OFFCURVE",
"97 190 CURVE SMOOTH",
"97 263 OFFCURVE",
"125 312 OFFCURVE",
"168 312 CURVE SMOOTH",
"216 312 OFFCURVE",
"248 259 OFFCURVE",
"248 179 CURVE SMOOTH",
"248 105 OFFCURVE",
"220 56 OFFCURVE",
"178 56 CURVE SMOOTH"
);
}
);
width = 345;
}
);
},
{
export = 0;
glyphname = _stem.sterling;
lastChange = "2017-08-12 10:33:50 +0000";
layers = (
{
layerId = "F333AEC5-BB61-4D5E-9EDD-6124322D28F2";
paths = (
{
closed = 1;
nodes = (
"154 198 LINE SMOOTH",
"154 141 OFFCURVE",
"129 90 OFFCURVE",
"76 71 CURVE",
"76 0 LINE",
"508 0 LINE",
"508 71 LINE",
"171 71 LINE",
"215 90 OFFCURVE",
"231 145 OFFCURVE",
"231 208 CURVE SMOOTH",
"231 491 LINE SMOOTH",
"231 577 OFFCURVE",
"282 631 OFFCURVE",
"355 631 CURVE SMOOTH",
"385 631 OFFCURVE",
"429 622 OFFCURVE",
"455 608 CURVE",
"482 686 LINE",
"456 697 OFFCURVE",
"408 704 OFFCURVE",
"370 704 CURVE SMOOTH",
"235 704 OFFCURVE",
"154 615 OFFCURVE",
"154 481 CURVE SMOOTH"
);
}
);
width = 579;
}
);
},
{
export = 0;
glyphname = _stroke.sterling;
lastChange = "2017-08-12 10:16:47 +0000";
layers = (
{
layerId = "F333AEC5-BB61-4D5E-9EDD-6124322D28F2";
paths = (
{
closed = 1;
nodes = (
"431 315 LINE",
"431 380 LINE",
"99 380 LINE",
"99 315 LINE"
);
}
);
width = 579;
}
);
},
{
export = 0;
glyphname = _stem.euro;
lastChange = "2017-08-12 11:38:17 +0000";
layers = (
{
layerId = "F333AEC5-BB61-4D5E-9EDD-6124322D28F2";
paths = (
{
closed = 1;
nodes = (
"449 -10 OFFCURVE",
"505 9 OFFCURVE",
"550 34 CURVE",
"535 95 LINE",
"499 78 OFFCURVE",
"451 63 OFFCURVE",
"409 63 CURVE SMOOTH",
"293 63 OFFCURVE",
"221 180 OFFCURVE",
"221 356 CURVE SMOOTH",
"221 519 OFFCURVE",
"283 630 OFFCURVE",
"390 630 CURVE SMOOTH",
"426 630 OFFCURVE",
"483 617 OFFCURVE",
"524 597 CURVE",
"546 675 LINE",
"499 695 OFFCURVE",
"444 703 OFFCURVE",
"406 703 CURVE SMOOTH",
"244 703 OFFCURVE",
"141 558 OFFCURVE",
"141 341 CURVE SMOOTH",
"141 129 OFFCURVE",
"240 -10 OFFCURVE",
"393 -10 CURVE SMOOTH"
);
}
);
width = 636;
}
);
},
{
export = 0;
glyphname = _control;
lastChange = "2017-08-13 18:04:47 +0000";
layers = (
{
layerId = "F333AEC5-BB61-4D5E-9EDD-6124322D28F2";
paths = (
{
closed = 1;
nodes = (
"330 694 LINE",
"250 694 LINE",
"63 430 LINE",
"121 389 LINE",
"288 619 LINE",
"456 388 LINE",
"517 430 LINE"
);
}
